<svg width="51" height="51" viewBox="0 0 51 51" fill="none" xmlns="http://www.w3.org/2000/svg">
<g clip-path="url(#clip0_655_10114)">
<path d="M25.8716 11.2612C26.7926 12.0529 27.7059 12.9255 28.3321 13.9757C28.3321 14.0402 28.3321 14.1046 28.3321 14.171C28.409 14.1392 28.486 14.1073 28.5652 14.0745C30.9318 13.1251 33.464 13.0065 35.8517 13.9757C38.1254 14.9652 39.831 16.6807 40.823 18.9661C41.1801 19.9125 41.4345 20.8592 41.4242 21.8737C41.4233 21.9862 41.4224 22.0988 41.4215 22.2147C41.4198 22.342 41.4198 22.342 41.4181 22.4718C41.4986 22.4673 41.5792 22.4628 41.6622 22.4581C43.9436 22.3868 46.0987 23.3858 47.7657 24.9132C49.4542 26.559 50.4917 28.7629 50.5287 31.1261C50.542 33.6609 49.9605 35.7691 48.254 37.7062C48.1839 37.786 48.1138 37.8658 48.0415 37.9481C46.8929 39.1702 45.3826 40.0015 43.774 40.4345C43.6591 40.4655 43.6591 40.4655 43.5418 40.4971C43.0255 40.6257 42.6666 40.6359 42.1017 40.6359C42.1017 39.5724 42.1017 38.5089 42.1017 37.4132C42.5851 37.2843 43.0685 37.1554 43.5665 37.0226C45.1731 36.2709 46.2211 35.2509 46.8826 33.6004C47.4084 32.1097 47.3737 30.4515 46.6915 29.0148C46.4885 28.6348 46.2644 28.2864 46.0079 27.9406C45.9592 27.8717 45.9105 27.8029 45.8603 27.7319C44.9291 26.538 43.4408 25.9514 41.9898 25.7365C41.2703 25.6562 40.5483 25.6477 39.825 25.6334C39.6662 25.6297 39.5073 25.6259 39.3484 25.622C38.9641 25.6127 38.5798 25.6045 38.1954 25.5968C38.1945 25.4797 38.1936 25.3626 38.1926 25.242C38.1887 24.8012 38.1823 24.3604 38.1751 23.9195C38.1724 23.73 38.1703 23.5404 38.1689 23.3508C38.154 21.4142 37.8604 19.7613 36.4788 18.2886C35.7077 17.5996 34.8001 17.0784 33.8009 16.8078C33.7183 16.7849 33.6357 16.7619 33.5506 16.7383C31.7952 16.336 30.2765 16.9319 28.7227 17.705C28.5093 17.8105 28.2957 17.9156 28.0819 18.0205C27.9891 18.0666 27.8963 18.1126 27.8007 18.1601C27.5853 18.2571 27.3909 18.3232 27.1602 18.3703C26.7297 17.79 26.3535 17.1895 25.9945 16.5636C25.6184 15.9137 25.2229 15.317 24.7188 14.757C24.6543 14.6833 24.5897 14.6097 24.5232 14.5338C23.1708 13.0818 21.1997 12.1861 19.2238 12.0859C16.8027 12.021 14.7079 12.7641 12.9322 14.432C11.3824 15.9975 10.5918 18.0271 10.5343 20.2257C10.5689 21.4272 10.8587 22.5815 11.1414 23.7438C11.1669 23.8499 11.1924 23.9559 11.2186 24.0652C11.2419 24.1603 11.2652 24.2555 11.2893 24.3534C11.3384 24.6124 11.3495 24.8457 11.3399 25.1085C11.1895 25.1466 11.0391 25.1847 10.8886 25.2225C10.7515 25.2571 10.6145 25.2918 10.4775 25.3266C10.0747 25.4282 9.67143 25.5232 9.26512 25.6098C7.37869 26.0182 5.85409 26.6985 4.69702 28.3156C4.40308 28.7855 4.19241 29.2717 4.01572 29.796C3.98009 29.8989 3.94447 30.0017 3.90776 30.1077C3.55525 31.6086 3.79378 33.1617 4.52231 34.5019C5.38454 35.8895 6.62266 36.8729 8.22712 37.2692C9.30908 37.4827 10.408 37.448 11.5063 37.4537C11.7301 37.4555 11.9539 37.4574 12.1778 37.4594C12.7634 37.4644 13.3491 37.4683 13.9347 37.4719C14.5338 37.4758 15.1328 37.4808 15.7318 37.4857C16.9046 37.4951 18.0773 37.5033 19.2501 37.5109C19.2501 38.5744 19.2501 39.6378 19.2501 40.7335C17.9512 40.738 16.6523 40.7416 15.3534 40.7437C14.7501 40.7447 14.1468 40.7461 13.5436 40.7483C12.9604 40.7504 12.3772 40.7516 11.794 40.7521C11.5726 40.7524 11.3511 40.7531 11.1296 40.7542C7.9656 40.7687 5.33437 40.2058 2.96591 37.9687C1.15024 36.0667 0.436406 33.7685 0.453674 31.1879C0.486958 29.8357 0.795842 28.6769 1.379 27.4523C1.41979 27.3644 1.46057 27.2766 1.5026 27.186C2.53634 25.1245 4.45164 23.7028 6.55478 22.8624C6.87908 22.7724 7.1971 22.7057 7.53134 22.6671C7.50113 22.5423 7.47092 22.4174 7.43979 22.2887C6.8359 19.5391 7.46956 16.5695 8.89853 14.171C10.7676 11.3509 13.4151 9.57168 16.711 8.8976C19.9363 8.38078 23.3353 9.16954 25.8716 11.2612Z" fill="white"/>
<path d="M28.8063 23.3236C28.9002 23.3224 28.994 23.3211 29.0908 23.3199C29.1916 23.3196 29.2924 23.3194 29.3963 23.3192C29.5005 23.3185 29.6048 23.3179 29.7122 23.3172C29.9327 23.3162 30.1532 23.3158 30.3737 23.3158C30.7104 23.3154 31.047 23.3118 31.3837 23.3081C31.5981 23.3076 31.8125 23.3072 32.0269 23.307C32.1273 23.3056 32.2277 23.3042 32.3312 23.3027C32.8996 23.3063 33.2644 23.3412 33.7031 23.7426C33.8833 24.0351 33.923 24.2553 33.9242 24.5965C33.9251 24.6894 33.9259 24.7822 33.9267 24.8778C33.9266 24.979 33.9265 25.0802 33.9264 25.1844C33.9271 25.2915 33.9277 25.3985 33.9284 25.5088C33.9298 25.7413 33.9306 25.9738 33.9311 26.2063C33.9319 26.574 33.9339 26.9417 33.9363 27.3094C33.9414 28.1562 33.9447 29.0031 33.948 29.8499C33.9512 30.6879 33.9552 31.5258 33.9605 32.3637C33.9624 32.7264 33.9632 33.089 33.964 33.4517C33.9653 33.6735 33.9666 33.8954 33.968 34.1173C33.9679 34.2184 33.9678 34.3196 33.9677 34.4238C33.9685 34.5167 33.9693 34.6095 33.9701 34.7051C33.9704 34.7856 33.9707 34.8661 33.971 34.9491C33.9989 35.1937 34.0624 35.3503 34.1913 35.559C34.4633 35.7399 34.6796 35.7787 35.0025 35.7793C35.0846 35.78 35.1668 35.7806 35.2514 35.7813C35.3394 35.7812 35.4274 35.7811 35.5181 35.781C35.7055 35.783 35.8929 35.7851 36.0804 35.7871C36.375 35.7894 36.6697 35.791 36.9643 35.7915C37.2493 35.7925 37.5342 35.7958 37.8191 35.7994C37.9505 35.7986 37.9505 35.7986 38.0846 35.7979C38.6386 35.8065 38.9401 35.8831 39.3671 36.2426C39.6201 36.5761 39.6045 36.9099 39.5624 37.3168C39.3036 37.7438 38.9996 38.1347 38.6896 38.5253C38.6433 38.5841 38.5969 38.6428 38.5492 38.7034C38.143 39.2167 37.7285 39.7231 37.3141 40.2297C36.9327 40.6981 36.5638 41.1748 36.1994 41.6564C35.7093 42.3039 35.2008 42.9331 34.6818 43.5574C34.2635 44.0617 33.8627 44.576 33.4658 45.0973C33.0185 45.6807 32.5512 46.2483 32.0835 46.8153C31.9656 46.9598 31.8508 47.1067 31.7366 47.2541C31.4708 47.5875 31.3311 47.7425 30.9199 47.882C30.4632 47.8576 30.0819 47.7478 29.7468 47.4313C29.6014 47.2607 29.4664 47.0856 29.3329 46.9055C29.2828 46.8404 29.2327 46.7753 29.1811 46.7082C29.0775 46.5735 28.9744 46.4384 28.8719 46.3028C28.6487 46.0085 28.4201 45.7186 28.1916 45.4284C28.1266 45.3454 28.1266 45.3454 28.0603 45.2607C27.7147 44.8198 27.3619 44.3852 27.0075 43.9514C26.546 43.3863 26.0979 42.8134 25.6556 42.2332C25.3669 41.858 25.0672 41.4919 24.7675 41.1254C24.3032 40.5575 23.851 39.9824 23.4064 39.3989C23.0655 38.954 22.7126 38.5186 22.3598 38.0832C21.9772 37.6088 21.8471 37.3653 21.8519 36.7629C21.9109 36.3766 22.0922 36.2127 22.3749 35.9497C22.643 35.8603 22.8027 35.8394 23.0789 35.8381C23.1614 35.8375 23.2438 35.8368 23.3288 35.8361C23.4176 35.8357 23.5064 35.8353 23.5979 35.8348C23.7861 35.8326 23.9743 35.8302 24.1625 35.8278C24.4591 35.8243 24.7557 35.8215 25.0523 35.8202C25.3386 35.8187 25.6248 35.8147 25.9112 35.8104C25.9996 35.8106 26.088 35.8108 26.1791 35.811C26.5849 35.8031 26.8114 35.7881 27.1649 35.5738C27.4434 35.2666 27.4653 35.0185 27.4659 34.6199C27.4663 34.5273 27.4667 34.4348 27.4671 34.3394C27.467 34.1874 27.467 34.1874 27.4669 34.0322C27.4672 33.9254 27.4676 33.8185 27.4679 33.7083C27.4687 33.4759 27.4692 33.2435 27.4695 33.011C27.4702 32.6433 27.4718 32.2756 27.4736 31.9079C27.4787 30.8623 27.4834 29.8167 27.4849 28.7711C27.4858 28.1318 27.4887 27.4926 27.4928 26.8534C27.494 26.6096 27.4945 26.3657 27.4943 26.1219C27.4941 25.781 27.4962 25.4402 27.499 25.0994C27.498 24.9479 27.498 24.9479 27.497 24.7934C27.5025 24.3699 27.5085 24.108 27.7248 23.7372C28.0839 23.4222 28.3297 23.3279 28.8063 23.3236Z" fill="white"/>
</g>
<defs>
<clipPath id="clip0_655_10114">
<rect width="50" height="50" fill="white" transform="translate(0.5 0.5)"/>
</clipPath>
</defs>
</svg>
