<svg width="21" height="20" viewBox="0 0 21 20" fill="none" xmlns="http://www.w3.org/2000/svg">
<path d="M16.2143 0H4.78571C2.41878 0 0.5 1.91878 0.5 4.28571V15.7143C0.5 18.0812 2.41878 20 4.78571 20H16.2143C18.5812 20 20.5 18.0812 20.5 15.7143V4.28571C20.5 1.91878 18.5812 0 16.2143 0Z" fill="#503872"/>
<path d="M6.95311 8.61998C6.67696 8.61998 6.45311 8.84384 6.45311 9.11998C6.45311 9.39613 6.67696 9.61998 6.95311 9.61998V8.61998ZM9.23311 9.11998L9.58666 9.47354C9.78192 9.27828 9.78192 8.96169 9.58666 8.76643L9.23311 9.11998ZM7.86622 9.77976C7.67096 9.97503 7.67096 10.2916 7.86622 10.4869C8.06148 10.6821 8.37806 10.6821 8.57333 10.4869L7.86622 9.77976ZM8.57333 7.7531C8.37806 7.55783 8.06148 7.55783 7.86622 7.7531C7.67096 7.94836 7.67096 8.26494 7.86622 8.4602L8.57333 7.7531ZM13.7931 11.6467C14.0692 11.6467 14.2931 11.4228 14.2931 11.1467C14.2931 10.8705 14.0692 10.6467 13.7931 10.6467V11.6467ZM11.5131 11.1467L11.1596 10.7931C10.9643 10.9884 10.9643 11.3049 11.1596 11.5002L11.5131 11.1467ZM12.88 10.4869C13.0753 10.2916 13.0753 9.97503 12.88 9.77976C12.6847 9.5845 12.3681 9.5845 12.1729 9.77976L12.88 10.4869ZM12.1729 12.5135C12.3681 12.7088 12.6847 12.7088 12.88 12.5135C13.0753 12.3183 13.0753 12.0017 12.88 11.8064L12.1729 12.5135ZM6.44644 5.56665H9.99311V4.56665H6.44644V5.56665ZM10.2464 12.6733H6.44644V13.6733H10.2464V12.6733ZM5.93311 12.16V6.07998H4.93311V12.16H5.93311ZM10.5064 6.07998V7.59998H11.5064V6.07998H10.5064ZM6.44644 12.6733C6.16293 12.6733 5.93311 12.4435 5.93311 12.16H4.93311C4.93311 12.9958 5.61065 13.6733 6.44644 13.6733V12.6733ZM9.99311 5.56665C10.2766 5.56665 10.5064 5.79648 10.5064 6.07998H11.5064C11.5064 5.24419 10.8289 4.56665 9.99311 4.56665V5.56665ZM6.44644 4.56665C5.61065 4.56665 4.93311 5.24419 4.93311 6.07998H5.93311C5.93311 5.79648 6.16293 5.56665 6.44644 5.56665V4.56665ZM11.0064 7.59332H14.5531V6.59332H11.0064V7.59332ZM15.0664 8.10665V14.1867H16.0664V8.10665H15.0664ZM14.5531 14.7H11.0064V15.7H14.5531V14.7ZM10.4931 14.1867V8.10665H9.49311V14.1867H10.4931ZM11.0064 14.7C10.7229 14.7 10.4931 14.4702 10.4931 14.1867H9.49311C9.49311 15.0224 10.1706 15.7 11.0064 15.7V14.7ZM15.0664 14.1867C15.0664 14.4702 14.8366 14.7 14.5531 14.7V15.7C15.3889 15.7 16.0664 15.0224 16.0664 14.1867H15.0664ZM14.5531 7.59332C14.8366 7.59332 15.0664 7.82314 15.0664 8.10665H16.0664C16.0664 7.27086 15.3889 6.59332 14.5531 6.59332V7.59332ZM11.0064 6.59332C10.1706 6.59332 9.49311 7.27086 9.49311 8.10665H10.4931C10.4931 7.82314 10.7229 7.59332 11.0064 7.59332V6.59332ZM6.95311 9.61998H9.23311V8.61998H6.95311V9.61998ZM8.57333 10.4869L9.58666 9.47354L8.87955 8.76643L7.86622 9.77976L8.57333 10.4869ZM9.58666 8.76643L8.57333 7.7531L7.86622 8.4602L8.87955 9.47354L9.58666 8.76643ZM13.7931 10.6467H11.5131V11.6467H13.7931V10.6467ZM12.1729 9.77976L11.1596 10.7931L11.8667 11.5002L12.88 10.4869L12.1729 9.77976ZM11.1596 11.5002L12.1729 12.5135L12.88 11.8064L11.8667 10.7931L11.1596 11.5002Z" fill="white"/>
</svg>
