<svg width="29" height="30" viewBox="0 0 29 30" fill="none" xmlns="http://www.w3.org/2000/svg">
<path d="M13.056 3.04558C13.552 1.65147 15.448 1.65147 15.944 3.04558L18.4129 9.98452C18.5688 10.4228 18.9011 10.7684 19.3226 10.9306L25.9946 13.4982C27.3351 14.0141 27.3351 15.9859 25.9946 16.5018L19.3226 19.0694C18.9011 19.2316 18.5688 19.5772 18.4129 20.0155L15.944 26.9544C15.448 28.3485 13.552 28.3485 13.056 26.9544L10.5871 20.0155C10.4312 19.5772 10.0989 19.2316 9.67743 19.0694L3.00537 16.5018C1.66488 15.9859 1.66488 14.0141 3.00537 13.4982L9.67743 10.9306C10.0989 10.7684 10.4312 10.4228 10.5871 9.98452L13.056 3.04558Z" stroke="#503872" stroke-width="3" stroke-linejoin="round"/>
</svg>
