<svg width="37" height="33" viewBox="0 0 37 33" fill="none" xmlns="http://www.w3.org/2000/svg">
<path d="M2 21.6786V16.8537C2 14.5098 3.84683 12.6098 6.125 12.6098M2 21.6786C2 24.0224 3.84683 25.9225 6.125 25.9225H30.875C33.1532 25.9225 35 24.0224 35 21.6786M2 21.6786V28.1707C2 29.7333 3.23122 31 4.75 31H7.5C9.01878 31 10.25 29.7333 10.25 28.1707V25.9225M35 21.6786V16.8537C35 14.5098 33.1532 12.6098 30.875 12.6098H6.125M35 21.6786V28.1707C35 29.7333 33.7688 31 32.25 31H29.5C27.9812 31 26.75 29.7333 26.75 28.1707V25.9225M6.125 12.6098L8.33062 4.10027C8.65164 2.86175 9.74188 2 10.9878 2H26.1429C27.3266 2 28.3775 2.77927 28.7518 3.93458L31.5625 12.6098M6.8125 18.9756H11.625M25.375 18.9756H30.1875" stroke="#503872" stroke-width="3" stroke-linecap="round" stroke-linejoin="round"/>
</svg>
