<svg width="76" height="76" viewBox="0 0 76 76" fill="none" xmlns="http://www.w3.org/2000/svg">
<path d="M59.4286 0.5H16.5714C7.69542 0.5 0.5 7.69542 0.5 16.5714V59.4286C0.5 68.3046 7.69542 75.5 16.5714 75.5H59.4286C68.3046 75.5 75.5 68.3046 75.5 59.4286V16.5714C75.5 7.69542 68.3046 0.5 59.4286 0.5Z" fill="#503872"/>
<g clip-path="url(#clip0_655_10112)">
<path d="M37.8716 23.2612C38.7926 24.0529 39.7059 24.9255 40.3321 25.9757C40.3321 26.0402 40.3321 26.1046 40.3321 26.171C40.409 26.1392 40.486 26.1073 40.5652 26.0745C42.9318 25.1251 45.464 25.0065 47.8517 25.9757C50.1254 26.9652 51.831 28.6807 52.823 30.9661C53.1801 31.9125 53.4345 32.8592 53.4242 33.8737C53.4233 33.9862 53.4224 34.0988 53.4215 34.2147C53.4198 34.342 53.4198 34.342 53.4181 34.4718C53.4986 34.4673 53.5792 34.4628 53.6622 34.4581C55.9436 34.3868 58.0987 35.3858 59.7657 36.9132C61.4542 38.559 62.4917 40.7629 62.5287 43.1261C62.542 45.6609 61.9605 47.7691 60.254 49.7062C60.1839 49.786 60.1138 49.8658 60.0415 49.9481C58.8929 51.1702 57.3826 52.0015 55.774 52.4345C55.6591 52.4655 55.6591 52.4655 55.5418 52.4971C55.0255 52.6257 54.6666 52.6359 54.1017 52.6359C54.1017 51.5724 54.1017 50.5089 54.1017 49.4132C54.5851 49.2843 55.0685 49.1554 55.5665 49.0226C57.1731 48.2709 58.2211 47.2509 58.8826 45.6004C59.4084 44.1097 59.3737 42.4515 58.6915 41.0148C58.4885 40.6348 58.2644 40.2864 58.0079 39.9406C57.9592 39.8717 57.9105 39.8029 57.8603 39.7319C56.9291 38.538 55.4408 37.9514 53.9898 37.7365C53.2703 37.6562 52.5483 37.6477 51.825 37.6334C51.6662 37.6297 51.5073 37.6259 51.3484 37.622C50.9641 37.6127 50.5798 37.6045 50.1954 37.5968C50.1945 37.4797 50.1936 37.3626 50.1926 37.242C50.1887 36.8012 50.1823 36.3604 50.1751 35.9195C50.1724 35.73 50.1703 35.5404 50.1689 35.3508C50.154 33.4142 49.8604 31.7613 48.4788 30.2886C47.7077 29.5996 46.8001 29.0784 45.8009 28.8078C45.7183 28.7849 45.6357 28.7619 45.5506 28.7383C43.7952 28.336 42.2765 28.9319 40.7227 29.705C40.5093 29.8105 40.2957 29.9156 40.0819 30.0205C39.9891 30.0666 39.8963 30.1126 39.8007 30.1601C39.5853 30.2571 39.3909 30.3232 39.1602 30.3703C38.7297 29.79 38.3535 29.1895 37.9945 28.5636C37.6184 27.9137 37.2229 27.317 36.7188 26.757C36.6543 26.6833 36.5897 26.6097 36.5232 26.5338C35.1708 25.0818 33.1997 24.1861 31.2238 24.0859C28.8027 24.021 26.7079 24.7641 24.9322 26.432C23.3824 27.9975 22.5918 30.0271 22.5343 32.2257C22.5689 33.4272 22.8587 34.5815 23.1414 35.7438C23.1669 35.8499 23.1924 35.9559 23.2186 36.0652C23.2419 36.1603 23.2652 36.2555 23.2893 36.3534C23.3384 36.6124 23.3495 36.8457 23.3399 37.1085C23.1895 37.1466 23.0391 37.1847 22.8886 37.2225C22.7515 37.2571 22.6145 37.2918 22.4775 37.3266C22.0747 37.4282 21.6714 37.5232 21.2651 37.6098C19.3787 38.0182 17.8541 38.6985 16.697 40.3156C16.4031 40.7855 16.1924 41.2717 16.0157 41.796C15.9801 41.8989 15.9445 42.0017 15.9078 42.1077C15.5552 43.6086 15.7938 45.1617 16.5223 46.5019C17.3845 47.8895 18.6227 48.8729 20.2271 49.2692C21.3091 49.4827 22.408 49.448 23.5063 49.4537C23.7301 49.4555 23.9539 49.4574 24.1778 49.4594C24.7634 49.4644 25.3491 49.4683 25.9347 49.4719C26.5338 49.4758 27.1328 49.4808 27.7318 49.4857C28.9046 49.4951 30.0773 49.5033 31.2501 49.5109C31.2501 50.5744 31.2501 51.6378 31.2501 52.7335C29.9512 52.738 28.6523 52.7416 27.3534 52.7437C26.7501 52.7447 26.1468 52.7461 25.5436 52.7483C24.9604 52.7504 24.3772 52.7516 23.794 52.7521C23.5726 52.7524 23.3511 52.7531 23.1296 52.7542C19.9656 52.7687 17.3344 52.2058 14.9659 49.9687C13.1502 48.0667 12.4364 45.7685 12.4537 43.1879C12.487 41.8357 12.7958 40.6769 13.379 39.4523C13.4198 39.3644 13.4606 39.2766 13.5026 39.186C14.5363 37.1245 16.4516 35.7028 18.5548 34.8624C18.8791 34.7724 19.1971 34.7057 19.5313 34.6671C19.5011 34.5423 19.4709 34.4174 19.4398 34.2887C18.8359 31.5391 19.4696 28.5695 20.8985 26.171C22.7676 23.3509 25.4151 21.5717 28.711 20.8976C31.9363 20.3808 35.3353 21.1695 37.8716 23.2612Z" fill="white"/>
<path d="M40.8063 35.3236C40.9002 35.3224 40.994 35.3211 41.0908 35.3199C41.1916 35.3196 41.2924 35.3194 41.3963 35.3192C41.5005 35.3185 41.6048 35.3179 41.7122 35.3172C41.9327 35.3162 42.1532 35.3158 42.3737 35.3158C42.7104 35.3154 43.047 35.3118 43.3837 35.3081C43.5981 35.3076 43.8125 35.3072 44.0269 35.307C44.1273 35.3056 44.2277 35.3042 44.3312 35.3027C44.8996 35.3063 45.2644 35.3412 45.7031 35.7426C45.8833 36.0351 45.923 36.2553 45.9242 36.5965C45.9251 36.6894 45.9259 36.7822 45.9267 36.8778C45.9266 36.979 45.9265 37.0802 45.9264 37.1844C45.9271 37.2915 45.9277 37.3985 45.9284 37.5088C45.9298 37.7413 45.9306 37.9738 45.9311 38.2063C45.9319 38.574 45.9339 38.9417 45.9363 39.3094C45.9414 40.1562 45.9447 41.0031 45.948 41.8499C45.9512 42.6879 45.9552 43.5258 45.9605 44.3637C45.9624 44.7264 45.9632 45.089 45.964 45.4517C45.9653 45.6735 45.9666 45.8954 45.968 46.1173C45.9679 46.2184 45.9678 46.3196 45.9677 46.4238C45.9685 46.5167 45.9693 46.6095 45.9701 46.7051C45.9704 46.7856 45.9707 46.8661 45.971 46.9491C45.9989 47.1937 46.0624 47.3503 46.1913 47.559C46.4633 47.7399 46.6796 47.7787 47.0025 47.7793C47.0846 47.78 47.1668 47.7806 47.2514 47.7813C47.3394 47.7812 47.4274 47.7811 47.5181 47.781C47.7055 47.783 47.8929 47.7851 48.0804 47.7871C48.375 47.7894 48.6697 47.791 48.9643 47.7915C49.2493 47.7925 49.5342 47.7958 49.8191 47.7994C49.9505 47.7986 49.9505 47.7986 50.0846 47.7979C50.6386 47.8065 50.9401 47.8831 51.3671 48.2426C51.6201 48.5761 51.6045 48.9099 51.5624 49.3168C51.3036 49.7438 50.9996 50.1347 50.6896 50.5253C50.6433 50.5841 50.5969 50.6428 50.5492 50.7034C50.143 51.2167 49.7285 51.7231 49.3141 52.2297C48.9327 52.6981 48.5638 53.1748 48.1994 53.6564C47.7093 54.3039 47.2008 54.9331 46.6818 55.5574C46.2635 56.0617 45.8627 56.576 45.4658 57.0973C45.0185 57.6807 44.5512 58.2483 44.0835 58.8153C43.9656 58.9598 43.8508 59.1067 43.7366 59.2541C43.4708 59.5875 43.3311 59.7425 42.9199 59.882C42.4632 59.8576 42.0819 59.7478 41.7468 59.4313C41.6014 59.2607 41.4664 59.0856 41.3329 58.9055C41.2828 58.8404 41.2327 58.7753 41.1811 58.7082C41.0775 58.5735 40.9744 58.4384 40.8719 58.3028C40.6487 58.0085 40.4201 57.7186 40.1916 57.4284C40.1266 57.3454 40.1266 57.3454 40.0603 57.2607C39.7147 56.8198 39.3619 56.3852 39.0075 55.9514C38.546 55.3863 38.0979 54.8134 37.6556 54.2332C37.3669 53.858 37.0672 53.4919 36.7675 53.1254C36.3032 52.5575 35.851 51.9824 35.4064 51.3989C35.0655 50.954 34.7126 50.5186 34.3598 50.0832C33.9772 49.6088 33.8471 49.3653 33.8519 48.7629C33.9109 48.3766 34.0922 48.2127 34.3749 47.9497C34.643 47.8603 34.8027 47.8394 35.0789 47.8381C35.1614 47.8375 35.2438 47.8368 35.3288 47.8361C35.4176 47.8357 35.5064 47.8353 35.5979 47.8348C35.7861 47.8326 35.9743 47.8302 36.1625 47.8278C36.4591 47.8243 36.7557 47.8215 37.0523 47.8202C37.3386 47.8187 37.6248 47.8147 37.9112 47.8104C37.9996 47.8106 38.088 47.8108 38.1791 47.811C38.5849 47.8031 38.8114 47.7881 39.1649 47.5738C39.4434 47.2666 39.4653 47.0185 39.4659 46.6199C39.4663 46.5273 39.4667 46.4348 39.4671 46.3394C39.467 46.1874 39.467 46.1874 39.4669 46.0322C39.4672 45.9254 39.4676 45.8185 39.4679 45.7083C39.4687 45.4759 39.4692 45.2435 39.4695 45.011C39.4702 44.6433 39.4718 44.2756 39.4736 43.9079C39.4787 42.8623 39.4834 41.8167 39.4849 40.7711C39.4858 40.1318 39.4887 39.4926 39.4928 38.8534C39.494 38.6096 39.4945 38.3657 39.4943 38.1219C39.4941 37.781 39.4962 37.4402 39.499 37.0994C39.498 36.9479 39.498 36.9479 39.497 36.7934C39.5025 36.3699 39.5085 36.108 39.7248 35.7372C40.0839 35.4222 40.3297 35.3279 40.8063 35.3236Z" fill="white"/>
</g>
<defs>
<clipPath id="clip0_655_10112">
<rect width="50" height="50" fill="white" transform="translate(12.5 12.5)"/>
</clipPath>
</defs>
</svg>
