<svg width="76" height="76" viewBox="0 0 76 76" fill="none" xmlns="http://www.w3.org/2000/svg">
<path d="M59.4286 0.5H16.5714C7.69542 0.5 0.5 7.69542 0.5 16.5714V59.4286C0.5 68.3046 7.69542 75.5 16.5714 75.5H59.4286C68.3046 75.5 75.5 68.3046 75.5 59.4286V16.5714C75.5 7.69542 68.3046 0.5 59.4286 0.5Z" fill="#503872"/>
<path d="M29.9166 17.5132C30.068 17.5128 30.2193 17.5122 30.3707 17.5115C30.7787 17.5101 31.1867 17.51 31.5946 17.5103C31.9367 17.5104 32.2787 17.5099 32.6207 17.5093C33.4283 17.5081 34.236 17.5081 35.0436 17.5087C35.8736 17.5094 36.7036 17.5081 37.5336 17.5057C38.2491 17.5038 38.9647 17.5031 39.6803 17.5035C40.1063 17.5037 40.5324 17.5034 40.9585 17.5019C41.3595 17.5005 41.7604 17.5007 42.1615 17.5021C42.3766 17.5025 42.5917 17.5013 42.8068 17.5C44.5686 17.5103 46.2033 17.9953 47.4991 19.2081C48.7927 20.5792 49.2296 21.9398 49.2063 23.7784C49.2059 23.9204 49.2054 24.0624 49.2049 24.2087C49.2036 24.5824 49.2004 24.9561 49.1967 25.3298C49.1932 25.7127 49.1917 26.0955 49.1901 26.4784C49.1865 27.2269 49.1808 27.9753 49.1738 28.7237C49.2414 28.7557 49.309 28.7877 49.3786 28.8207C51.417 29.8598 52.7556 32.1449 53.5099 34.2043C54.3916 37.0135 54.0576 39.9792 52.7177 42.5896C51.9017 44.0192 50.7792 45.334 49.3961 46.2616C49.3227 46.2616 49.2494 46.2616 49.1738 46.2616C49.1748 46.3381 49.1757 46.4146 49.1768 46.4934C49.1857 47.2204 49.1925 47.9474 49.1968 48.6745C49.1991 49.0482 49.2022 49.4218 49.2073 49.7954C49.2131 50.2267 49.2152 50.6579 49.2172 51.0892C49.2195 51.221 49.2218 51.3527 49.2241 51.4884C49.2246 53.2054 48.6196 54.5551 47.4574 55.8184C46.9958 56.254 46.5147 56.5556 45.9495 56.8391C45.8783 56.8749 45.8072 56.9107 45.7339 56.9476C44.6702 57.4445 43.5812 57.4747 42.4214 57.4739C42.2707 57.4745 42.1201 57.4753 41.9695 57.4761C41.5633 57.478 41.1571 57.4785 40.7509 57.4787C40.4962 57.4788 40.2414 57.4793 39.9867 57.4799C39.095 57.4819 38.2034 57.4828 37.3118 57.4826C36.4853 57.4825 35.6589 57.4848 34.8324 57.4883C34.1191 57.4912 33.4058 57.4923 32.6925 57.4922C32.2682 57.4921 31.8438 57.4927 31.4195 57.4951C26.6545 57.5196 26.6545 57.5196 24.7415 55.791C23.4812 54.4626 22.9916 52.9132 23.0036 51.1187C23.0031 50.9967 23.0026 50.8748 23.0021 50.7492C23.0007 50.3443 23.0018 49.9394 23.0028 49.5346C23.0024 49.2428 23.0018 48.951 23.0011 48.6592C22.9996 47.9511 22.9999 47.2431 23.0009 46.5351C23.0016 45.9593 23.0017 45.3835 23.0014 44.8076C23.0013 44.7255 23.0013 44.6433 23.0012 44.5586C23.0011 44.3916 23.001 44.2246 23.0009 44.0576C22.9999 42.4944 23.001 40.9311 23.0028 39.3679C23.0043 38.0288 23.004 36.6897 23.0025 35.3505C23.0007 33.7926 23 32.2347 23.001 30.6768C23.0012 30.5104 23.0013 30.3441 23.0014 30.1777C23.0014 30.0959 23.0015 30.014 23.0015 29.9297C23.0018 29.3551 23.0013 28.7805 23.0005 28.2059C22.9996 27.5049 22.9999 26.8039 23.0016 26.1029C23.0025 25.7457 23.0027 25.3886 23.0017 25.0315C23.0008 24.6432 23.002 24.255 23.0036 23.8667C23.0029 23.7554 23.0022 23.6441 23.0014 23.5295C23.0153 21.8334 23.5972 20.4481 24.7784 19.2192C26.2666 17.8303 27.9278 17.5094 29.9166 17.5132ZM26.5048 21.0338C26.0008 21.5764 26.0008 21.5764 25.8255 22.2567C32.6499 22.2567 39.4742 22.2567 46.5054 22.2567C45.9821 21.2249 45.496 20.5824 44.3929 20.174C43.5508 19.9445 42.7247 19.9234 41.8559 19.9264C41.6485 19.9259 41.6485 19.9259 41.437 19.9253C41.0609 19.9245 40.6849 19.9247 40.3088 19.9254C39.9133 19.9259 39.5178 19.9254 39.1223 19.9251C38.4584 19.9247 37.7945 19.9252 37.1305 19.9262C36.3655 19.9274 35.6004 19.927 34.8353 19.9258C34.1758 19.9248 33.5162 19.9247 32.8566 19.9253C32.4639 19.9256 32.0711 19.9257 31.6784 19.9249C31.2402 19.9242 30.802 19.9252 30.3638 19.9264C30.2354 19.926 30.1071 19.9256 29.9748 19.9251C28.6556 19.9319 27.4868 20.0896 26.5048 21.0338ZM36.7214 32.4505C35.1488 34.485 34.8268 36.7288 35.0975 39.2101C35.3821 40.5223 36.1433 41.8776 37.0549 42.8637C37.1358 42.9534 37.2166 43.0431 37.2999 43.1355C38.7742 44.6852 40.7642 45.5687 42.9096 45.6406C45.0888 45.6757 47.1304 45.0048 48.7825 43.5714C50.0954 42.3092 51.0392 40.8173 51.3974 39.0272C51.4352 38.8475 51.4352 38.8475 51.4738 38.6642C51.6773 36.2971 51.1518 34.1981 49.6185 32.3409C49.5513 32.2554 49.4841 32.17 49.4148 32.0819C48.108 30.5115 46.0587 29.5568 44.0242 29.356C41.1 29.1678 38.6593 30.2924 36.7214 32.4505ZM25.8255 52.7287C26.0446 53.5927 26.6105 54.099 27.3547 54.5673C28.3079 55.0804 29.2657 55.0469 30.3259 55.0465C30.4642 55.0468 30.6024 55.0472 30.7448 55.0476C31.1222 55.0485 31.4997 55.0488 31.8771 55.0489C32.1134 55.049 32.3498 55.0492 32.5861 55.0495C33.4121 55.0505 34.2381 55.051 35.064 55.0509C35.8316 55.0508 36.5991 55.052 37.3666 55.0537C38.0276 55.0551 38.6886 55.0557 39.3496 55.0556C39.7434 55.0556 40.1373 55.0559 40.5312 55.0571C40.971 55.0584 41.4108 55.0578 41.8507 55.0572C41.9795 55.0578 42.1084 55.0584 42.2412 55.059C43.6695 55.0536 44.8351 54.8521 45.8783 53.8437C46.1381 53.5046 46.3126 53.1088 46.5054 52.7287C39.681 52.7287 32.8567 52.7287 25.8255 52.7287Z" fill="white"/>
<path d="M49.0812 33.5377C49.4313 33.6678 49.6259 33.7754 49.8589 34.0316C49.9931 34.4177 50.0522 34.7271 49.9436 35.1183C49.6724 35.5417 49.3164 35.9064 48.958 36.2774C48.8619 36.378 48.8619 36.378 48.7639 36.4806C48.4 36.8616 48.0338 37.2409 47.6663 37.6193C47.2858 38.0122 46.9145 38.4105 46.5478 38.813C46.0417 39.3672 45.5313 39.9183 45.0155 40.466C44.9474 40.539 44.8794 40.6119 44.8093 40.6871C44.7452 40.7549 44.6811 40.8226 44.6151 40.8925C44.5586 40.9526 44.502 41.0127 44.4438 41.0747C44.1237 41.3714 43.8492 41.4785 43.3908 41.5C42.9399 41.4818 42.7139 41.4269 42.3825 41.1649C42.2978 41.098 42.2131 41.0311 42.1257 40.9621C41.4868 40.4342 40.853 39.9023 40.2249 39.365C39.9783 39.1543 39.7306 38.9444 39.4829 38.7345C39.3253 38.6001 39.1678 38.4655 39.0103 38.331C38.9365 38.2686 38.8628 38.2063 38.7867 38.142C38.6842 38.0539 38.6842 38.0539 38.5797 37.9639C38.5197 37.9128 38.4598 37.8617 38.398 37.809C38.0624 37.4668 37.9922 37.2646 38.0007 36.8109C38.0816 36.3581 38.3142 36.1437 38.7322 35.8559C39.1097 35.6945 39.4241 35.7264 39.841 35.7505C40.3499 35.9676 40.7123 36.2604 41.1101 36.6046C41.1694 36.6556 41.2287 36.7067 41.2897 36.7592C41.4773 36.9208 41.664 37.0832 41.8507 37.2455C41.9785 37.3558 42.1062 37.4661 42.2341 37.5763C42.5459 37.8452 42.8569 38.1149 43.1675 38.3849C43.5191 38.0886 43.86 37.7928 44.1733 37.4666C44.2422 37.395 44.3111 37.3234 44.3821 37.2496C44.4898 37.1368 44.4898 37.1368 44.5997 37.0216C44.6752 36.943 44.7506 36.8643 44.8284 36.7833C45.3039 36.2859 45.7708 35.7834 46.2321 35.2763C47.9132 33.4303 47.9132 33.4303 49.0812 33.5377Z" fill="white"/>
</svg>
