<svg width="76" height="76" viewBox="0 0 76 76" fill="none" xmlns="http://www.w3.org/2000/svg">
<path d="M59.4286 0.5H16.5714C7.69542 0.5 0.5 7.69542 0.5 16.5714V59.4286C0.5 68.3046 7.69542 75.5 16.5714 75.5H59.4286C68.3046 75.5 75.5 68.3046 75.5 59.4286V16.5714C75.5 7.69542 68.3046 0.5 59.4286 0.5Z" fill="#503872"/>
<path d="M34.7941 17.5423C36.4637 18.881 37.3014 20.839 38.1085 22.7416C38.14 22.8156 38.1715 22.8896 38.204 22.9658C38.2471 23.0692 38.2471 23.0692 38.2911 23.1747C38.3294 23.2664 38.3294 23.2664 38.3686 23.36C38.4232 23.5203 38.4232 23.5203 38.4232 23.7539C38.4759 23.7539 38.5287 23.7539 38.583 23.7539C38.5924 23.6993 38.6018 23.6448 38.6115 23.5885C38.7125 23.1489 38.9108 22.7382 39.0875 22.323C39.1088 22.2731 39.13 22.2231 39.1519 22.1717C39.7381 20.7995 40.3604 19.4253 41.3804 18.3029C41.46 18.2139 41.46 18.2139 41.5412 18.1231C42.4675 17.1547 43.7832 16.6136 45.1303 16.5636C46.8 16.5399 48.3852 16.8049 49.6526 17.9476C49.8023 18.0894 49.9471 18.2344 50.0922 18.3808C50.1511 18.4358 50.21 18.4908 50.2708 18.5475C51.3053 19.571 51.7163 21.0314 51.7306 22.4301C51.7186 23.6995 51.3772 24.7962 50.6517 25.8564C50.7188 25.8567 50.7859 25.857 50.8551 25.8573C51.4912 25.8603 52.1272 25.8647 52.7632 25.8708C53.0901 25.8738 53.417 25.8763 53.744 25.8775C54.0601 25.8787 54.3762 25.8814 54.6923 25.8851C54.8123 25.8863 54.9322 25.8869 55.0522 25.887C56.202 25.8882 57.0493 26.1192 57.9248 26.8688C58.3022 27.2597 58.5957 27.6955 58.804 28.1926C58.8312 28.2554 58.8583 28.3183 58.8863 28.3831C58.992 28.7603 58.9898 29.1179 58.9907 29.5073C58.9912 29.5891 58.9917 29.6709 58.9923 29.7552C58.9931 29.9281 58.9935 30.1011 58.9934 30.274C58.9938 30.536 58.9967 30.7979 58.9997 31.0598C59.0073 32.4293 58.8628 33.3717 57.867 34.4101C57.6118 34.6406 57.3396 34.7925 57.0275 34.9413C56.956 34.9755 56.8844 35.0098 56.8107 35.0452C56.7563 35.0709 56.702 35.0966 56.646 35.1232C56.6458 35.2659 56.6458 35.2659 56.6457 35.4114C56.6428 37.6717 56.6383 39.932 56.6318 42.1923C56.631 42.4708 56.6302 42.7493 56.6294 43.0277C56.6292 43.1109 56.6292 43.1109 56.629 43.1957C56.6265 44.0922 56.6251 44.9887 56.6242 45.8852C56.6232 46.8058 56.621 47.7263 56.6177 48.6468C56.6158 49.1636 56.6146 49.6804 56.6147 50.1972C56.6147 50.6839 56.6133 51.1706 56.6108 51.6573C56.6101 51.8356 56.6099 52.014 56.6104 52.1923C56.6132 53.4893 56.5202 54.4351 55.607 55.4476C54.9505 56.0493 54.1495 56.4789 53.2354 56.48C53.1835 56.4803 53.1317 56.4805 53.0783 56.4808C52.9048 56.4816 52.7314 56.4812 52.5579 56.4808C52.4322 56.4811 52.3064 56.4814 52.1807 56.4819C51.8354 56.4828 51.4901 56.4828 51.1447 56.4826C50.7722 56.4826 50.3997 56.4834 50.0272 56.4842C49.2974 56.4855 48.5677 56.4859 47.8379 56.486C47.2446 56.4861 46.6513 56.4864 46.058 56.4869C44.3758 56.4883 42.6936 56.489 41.0113 56.4888C40.8753 56.4888 40.8753 56.4888 40.7365 56.4888C40.6457 56.4888 40.5549 56.4888 40.4613 56.4888C38.99 56.4888 37.5187 56.4902 36.0473 56.4924C34.5364 56.4947 33.0255 56.4957 31.5146 56.4956C30.6664 56.4956 29.8182 56.496 28.97 56.4977C28.2478 56.4991 27.5255 56.4994 26.8033 56.4984C26.4349 56.4979 26.0666 56.4978 25.6982 56.4992C25.3606 56.5004 25.0231 56.5002 24.6855 56.4988C24.5637 56.4986 24.4419 56.4989 24.3202 56.4998C23.1825 56.5073 22.3445 56.2664 21.4791 55.5255C21.1017 55.1346 20.8082 54.6988 20.6 54.2017C20.5727 54.1371 20.5454 54.0725 20.5173 54.0059C20.4177 53.6555 20.4171 53.3336 20.4179 52.9717C20.4174 52.8953 20.4169 52.8189 20.4165 52.7402C20.4151 52.4845 20.4149 52.2287 20.4146 51.973C20.4139 51.7895 20.4131 51.6061 20.4122 51.4227C20.41 50.9248 20.4088 50.4268 20.4078 49.9289C20.4066 49.4613 20.4048 48.9936 20.4029 48.526C20.3993 47.5999 20.3964 46.6737 20.3939 45.7476C20.3915 44.8481 20.3887 43.9486 20.3856 43.0491C20.3854 42.9936 20.3852 42.9382 20.385 42.881C20.384 42.6027 20.383 42.3245 20.382 42.0462C20.3737 39.7385 20.3666 37.4308 20.3602 35.1232C20.305 35.0967 20.2498 35.0703 20.1929 35.0431C20.1207 35.0082 20.0485 34.9734 19.974 34.9375C19.9024 34.903 19.8307 34.8686 19.7568 34.8331C18.9795 34.4392 18.4248 33.7072 18.1569 32.9048C18.0246 32.4646 18.0063 32.0513 18.0077 31.5949C18.0073 31.5133 18.0069 31.4318 18.0064 31.3478C18.0059 31.1764 18.006 31.005 18.0067 30.8336C18.0074 30.5735 18.0051 30.3135 18.0026 30.0534C18.0024 29.8859 18.0025 29.7183 18.0027 29.5508C18.0018 29.4742 18.0009 29.3976 18 29.3187C18.0095 28.3846 18.3738 27.6426 19.0015 26.9466C19.6709 26.3331 20.4714 25.9194 21.4004 25.9095C21.4543 25.9087 21.5081 25.9079 21.5636 25.9071C21.7401 25.9047 21.9165 25.9034 22.0929 25.9021C22.2159 25.9006 22.3388 25.8991 22.4618 25.8975C22.7842 25.8935 23.1067 25.8904 23.4291 25.8875C23.7586 25.8844 24.0881 25.8804 24.4176 25.8765C25.0633 25.869 25.7089 25.8624 26.3545 25.8564C26.3214 25.8034 26.2883 25.7503 26.2542 25.6957C26.2108 25.6259 26.1675 25.5561 26.1228 25.4841C26.0798 25.415 26.0368 25.3459 25.9925 25.2747C25.8557 25.0454 25.7503 24.8151 25.6552 24.5667C25.6243 24.4879 25.5934 24.4091 25.5615 24.3279C25.0338 22.7202 25.2273 21.0264 26.0018 19.5321C26.3034 18.991 26.7018 18.5723 27.1538 18.1472C27.2102 18.0897 27.2667 18.0323 27.3249 17.9732C29.18 16.1933 32.7435 15.9977 34.7941 17.5423ZM28.8322 19.9382C28.7813 19.9846 28.7304 20.031 28.678 20.0787C27.9996 20.7623 27.7663 21.6469 27.7624 22.5714C27.7793 23.4679 28.1261 24.1932 28.7523 24.8441C28.8237 24.9185 28.8237 24.9185 28.8965 24.9944C29.8916 25.9317 31.2712 25.9591 32.5749 25.9495C32.6936 25.9492 32.8123 25.949 32.931 25.9489C33.24 25.9483 33.5491 25.9467 33.8581 25.945C34.1748 25.9434 34.4915 25.9427 34.8081 25.9419C35.427 25.9403 36.0459 25.9376 36.6648 25.9343C36.3654 25.0862 36.0482 24.2495 35.6907 23.423C35.6685 23.3715 35.6464 23.32 35.6235 23.267C34.6638 20.84 34.6638 20.84 32.7528 19.1721C32.3022 19.0102 31.888 18.9612 31.4098 18.9648C31.3401 18.9652 31.2704 18.9657 31.1986 18.9662C30.2618 18.9912 29.5143 19.3153 28.8322 19.9382ZM44.0179 19.3152C43.9629 19.3473 43.9079 19.3795 43.8512 19.4126C43.1498 19.8734 42.68 20.5943 42.2995 21.3156C42.2605 21.3887 42.2216 21.4619 42.1814 21.5373C41.7755 22.3231 41.4326 23.1349 41.0907 23.9486C41.0624 24.0158 41.0341 24.083 41.005 24.1522C40.9238 24.3462 40.8432 24.5403 40.7628 24.7346C40.7387 24.7925 40.7146 24.8505 40.6898 24.9102C40.5517 25.2476 40.4377 25.5833 40.3414 25.9343C41.023 25.9379 41.7046 25.9407 42.3863 25.9424C42.7029 25.9432 43.0195 25.9443 43.3361 25.9461C43.6424 25.9478 43.9486 25.9487 44.2549 25.9491C44.371 25.9494 44.4871 25.9499 44.6032 25.9508C46.0216 25.9607 47.2446 25.8185 48.3007 24.8192C48.5832 24.5136 48.7915 24.2021 48.9732 23.8318C49.0137 23.7548 49.0137 23.7548 49.055 23.6763C49.3802 22.9309 49.3214 21.927 49.0482 21.1793C48.845 20.7371 48.5935 20.3691 48.2539 20.0161C48.1825 19.9417 48.1825 19.9417 48.1097 19.8658C47.2954 19.0988 46.2928 18.9668 45.2152 18.9821C44.7629 18.9986 44.4051 19.0822 44.0179 19.3152ZM20.8547 28.616C20.3617 29.1787 20.4252 29.7243 20.4253 30.4361C20.4251 30.5958 20.4237 30.7556 20.4222 30.9154C20.422 31.0172 20.4219 31.1191 20.4217 31.2241C20.4214 31.3166 20.421 31.4092 20.4207 31.5045C20.4503 31.9161 20.5149 32.2242 20.7948 32.5388C21.2402 32.9093 21.5725 32.9526 22.1452 32.9521C22.2473 32.9522 22.3494 32.9523 22.4546 32.9524C22.5671 32.9522 22.6797 32.9519 22.7922 32.9516C22.9112 32.9516 23.0301 32.9516 23.1491 32.9516C23.4716 32.9517 23.794 32.9512 24.1165 32.9506C24.4537 32.9502 24.7909 32.9501 25.1281 32.95C25.7663 32.9498 26.4046 32.9491 27.0429 32.9484C27.7697 32.9475 28.4964 32.9471 29.2232 32.9467C30.718 32.9459 32.2128 32.9444 33.7076 32.9428C33.7076 31.4009 33.7076 29.859 33.7076 28.2705C32.1437 28.2669 30.5798 28.2641 29.0159 28.2624C28.2898 28.2616 27.5636 28.2605 26.8375 28.2587C26.2045 28.2572 25.5715 28.2562 24.9385 28.2558C24.6034 28.2556 24.2683 28.2551 23.9332 28.254C23.6176 28.2529 23.302 28.2526 22.9864 28.2528C22.8708 28.2528 22.7551 28.2525 22.6395 28.2519C22.4811 28.2511 22.3228 28.2514 22.1644 28.2517C22.0317 28.2515 22.0317 28.2515 21.8963 28.2513C21.4825 28.2821 21.1708 28.3491 20.8547 28.616ZM36.1054 28.2705C36.1054 36.8021 36.1054 45.3337 36.1054 54.1238C37.6879 54.1238 39.2704 54.1238 40.9008 54.1238C40.9008 45.5922 40.9008 37.0606 40.9008 28.2705C39.3183 28.2705 37.7358 28.2705 36.1054 28.2705ZM43.2986 28.2705C43.2986 29.8123 43.2986 31.3542 43.2986 32.9428C44.8625 32.9463 46.4264 32.9491 47.9903 32.9508C48.7164 32.9516 49.4426 32.9527 50.1687 32.9545C50.8017 32.9561 51.4347 32.9571 52.0677 32.9574C52.4028 32.9576 52.7379 32.9581 53.073 32.9592C53.3886 32.9603 53.7042 32.9606 54.0198 32.9604C54.1354 32.9604 54.2511 32.9607 54.3667 32.9613C54.5251 32.9621 54.6834 32.9618 54.8418 32.9615C54.9745 32.9617 54.9745 32.9617 55.1099 32.9619C55.5237 32.9311 55.8354 32.8641 56.1515 32.5972C56.6445 32.0345 56.581 31.4889 56.5809 30.7771C56.5811 30.6174 56.5825 30.4576 56.584 30.2979C56.5842 30.196 56.5843 30.0941 56.5845 29.9891C56.5848 29.8966 56.5852 29.804 56.5855 29.7087C56.5559 29.2971 56.4913 28.989 56.2114 28.6744C55.766 28.3039 55.4337 28.2606 54.861 28.2611C54.7589 28.261 54.6568 28.2609 54.5516 28.2608C54.4391 28.261 54.3265 28.2613 54.214 28.2616C54.095 28.2616 53.9761 28.2616 53.8571 28.2616C53.5346 28.2616 53.2122 28.262 52.8897 28.2626C52.5525 28.263 52.2153 28.2631 51.8781 28.2632C51.2399 28.2634 50.6016 28.2641 49.9633 28.2648C49.2365 28.2657 48.5098 28.2661 47.783 28.2665C46.2882 28.2674 44.7934 28.2688 43.2986 28.2705ZM22.8379 35.2789C22.8332 38.4074 22.8332 38.4074 22.83 41.5359C22.8297 41.9577 22.8294 42.3795 22.8291 42.8013C22.829 42.8542 22.829 42.9071 22.8289 42.9615C22.8282 43.8148 22.827 44.6681 22.8255 45.5213C22.824 46.3972 22.8232 47.273 22.8228 48.1488C22.8226 48.6407 22.8221 49.1326 22.821 49.6244C22.8199 50.0874 22.8195 50.5503 22.8198 51.0133C22.8197 51.1832 22.8194 51.3531 22.8188 51.523C22.818 51.7551 22.8182 51.9871 22.8186 52.2191C22.8182 52.2863 22.8177 52.3535 22.8172 52.4227C22.8197 52.9172 22.8476 53.3321 23.1925 53.7199C25.8604 55.9388 30.1999 54.1238 33.7076 54.1238C33.7076 47.905 33.7076 41.6862 33.7076 35.2789C30.1206 35.2789 26.5336 35.2789 22.8379 35.2789ZM43.2986 35.2789C43.2986 41.4977 43.2986 47.7166 43.2986 54.1238C48.9521 55.0636 48.9521 55.0636 53.7537 53.7783C54.1885 53.2821 54.1801 52.8608 54.178 52.2378C54.178 52.1653 54.1781 52.0928 54.1782 52.0181C54.1783 51.775 54.1779 51.5319 54.1774 51.2889C54.1774 51.1147 54.1774 50.9404 54.1775 50.7662C54.1775 50.2931 54.177 49.8199 54.1764 49.3468C54.1759 48.8524 54.1759 48.358 54.1758 47.8636C54.1756 47.0338 54.1751 46.2039 54.1744 45.374C54.1736 44.5193 54.1731 43.6646 54.1727 42.8099C54.1727 42.7566 54.1727 42.7034 54.1727 42.6486C54.1725 42.1855 54.1723 41.7224 54.1721 41.2593C54.1714 39.2658 54.1698 37.2724 54.1683 35.2789C50.5813 35.2789 46.9943 35.2789 43.2986 35.2789Z" fill="white"/>
</svg>
