<svg width="60" height="60" viewBox="0 0 60 60" fill="none" xmlns="http://www.w3.org/2000/svg" xmlns:xlink="http://www.w3.org/1999/xlink">
<path d="M46.8571 0.5H13.1429C6.1604 0.5 0.5 6.1604 0.5 13.1429V46.8571C0.5 53.8396 6.1604 59.5 13.1429 59.5H46.8571C53.8396 59.5 59.5 53.8396 59.5 46.8571V13.1429C59.5 6.1604 53.8396 0.5 46.8571 0.5Z" fill="#503872"/>
<path d="M35.0902 13.0867L38.3898 22.0036L47.3067 25.3031L38.3898 28.6027L35.0902 37.5196L31.7907 28.6027L22.8738 25.3031L31.7907 22.0036L35.0902 13.0867Z" stroke="white" stroke-width="3" stroke-linejoin="round"/>
<path d="M19.8196 33.4475L22.702 37.6914L26.9459 40.5737L22.702 43.4561L19.8196 47.7L16.9373 43.4561L12.6934 40.5737L16.9373 37.6914L19.8196 33.4475Z" stroke="white" stroke-width="3" stroke-linejoin="round"/>
</svg>
