<svg width="20" height="20" viewBox="0 0 20 20" fill="none" xmlns="http://www.w3.org/2000/svg">
<path d="M9.68767 4.07901L5.31606 6.47739C4.89639 6.70757 4.89639 7.29649 5.31606 7.52668C5.86251 7.82647 9.14122 9.62525 9.68767 9.92505C9.8794 10.0304 10.1198 10.0304 10.3122 9.92505L14.6838 7.52668C15.1035 7.29649 15.1035 6.70757 14.6838 6.47739L10.3122 4.07901C10.1205 3.97366 9.88003 3.97366 9.68767 4.07901ZM5.47219 9.41911C5.31794 9.45953 5.16743 9.55642 5.08187 9.7002C4.91075 9.98771 5.01692 10.3604 5.31606 10.5246L9.68767 12.923C9.8794 13.0284 10.1198 13.0284 10.3122 12.923L14.6838 10.5246C14.9836 10.3604 15.0891 9.98771 14.918 9.7002C14.7469 9.4127 14.3591 9.31107 14.0593 9.47536L9.99993 11.7051L5.94058 9.47536C5.79069 9.39321 5.62645 9.37876 5.47219 9.41911ZM5.47219 12.4171C5.31794 12.4575 5.16743 12.5544 5.08187 12.6982C4.91075 12.9857 5.01692 13.3583 5.31606 13.5226L9.68767 15.921C9.8794 16.0263 10.1198 16.0263 10.3122 15.921L14.6838 13.5226C14.9836 13.3583 15.0891 12.9857 14.918 12.6982C14.7469 12.4107 14.3591 12.309 14.0593 12.4733L9.99993 14.7031L5.94058 12.4733C5.79069 12.3912 5.62645 12.3767 5.47219 12.4171Z" fill="#808080"/>
</svg>
