<svg width="20" height="20" viewBox="0 0 20 20" fill="none" xmlns="http://www.w3.org/2000/svg">
<path d="M15.7143 0H4.28571C1.91878 0 0 1.91878 0 4.28571V15.7143C0 18.0812 1.91878 20 4.28571 20H15.7143C18.0812 20 20 18.0812 20 15.7143V4.28571C20 1.91878 18.0812 0 15.7143 0Z" fill="#503872"/>
<path fill-rule="evenodd" clip-rule="evenodd" d="M5.4216 4.60002C5.42012 4.43973 5.34447 4.28651 5.21126 4.174C5.07806 4.0615 4.8982 3.99892 4.7112 4.00002C4.61854 3.99939 4.52664 4.0144 4.44075 4.04421C4.35486 4.07403 4.27666 4.11805 4.21062 4.17376C4.14458 4.22948 4.09199 4.2958 4.05585 4.36893C4.01971 4.44207 4.00073 4.52059 4 4.60002V8.05533C4 9.19087 5.0104 10.0645 6.2736 10.3127V15.4C6.2736 15.7312 6.592 16 6.984 16C7.376 16 7.6952 15.7312 7.6952 15.4V10.3223C8.9808 10.0871 10.0176 9.20527 10.0176 8.05533V7.33533C10.0177 7.28276 10.0096 7.23041 9.9936 7.17967V4.60002C9.99287 4.52059 9.97389 4.44207 9.93775 4.36893C9.90161 4.2958 9.84902 4.22948 9.78298 4.17376C9.71694 4.11805 9.63874 4.07403 9.55285 4.04421C9.46696 4.0144 9.37506 3.99939 9.2824 4.00002C9.0954 3.99892 8.91554 4.0615 8.78234 4.174C8.64913 4.28651 8.57348 4.43973 8.572 4.60002V7.4471C8.55439 7.45381 8.53526 7.45709 8.516 7.4567H7.86C7.81363 7.44223 7.76564 7.43189 7.7168 7.42584C7.71326 7.39062 7.70603 7.35573 7.6952 7.32161V4.60002C7.69447 4.52059 7.67549 4.44207 7.63935 4.36893C7.60321 4.2958 7.55062 4.22948 7.48458 4.17376C7.41854 4.11805 7.34034 4.07403 7.25445 4.04421C7.16856 4.0144 7.07666 3.99939 6.984 4.00002C6.797 3.99892 6.61714 4.0615 6.48394 4.174C6.35073 4.28651 6.27508 4.43973 6.2736 4.60002V7.41899H6.0752C5.99059 7.41894 5.90663 7.43171 5.8272 7.4567H5.4768C5.4578 7.45701 5.43896 7.45373 5.4216 7.4471V4.60002ZM7.3864 8.61898H6.6072C6.48803 8.64383 6.36584 8.65649 6.2432 8.6567H5.6696C5.9384 8.96115 6.4096 9.18401 7.0088 9.18401C7.6072 9.18401 8.0784 8.96115 8.3472 8.65601H7.7504C7.628 8.65601 7.5056 8.64367 7.3864 8.61898ZM12.3192 4.0679C12.2107 4.02027 12.0898 3.99704 11.9679 4.0004C11.846 4.00375 11.7271 4.03359 11.6224 4.0871C11.5185 4.13994 11.4324 4.21498 11.3726 4.30489C11.3127 4.3948 11.2811 4.49649 11.2808 4.60002L11.2752 15.2581C11.2752 15.5893 11.5936 15.8581 11.9856 15.8581C12.3776 15.8581 12.6968 15.5893 12.6968 15.2581L12.6984 11.5909L13.8568 11.0834C14.5352 10.7852 15 10.214 15 9.55567V9.3527C15 7.37098 14.3896 6.06402 13.7296 5.23705C13.4716 4.90829 13.1614 4.61196 12.808 4.35659C12.6717 4.25978 12.527 4.17199 12.3752 4.09396C12.3636 4.08834 12.3518 4.08286 12.34 4.0775L12.328 4.07202L12.3232 4.06928L12.3208 4.06859L12.3192 4.0679ZM13.2016 10.0185L12.6992 10.238L12.7008 6.10859C13.144 6.74561 13.5784 7.76938 13.5784 9.3527V9.55567C13.5784 9.71681 13.464 9.90264 13.2016 10.0185Z" fill="white"/>
</svg>
