<svg width="37" height="31" viewBox="0 0 37 31" fill="none" xmlns="http://www.w3.org/2000/svg">
<path d="M36.4158 6.80358C36.3158 6.10358 35.8158 5.80358 35.6158 5.60358C30.6158 1.90358 24.4158 -0.0964232 18.1158 0.00357685C11.9158 0.103577 5.71579 2.20358 0.815785 6.00358C0.615785 6.10358 0.115786 6.50358 0.0157858 7.10358C-0.0842142 7.80358 0.315786 8.30358 0.515786 8.50358L3.31579 12.1036C3.41579 12.2036 3.51579 12.3036 3.51579 12.4036L16.9158 29.6036C17.1158 29.8036 17.5158 30.4036 18.3158 30.4036C19.1158 30.4036 19.6158 29.8036 19.8158 29.6036L36.0158 8.20358C36.1158 8.00358 36.5158 7.50358 36.4158 6.80358ZM27.0158 15.0036C26.5158 13.9036 25.5158 13.1036 24.2158 13.1036C22.5158 13.1036 21.2158 14.5036 21.2158 16.1036C21.2158 17.7036 22.4158 18.9036 23.9158 19.1036L18.3158 26.5036L14.8158 22.0036C15.8158 21.5036 16.6158 20.5036 16.6158 19.2036C16.6158 17.5036 15.2158 16.2036 13.6158 16.2036C12.6158 16.2036 11.8158 16.7036 11.2158 17.4036L6.71579 11.6036C10.1158 9.30358 14.1158 8.10358 18.2158 8.00358C22.3158 8.00358 26.3158 9.10358 29.8158 11.4036L27.0158 15.0036ZM31.6158 9.00358C27.6158 6.40358 22.9158 5.00358 18.2158 5.00358C13.5158 5.00358 8.81579 6.50358 4.91579 9.20358L3.71579 7.60358C8.01579 4.70358 13.1158 3.00358 18.3158 3.00358C23.4158 3.00358 28.6158 4.50358 32.9158 7.40358L31.6158 9.00358Z" fill="#503872"/>
<path d="M16.6162 10.1035C15.8162 10.1035 15.1162 10.8035 15.1162 11.6035C15.1162 12.4035 15.8162 13.1035 16.6162 13.1035C17.4162 13.1035 18.1162 12.4035 18.1162 11.6035C18.1162 10.8035 17.4162 10.1035 16.6162 10.1035Z" fill="#503872"/>
</svg>
