<svg width="51" height="51" viewBox="0 0 51 51" fill="none" xmlns="http://www.w3.org/2000/svg">
<path d="M22.7941 4.54228C24.4637 5.88103 25.3014 7.83901 26.1085 9.74158C26.14 9.81557 26.1715 9.88956 26.204 9.9658C26.2471 10.0692 26.2471 10.0692 26.2911 10.1747C26.3294 10.2664 26.3294 10.2664 26.3686 10.36C26.4232 10.5203 26.4232 10.5203 26.4232 10.7539C26.4759 10.7539 26.5287 10.7539 26.583 10.7539C26.5924 10.6993 26.6018 10.6448 26.6115 10.5885C26.7125 10.1489 26.9108 9.73817 27.0875 9.32302C27.1088 9.27307 27.13 9.22312 27.1519 9.17166C27.7381 7.79947 28.3604 6.42533 29.3804 5.3029C29.46 5.21391 29.46 5.21391 29.5412 5.12312C30.4675 4.15469 31.7832 3.61364 33.1303 3.56356C34.8 3.5399 36.3852 3.80494 37.6526 4.94761C37.8023 5.08937 37.9471 5.23436 38.0922 5.38077C38.1511 5.43578 38.21 5.49078 38.2708 5.54746C39.3053 6.57102 39.7163 8.03136 39.7306 9.43009C39.7186 10.6995 39.3772 11.7962 38.6517 12.8564C38.7188 12.8567 38.7859 12.857 38.8551 12.8573C39.4912 12.8603 40.1272 12.8647 40.7632 12.8708C41.0901 12.8738 41.417 12.8763 41.744 12.8775C42.0601 12.8787 42.3762 12.8814 42.6923 12.8851C42.8123 12.8863 42.9322 12.8869 43.0522 12.887C44.202 12.8882 45.0493 13.1192 45.9248 13.8688C46.3022 14.2597 46.5957 14.6955 46.804 15.1926C46.8312 15.2554 46.8583 15.3183 46.8863 15.3831C46.992 15.7603 46.9898 16.1179 46.9907 16.5073C46.9912 16.5891 46.9917 16.6709 46.9923 16.7552C46.9931 16.9281 46.9935 17.1011 46.9934 17.274C46.9938 17.536 46.9967 17.7979 46.9997 18.0598C47.0073 19.4293 46.8628 20.3717 45.867 21.4101C45.6118 21.6406 45.3396 21.7925 45.0275 21.9413C44.956 21.9755 44.8844 22.0098 44.8107 22.0452C44.7563 22.0709 44.702 22.0966 44.646 22.1232C44.6458 22.2659 44.6458 22.2659 44.6457 22.4114C44.6428 24.6717 44.6383 26.932 44.6318 29.1923C44.631 29.4708 44.6302 29.7493 44.6294 30.0277C44.6292 30.1109 44.6292 30.1109 44.629 30.1957C44.6265 31.0922 44.6251 31.9887 44.6242 32.8852C44.6232 33.8058 44.621 34.7263 44.6177 35.6468C44.6158 36.1636 44.6146 36.6804 44.6147 37.1972C44.6147 37.6839 44.6133 38.1706 44.6108 38.6573C44.6101 38.8356 44.6099 39.014 44.6104 39.1923C44.6132 40.4893 44.5202 41.4351 43.607 42.4476C42.9505 43.0493 42.1495 43.4789 41.2354 43.48C41.1835 43.4803 41.1317 43.4805 41.0783 43.4808C40.9048 43.4816 40.7314 43.4812 40.5579 43.4808C40.4322 43.4811 40.3064 43.4814 40.1807 43.4819C39.8354 43.4828 39.4901 43.4828 39.1447 43.4826C38.7722 43.4826 38.3997 43.4834 38.0272 43.4842C37.2974 43.4855 36.5677 43.4859 35.8379 43.486C35.2446 43.4861 34.6513 43.4864 34.058 43.4869C32.3758 43.4883 30.6936 43.489 29.0113 43.4888C28.8753 43.4888 28.8753 43.4888 28.7365 43.4888C28.6457 43.4888 28.5549 43.4888 28.4613 43.4888C26.99 43.4888 25.5187 43.4902 24.0473 43.4924C22.5364 43.4947 21.0255 43.4957 19.5146 43.4956C18.6664 43.4956 17.8182 43.496 16.97 43.4977C16.2478 43.4991 15.5255 43.4994 14.8033 43.4984C14.4349 43.4979 14.0666 43.4978 13.6982 43.4992C13.3606 43.5004 13.0231 43.5002 12.6855 43.4988C12.5637 43.4986 12.4419 43.4989 12.3202 43.4998C11.1825 43.5073 10.3445 43.2664 9.47913 42.5255C9.10171 42.1346 8.8082 41.6988 8.59996 41.2017C8.57269 41.1371 8.54541 41.0725 8.51731 41.0059C8.41767 40.6555 8.41707 40.3336 8.41786 39.9717C8.41739 39.8953 8.41693 39.8189 8.41645 39.7402C8.4151 39.4845 8.41486 39.2287 8.41463 38.973C8.41389 38.7895 8.41307 38.6061 8.4122 38.4227C8.41001 37.9248 8.4088 37.4268 8.40777 36.9289C8.40664 36.4613 8.40479 35.9936 8.40295 35.526C8.39932 34.5999 8.39639 33.6737 8.39391 32.7476C8.39149 31.8481 8.38875 30.9486 8.38555 30.0491C8.38536 29.9936 8.38516 29.9382 8.38496 29.881C8.38397 29.6027 8.38297 29.3245 8.38198 29.0462C8.3737 26.7385 8.36658 24.4308 8.36019 22.1232C8.305 22.0967 8.2498 22.0703 8.19294 22.0431C8.1207 22.0082 8.04847 21.9734 7.97405 21.9375C7.90237 21.903 7.83069 21.8686 7.75684 21.8331C6.97945 21.4392 6.42479 20.7072 6.15689 19.9048C6.02463 19.4646 6.00632 19.0513 6.00772 18.5949C6.0073 18.5133 6.00688 18.4318 6.00645 18.3478C6.00594 18.1764 6.00604 18.005 6.00672 17.8336C6.0074 17.5735 6.0051 17.3135 6.00256 17.0534C6.00244 16.8859 6.00248 16.7183 6.00272 16.5508C6.00182 16.4742 6.00093 16.3976 6 16.3187C6.00949 15.3846 6.37381 14.6426 7.00147 13.9466C7.6709 13.3331 8.47141 12.9194 9.40042 12.9095C9.45428 12.9087 9.50814 12.9079 9.56363 12.9071C9.74006 12.9047 9.91649 12.9034 10.0929 12.9021C10.2159 12.9006 10.3388 12.8991 10.4618 12.8975C10.7842 12.8935 11.1067 12.8904 11.4291 12.8875C11.7586 12.8844 12.0881 12.8804 12.4176 12.8765C13.0633 12.869 13.7089 12.8624 14.3545 12.8564C14.3214 12.8034 14.2883 12.7503 14.2542 12.6957C14.2108 12.6259 14.1675 12.5561 14.1228 12.4841C14.0798 12.415 14.0368 12.3459 13.9925 12.2747C13.8557 12.0454 13.7503 11.8151 13.6552 11.5667C13.6243 11.4879 13.5934 11.4091 13.5615 11.3279C13.0338 9.7202 13.2273 8.02643 14.0018 6.53211C14.3034 5.991 14.7018 5.57227 15.1538 5.14715C15.2102 5.08973 15.2667 5.03232 15.3249 4.97316C17.18 3.19326 20.7435 2.99773 22.7941 4.54228ZM16.8322 6.9382C16.7813 6.98457 16.7304 7.03095 16.678 7.07873C15.9996 7.76235 15.7663 8.64687 15.7624 9.57136C15.7793 10.4679 16.1261 11.1932 16.7523 11.8441C16.8237 11.9185 16.8237 11.9185 16.8965 11.9944C17.8916 12.9317 19.2712 12.9591 20.5749 12.9495C20.6936 12.9492 20.8123 12.949 20.931 12.9489C21.24 12.9483 21.5491 12.9467 21.8581 12.945C22.1748 12.9434 22.4915 12.9427 22.8081 12.9419C23.427 12.9403 24.0459 12.9376 24.6648 12.9343C24.3654 12.0862 24.0482 11.2495 23.6907 10.423C23.6685 10.3715 23.6464 10.32 23.6235 10.267C22.6638 7.83999 22.6638 7.83999 20.7528 6.17207C20.3022 6.01023 19.888 5.96122 19.4098 5.9648C19.3401 5.96525 19.2704 5.96569 19.1986 5.96615C18.2618 5.99119 17.5143 6.31529 16.8322 6.9382ZM32.0179 6.31523C31.9629 6.34735 31.9079 6.37947 31.8512 6.41257C31.1498 6.87341 30.68 7.5943 30.2995 8.31555C30.2605 8.38873 30.2216 8.46191 30.1814 8.5373C29.7755 9.32311 29.4326 10.1349 29.0907 10.9486C29.0624 11.0158 29.0341 11.083 29.005 11.1522C28.9238 11.3462 28.8432 11.5403 28.7628 11.7346C28.7387 11.7925 28.7146 11.8505 28.6898 11.9102C28.5517 12.2476 28.4377 12.5833 28.3414 12.9343C29.023 12.9379 29.7046 12.9407 30.3863 12.9424C30.7029 12.9432 31.0195 12.9443 31.3361 12.9461C31.6424 12.9478 31.9486 12.9487 32.2549 12.9491C32.371 12.9494 32.4871 12.9499 32.6032 12.9508C34.0216 12.9607 35.2446 12.8185 36.3007 11.8192C36.5832 11.5136 36.7915 11.2021 36.9732 10.8318C37.0137 10.7548 37.0137 10.7548 37.055 10.6763C37.3802 9.93086 37.3214 8.92698 37.0482 8.17928C36.845 7.73714 36.5935 7.36906 36.2539 7.01607C36.1825 6.94169 36.1825 6.94169 36.1097 6.8658C35.2954 6.09882 34.2928 5.96683 33.2152 5.98214C32.7629 5.99861 32.4051 6.08217 32.0179 6.31523ZM8.85472 15.616C8.36168 16.1787 8.42522 16.7243 8.4253 17.4361C8.42513 17.5958 8.42368 17.7556 8.42216 17.9154C8.42201 18.0172 8.42185 18.1191 8.42169 18.2241C8.42136 18.3166 8.42104 18.4092 8.4207 18.5045C8.45028 18.9161 8.51494 19.2242 8.79478 19.5388C9.24024 19.9093 9.57248 19.9526 10.1452 19.9521C10.2473 19.9522 10.3494 19.9523 10.4546 19.9524C10.5671 19.9522 10.6797 19.9519 10.7922 19.9516C10.9112 19.9516 11.0301 19.9516 11.1491 19.9516C11.4716 19.9517 11.794 19.9512 12.1165 19.9506C12.4537 19.9502 12.7909 19.9501 13.1281 19.95C13.7663 19.9498 14.4046 19.9491 15.0429 19.9484C15.7697 19.9475 16.4964 19.9471 17.2232 19.9467C18.718 19.9459 20.2128 19.9444 21.7076 19.9428C21.7076 18.4009 21.7076 16.859 21.7076 15.2705C20.1437 15.2669 18.5798 15.2641 17.0159 15.2624C16.2898 15.2616 15.5636 15.2605 14.8375 15.2587C14.2045 15.2572 13.5715 15.2562 12.9385 15.2558C12.6034 15.2556 12.2683 15.2551 11.9332 15.254C11.6176 15.2529 11.302 15.2526 10.9864 15.2528C10.8708 15.2528 10.7551 15.2525 10.6395 15.2519C10.4811 15.2511 10.3228 15.2514 10.1644 15.2517C10.0317 15.2515 10.0317 15.2515 9.89631 15.2513C9.48252 15.2821 9.17083 15.3491 8.85472 15.616ZM24.1054 15.2705C24.1054 23.8021 24.1054 32.3337 24.1054 41.1238C25.6879 41.1238 27.2704 41.1238 28.9008 41.1238C28.9008 32.5922 28.9008 24.0606 28.9008 15.2705C27.3183 15.2705 25.7358 15.2705 24.1054 15.2705ZM31.2986 15.2705C31.2986 16.8123 31.2986 18.3542 31.2986 19.9428C32.8625 19.9463 34.4264 19.9491 35.9903 19.9508C36.7164 19.9516 37.4426 19.9527 38.1687 19.9545C38.8017 19.9561 39.4347 19.9571 40.0677 19.9574C40.4028 19.9576 40.7379 19.9581 41.073 19.9592C41.3886 19.9603 41.7042 19.9606 42.0198 19.9604C42.1354 19.9604 42.2511 19.9607 42.3667 19.9613C42.5251 19.9621 42.6834 19.9618 42.8418 19.9615C42.9745 19.9617 42.9745 19.9617 43.1099 19.9619C43.5237 19.9311 43.8354 19.8641 44.1515 19.5972C44.6445 19.0345 44.581 18.4889 44.5809 17.7771C44.5811 17.6174 44.5825 17.4576 44.584 17.2979C44.5842 17.196 44.5843 17.0941 44.5845 16.9891C44.5848 16.8966 44.5852 16.804 44.5855 16.7087C44.5559 16.2971 44.4913 15.989 44.2114 15.6744C43.766 15.3039 43.4337 15.2606 42.861 15.2611C42.7589 15.261 42.6568 15.2609 42.5516 15.2608C42.4391 15.261 42.3265 15.2613 42.214 15.2616C42.095 15.2616 41.9761 15.2616 41.8571 15.2616C41.5346 15.2616 41.2122 15.262 40.8897 15.2626C40.5525 15.263 40.2153 15.2631 39.8781 15.2632C39.2399 15.2634 38.6016 15.2641 37.9633 15.2648C37.2365 15.2657 36.5098 15.2661 35.783 15.2665C34.2882 15.2674 32.7934 15.2688 31.2986 15.2705ZM10.8379 22.2789C10.8332 25.4074 10.8332 25.4074 10.83 28.5359C10.8297 28.9577 10.8294 29.3795 10.8291 29.8013C10.829 29.8542 10.829 29.9071 10.8289 29.9615C10.8282 30.8148 10.827 31.6681 10.8255 32.5213C10.824 33.3972 10.8232 34.273 10.8228 35.1488C10.8226 35.6407 10.8221 36.1326 10.821 36.6244C10.8199 37.0874 10.8195 37.5503 10.8198 38.0133C10.8197 38.1832 10.8194 38.3531 10.8188 38.523C10.818 38.7551 10.8182 38.9871 10.8186 39.2191C10.8182 39.2863 10.8177 39.3535 10.8172 39.4227C10.8197 39.9172 10.8476 40.3321 11.1925 40.7199C13.8604 42.9388 18.1999 41.1238 21.7076 41.1238C21.7076 34.905 21.7076 28.6862 21.7076 22.2789C18.1206 22.2789 14.5336 22.2789 10.8379 22.2789ZM31.2986 22.2789C31.2986 28.4977 31.2986 34.7166 31.2986 41.1238C36.9521 42.0636 36.9521 42.0636 41.7537 40.7783C42.1885 40.2821 42.1801 39.8608 42.178 39.2378C42.178 39.1653 42.1781 39.0928 42.1782 39.0181C42.1783 38.775 42.1779 38.5319 42.1774 38.2889C42.1774 38.1147 42.1774 37.9404 42.1775 37.7662C42.1775 37.2931 42.177 36.8199 42.1764 36.3468C42.1759 35.8524 42.1759 35.358 42.1758 34.8636C42.1756 34.0338 42.1751 33.2039 42.1744 32.374C42.1736 31.5193 42.1731 30.6646 42.1727 29.8099C42.1727 29.7566 42.1727 29.7034 42.1727 29.6486C42.1725 29.1855 42.1723 28.7224 42.1721 28.2593C42.1714 26.2658 42.1698 24.2724 42.1683 22.2789C38.5813 22.2789 34.9943 22.2789 31.2986 22.2789Z" fill="white"/>
</svg>
