<svg width="25" height="30" viewBox="0 0 25 30" fill="none" xmlns="http://www.w3.org/2000/svg">
<path d="M5.22439 0H17.8374C17.8574 0.0271931 17.8689 0.0604289 17.8717 0.0936649C17.9003 1.5349 17.8774 2.97311 17.8832 4.41434C17.8832 4.76483 17.8832 5.11532 17.8832 5.46581C17.8918 6.46289 18.3784 7.10948 19.3002 7.35422C19.3632 7.37234 19.4262 7.38141 19.4863 7.40558C19.638 7.46299 19.741 7.59291 19.8527 7.71075C21.4644 9.4088 23.0761 11.1069 24.6878 12.8049C24.8051 12.9288 24.9368 13.0406 24.9769 13.2249C24.9998 13.3397 24.9998 13.4575 24.9998 13.5754C24.9998 18.3704 24.9998 23.1685 24.9998 27.9635C24.9998 28.5648 24.8137 29.0845 24.4044 29.5196C24.0494 29.8942 23.6171 30 23.139 30C20.3336 30 17.5311 30 14.7256 30C11.6082 30 8.48785 30 5.37039 30C4.21959 30 3.46384 29.2174 3.44666 27.9998C3.44094 27.5405 3.4438 27.0843 3.44666 26.625C3.44666 26.48 3.4438 26.3289 3.53541 26.2051C3.69858 26.0751 3.88752 26.1084 4.07073 26.1084C7.43152 26.1084 10.7923 26.1084 14.1531 26.1084C16.1799 26.1084 18.2095 26.1084 20.2363 26.1084C20.909 26.1084 21.1867 25.8244 21.2268 25.1113C21.2382 24.9179 21.2726 24.7245 21.2325 24.5281C21.2182 21.5037 21.2296 18.4792 21.2268 15.4578C21.2268 15.3006 21.2325 15.1465 21.2239 14.9894C21.1982 14.5392 20.889 14.2069 20.4596 14.1736C20.3107 14.1615 20.1647 14.1676 20.0159 14.1676C14.7085 14.1676 9.4039 14.1676 4.09649 14.1676C3.91328 14.1676 3.72434 14.1978 3.55545 14.086C3.40945 13.9138 3.44953 13.6993 3.44953 13.4998C3.44953 10.5841 3.44953 7.66845 3.44953 4.75274C3.44953 3.84631 3.44953 2.93987 3.44953 2.03344C3.44953 1.68597 3.50106 1.35059 3.64992 1.0424C3.91042 0.504582 4.27684 0.0997077 4.88659 0.0392786C4.99824 0.0211499 5.11561 0.069493 5.22439 0.00906399V0Z" fill="#E1E4E6"/>
<path d="M3.55545 25.2931C2.70523 25.2901 1.85502 25.287 1.00194 25.284C0.360698 25.281 0 24.9094 0 24.2386C0 21.19 0 18.1383 0 15.0896C0 14.4189 0.360698 14.0472 1.00194 14.0442C1.85215 14.0412 2.70237 14.0382 3.55545 14.0352C3.67568 14.0382 3.79592 14.0442 3.91615 14.0442C9.34952 14.0442 14.7857 14.0442 20.2191 14.0442C21.0264 14.0442 21.3384 14.3736 21.3384 15.2317C21.3384 18.1776 21.3384 21.1205 21.3384 24.0664C21.3384 24.2114 21.3327 24.3595 21.3298 24.5045C21.2296 25.1058 20.9663 25.3535 20.3823 25.3928C20.2706 25.4019 20.159 25.3988 20.0502 25.3988C14.7371 25.3988 9.42681 25.3988 4.11367 25.3988C3.92187 25.3988 3.72149 25.4411 3.55259 25.2931H3.55545Z" fill="#F05642"/>
<path d="M17.8372 0.046875C20.1702 2.50634 22.5033 4.96882 24.8364 7.42828C24.7763 7.63072 24.6103 7.59748 24.4729 7.60051C23.9547 7.60957 23.4366 7.60353 22.9213 7.60353C21.9594 7.60353 20.9976 7.60353 20.0386 7.60353C19.8697 7.60353 19.7065 7.58238 19.5605 7.48871C18.5242 7.43433 17.7856 6.63062 17.7828 5.5429C17.7828 3.8116 17.7828 2.08031 17.7828 0.34902C17.7828 0.246291 17.7513 0.131476 17.84 0.046875H17.8372Z" fill="#AFB6BC"/>
<path d="M3.5556 25.2973C3.67583 25.2943 3.79606 25.2882 3.9163 25.2882C9.35825 25.2882 14.7973 25.2882 20.2393 25.2882C20.8576 25.2882 21.1067 25.11 21.33 24.5117C21.33 24.7565 21.3386 24.9982 21.3357 25.2429C21.3328 25.8109 20.9492 26.2249 20.4139 26.2249C14.7945 26.2249 9.1779 26.2249 3.55846 26.2249C3.55846 25.9167 3.5556 25.6085 3.55273 25.3003L3.5556 25.2973Z" fill="#C9D0D7"/>
<path d="M19.5586 7.49402C21.2132 7.49402 22.8679 7.49402 24.5225 7.491C24.6284 7.491 24.7458 7.53028 24.8402 7.43359C24.9089 7.491 24.8946 7.57258 24.8946 7.64812C24.8946 9.46703 24.8918 11.2859 24.8889 13.1049C24.8402 13.0626 24.7858 13.0233 24.74 12.9749C23.0539 11.2013 21.3678 9.42473 19.6846 7.64812C19.6387 7.59977 19.6015 7.54539 19.5586 7.49402Z" fill="#C9D0D7"/>
<path d="M8.66302 19.8987C8.66302 19.2158 8.66016 18.536 8.66302 17.8532C8.66302 17.5299 8.80043 17.3365 9.09815 17.3184C9.84531 17.2761 10.6011 17.2156 11.3396 17.3637C12.4876 17.5933 13.229 18.6599 13.1861 19.947C13.1345 21.5031 12.1841 22.476 10.7098 22.479C10.2461 22.479 9.78519 22.479 9.32144 22.479C8.78898 22.479 8.66302 22.3461 8.66016 21.7992C8.66016 21.1647 8.66016 20.5332 8.66016 19.8987H8.66302Z" fill="#FEFEFE"/>
<path d="M3.88213 19.847C3.88213 19.1733 3.87927 18.5025 3.88213 17.8287C3.88213 17.4389 4.05103 17.2335 4.41459 17.2274C5.01575 17.2214 5.61692 17.1821 6.21808 17.2516C7.19139 17.3664 7.82691 18.1852 7.74961 19.2156C7.66946 20.2972 7.03681 20.9317 6.00052 20.9589C5.67703 20.968 5.35355 20.968 5.03007 20.9589C4.87548 20.9529 4.81537 21.0073 4.82109 21.1735C4.82968 21.4454 4.83254 21.7203 4.80678 21.9923C4.77815 22.3065 4.59494 22.4787 4.34589 22.4697C4.08252 22.4606 3.89358 22.2582 3.88786 21.947C3.87927 21.246 3.88786 20.542 3.88786 19.841L3.88213 19.847Z" fill="#FEFEFE"/>
<path d="M14.1719 19.8901C14.1719 19.2374 14.1719 18.5848 14.1719 17.9322C14.1719 17.4789 14.3007 17.3067 14.7158 17.2976C15.5202 17.2795 16.3246 17.2825 17.129 17.2976C17.4897 17.3037 17.6815 17.4971 17.6672 17.7811C17.65 18.0772 17.4325 18.2615 17.0804 18.2645C16.5164 18.2675 15.9525 18.2796 15.3885 18.2585C15.148 18.2494 15.0851 18.334 15.1051 18.5697C15.1251 18.7933 15.1166 19.0169 15.1051 19.2404C15.0965 19.4096 15.1595 19.458 15.3112 19.455C15.775 19.4459 16.2359 19.4489 16.6996 19.455C16.8199 19.455 16.9458 19.458 17.0546 19.4973C17.2836 19.5788 17.4353 19.7601 17.4124 20.023C17.3867 20.2798 17.2006 20.4128 16.9687 20.4218C16.5908 20.44 16.2101 20.4248 15.8322 20.4339C15.6032 20.44 15.3055 20.3282 15.1624 20.4762C15.0078 20.6364 15.1223 20.9566 15.1108 21.2074C15.1022 21.4491 15.1137 21.6939 15.108 21.9386C15.0994 22.277 14.9391 22.4643 14.6728 22.4704C14.3751 22.4764 14.1776 22.277 14.1747 21.9356C14.169 21.2527 14.1747 20.5729 14.1747 19.8901H14.1719Z" fill="#FEFEFE"/>
<path d="M10.4176 21.557C10.1857 21.557 9.99961 21.5449 9.8164 21.56C9.63892 21.5751 9.59884 21.4965 9.6017 21.3243C9.60743 20.3605 9.60743 19.3966 9.6017 18.4298C9.6017 18.2485 9.65323 18.1911 9.82213 18.2001C10.2372 18.2243 10.6552 18.1669 11.0674 18.2394C11.5512 18.327 11.8947 18.6141 12.0922 19.0794C12.513 20.0644 12.0693 21.2306 11.1705 21.4965C10.9099 21.5751 10.638 21.5449 10.4176 21.5509V21.557Z" fill="#F05642"/>
<path d="M4.8169 19.095C4.8169 18.8532 4.8169 18.6085 4.8169 18.3668C4.8169 18.2459 4.83407 18.1583 4.98007 18.1644C5.34935 18.1764 5.71864 18.1523 6.08506 18.1915C6.56027 18.2399 6.86371 18.6538 6.84367 19.1675C6.8265 19.6449 6.47153 20.0135 5.99918 20.0286C5.6757 20.0407 5.35222 20.0225 5.0316 20.0346C4.85411 20.0407 4.81117 19.9682 4.8169 19.799C4.82835 19.5663 4.8169 19.3337 4.8169 19.098V19.095Z" fill="#F05642"/>
</svg>
