<svg width="20" height="20" viewBox="0 0 20 20" fill="none" xmlns="http://www.w3.org/2000/svg">
<path d="M15.7143 0H4.28571C1.91878 0 0 1.91878 0 4.28571V15.7143C0 18.0812 1.91878 20 4.28571 20H15.7143C18.0812 20 20 18.0812 20 15.7143V4.28571C20 1.91878 18.0812 0 15.7143 0Z" fill="#503872"/>
<path fill-rule="evenodd" clip-rule="evenodd" d="M11.7554 4.11813C11.8953 4.04751 12.0014 3.92422 12.0504 3.77538C12.0993 3.62655 12.0872 3.46436 12.0165 3.32449C11.9459 3.18463 11.8226 3.07855 11.6738 3.02959C11.5249 2.98062 11.3627 2.99279 11.2228 3.06341L11.485 3.593C11.3984 3.41596 11.3115 3.23942 11.2228 3.06341H11.2213L11.2198 3.0649L11.2169 3.06638L11.2094 3.0701C11.1849 3.08253 11.1609 3.09591 11.1374 3.11021C10.9067 3.25612 10.7018 3.43936 10.5312 3.65242C10.328 3.90717 10.1721 4.1962 10.0706 4.50585C9.87089 4.32959 9.63698 4.19634 9.38349 4.11441C9.10787 4.02429 8.81913 3.98086 8.5292 3.98592L8.51063 3.98666H8.50097L8.50023 3.9874L8.52994 4.57715L8.49874 3.9874C8.34608 4.00049 8.20446 4.07231 8.10372 4.18774C8.00298 4.30318 7.95098 4.4532 7.95869 4.6062C7.96639 4.75921 8.0332 4.90325 8.14502 5.00798C8.25685 5.11271 8.40497 5.16995 8.55817 5.16764H8.58269C8.6846 5.16888 8.78614 5.18033 8.88577 5.20181C6.8808 5.78859 5.34977 7.44122 5.04594 9.49345C4.73961 9.6029 4.47464 9.80442 4.28738 10.0704C4.10012 10.3363 3.99974 10.6537 4 10.979C4 11.6586 4.42937 12.229 5.02589 12.4511C5.81331 15.0307 8.36057 16 10.5 16C12.6394 16 15.1874 15.0307 15.9741 12.4496C16.275 12.3385 16.5346 12.138 16.718 11.8749C16.9014 11.6118 16.9998 11.2989 17 10.9782C17 10.2934 16.5639 9.71108 15.9541 9.49345C15.6034 7.12406 13.617 5.28797 11.1552 5.00869C11.2084 4.78374 11.3101 4.5731 11.4531 4.39146C11.5366 4.28709 11.6358 4.19638 11.7473 4.12258L11.7554 4.11813ZM9.38423 12.5291L9.39017 12.5336C9.47346 12.5887 9.56146 12.6365 9.65314 12.6762C9.84851 12.7616 10.1375 12.8492 10.5 12.8492C10.8625 12.8492 11.1515 12.7616 11.3469 12.6762C11.4386 12.6365 11.5266 12.5888 11.6098 12.5336L11.6158 12.5291C11.7392 12.4326 11.8959 12.389 12.0515 12.408C12.207 12.4271 12.3486 12.5071 12.4452 12.6305C12.5417 12.7539 12.5853 12.9106 12.5662 13.0661C12.5472 13.2216 12.4672 13.3632 12.3438 13.4598L12.3423 13.4613L12.3408 13.4627L12.3363 13.4657L12.3252 13.4739L12.2933 13.4977C12.1436 13.5998 11.9847 13.6876 11.8186 13.7598C11.4023 13.9395 10.9534 14.0315 10.5 14.0302C9.94509 14.0302 9.49492 13.8965 9.18143 13.7598C9.0153 13.6876 8.85636 13.5998 8.70674 13.4977C8.69572 13.4899 8.68482 13.482 8.67406 13.4739L8.66366 13.4657L8.6592 13.462L8.65771 13.4613L8.65623 13.4605L9.02246 12.9963L8.65549 13.4598C8.53205 13.3631 8.45207 13.2215 8.43312 13.0659C8.41417 12.9103 8.45782 12.7535 8.55446 12.6301C8.65109 12.5067 8.79281 12.4267 8.94842 12.4078C9.10403 12.3888 9.2608 12.4325 9.38423 12.5291ZM10.5 6.15328C8.15777 6.15328 6.29543 7.8943 6.1788 10.0268L6.14834 10.5853H5.58897L5.55703 10.5846C5.45608 10.5875 5.36018 10.6294 5.28937 10.7014C5.21857 10.7734 5.17834 10.87 5.17709 10.971C5.17585 11.072 5.21368 11.1695 5.28268 11.2433C5.35169 11.317 5.44652 11.3612 5.54737 11.3667L5.98417 11.3979L6.08149 11.8242C6.55691 13.9084 8.53514 14.8183 10.5 14.8183C12.4649 14.8183 14.4431 13.9084 14.9185 11.825L15.0151 11.3979L15.4519 11.3667C15.5531 11.3581 15.6471 11.3104 15.7138 11.2338C15.7806 11.1572 15.8149 11.0577 15.8096 10.9562C15.8043 10.8548 15.7598 10.7593 15.6854 10.6901C15.611 10.6209 15.5126 10.5833 15.411 10.5853H14.8517L14.8212 10.0268C14.7046 7.89504 12.8422 6.15328 10.5 6.15328ZM11.9471 9.96362C12.0149 9.89156 12.0965 9.83384 12.187 9.79389C12.2775 9.75393 12.3751 9.73256 12.474 9.73103C12.573 9.7295 12.6712 9.74785 12.7629 9.78498C12.8546 9.82212 12.9379 9.87728 13.0079 9.94722C13.0779 10.0171 13.1332 10.1004 13.1704 10.1921C13.2076 10.2838 13.226 10.382 13.2245 10.4809C13.2231 10.5798 13.2018 10.6774 13.1619 10.768C13.122 10.8585 13.0643 10.9401 12.9923 11.0079C12.8524 11.1397 12.6667 11.2118 12.4746 11.2089C12.2824 11.2061 12.0989 11.1286 11.963 10.9928C11.8271 10.8569 11.7494 10.6735 11.7464 10.4814C11.7434 10.2893 11.8154 10.1036 11.9471 9.96362ZM8.00772 9.96362C8.14622 9.82513 8.33407 9.74733 8.52994 9.74733C8.72582 9.74733 8.91367 9.82513 9.05217 9.96362C9.19068 10.1021 9.26849 10.2899 9.26849 10.4858C9.26849 10.6816 9.19068 10.8694 9.05217 11.0079C8.91367 11.1464 8.72582 11.2242 8.52994 11.2242C8.33407 11.2242 8.14622 11.1464 8.00772 11.0079C7.86921 10.8694 7.7914 10.6816 7.7914 10.4858C7.7914 10.2899 7.86921 10.1021 8.00772 9.96362Z" fill="white"/>
</svg>
