<svg width="35" height="35" viewBox="0 0 35 35" fill="none" xmlns="http://www.w3.org/2000/svg">
<path d="M3.59652 0.024807C3.64682 0.0246508 3.69712 0.0244947 3.74895 0.0243338C3.91847 0.0238898 4.08798 0.0239201 4.2575 0.0239473C4.37988 0.0237283 4.50227 0.023481 4.62465 0.0232077C4.96173 0.0225421 5.29881 0.0222957 5.63589 0.0221197C5.99914 0.0218607 6.36239 0.0212248 6.72565 0.020645C7.6033 0.0193326 8.48095 0.0186647 9.3586 0.0180741C9.7718 0.0177832 10.185 0.0174269 10.5982 0.0170791C11.9716 0.0159497 13.345 0.0149858 14.7184 0.0145067C14.8073 0.0144752 14.8961 0.0144436 14.9849 0.0144119C15.029 0.0143963 15.073 0.0143806 15.1184 0.0143644C15.3415 0.0142847 15.5647 0.014204 15.7879 0.0141226C15.8322 0.0141067 15.8764 0.0140907 15.9221 0.0140743C17.3577 0.0135504 18.7933 0.0119952 20.2288 0.00983706C21.7469 0.00755925 23.2649 0.00625164 24.7829 0.00603304C25.6103 0.00588926 26.4377 0.00530777 27.265 0.00361256C27.9697 0.00217223 28.6743 0.00163676 29.3789 0.00228265C29.7384 0.00258455 30.0978 0.00245729 30.4573 0.00116994C30.7866 8.75703e-07 31.1159 6.45487e-05 31.4451 0.00109673C31.5641 0.00125468 31.683 0.000966342 31.8019 0.000178716C32.8164 -0.00612232 33.5357 0.151681 34.2835 0.873904C34.7591 1.38697 34.9767 1.96353 34.9752 2.65315C34.9754 2.70345 34.9755 2.75375 34.9757 2.80557C34.9761 2.97509 34.9761 3.14461 34.9761 3.31413C34.9763 3.43651 34.9765 3.55889 34.9768 3.68127C34.9775 4.01835 34.9777 4.35543 34.9779 4.69251C34.9781 5.05577 34.9788 5.41902 34.9794 5.78227C34.9807 6.65992 34.9813 7.53757 34.9819 8.41523C34.9822 8.82843 34.9826 9.24163 34.9829 9.65483C34.9841 11.0282 34.985 12.4017 34.9855 13.7751C34.9855 13.8639 34.9856 13.9527 34.9856 14.0415C34.9856 14.1076 34.9856 14.1076 34.9856 14.175C34.9857 14.3982 34.9858 14.6213 34.9859 14.8445C34.9859 14.8888 34.9859 14.9331 34.9859 14.9787C34.9865 16.4143 34.988 17.8499 34.9902 19.2855C34.9924 20.8035 34.9938 22.3215 34.994 23.8395C34.9941 24.6669 34.9947 25.4943 34.9964 26.3217C34.9978 27.0263 34.9984 27.7309 34.9977 28.4355C34.9974 28.795 34.9975 29.1545 34.9988 29.5139C35 29.8432 34.9999 30.1725 34.9989 30.5018C34.9988 30.6207 34.999 30.7396 34.9998 30.8585C35.0058 31.8263 34.8749 32.5689 34.1821 33.2841C33.6454 33.7873 33.0768 34.0334 32.3469 34.0318C32.2966 34.032 32.2463 34.0321 32.1944 34.0323C32.0249 34.0327 31.8554 34.0327 31.6859 34.0327C31.5635 34.0329 31.4411 34.0331 31.3187 34.0334C30.9817 34.0341 30.6446 34.0343 30.3075 34.0345C29.9442 34.0348 29.581 34.0354 29.2177 34.036C28.3401 34.0373 27.4624 34.038 26.5848 34.0386C26.1716 34.0388 25.7584 34.0392 25.3452 34.0395C23.9718 34.0407 22.5983 34.0416 21.2249 34.0421C21.1361 34.0422 21.0473 34.0422 20.9585 34.0422C20.9144 34.0422 20.8704 34.0422 20.825 34.0423C20.6018 34.0423 20.3787 34.0424 20.1555 34.0425C20.1112 34.0425 20.0669 34.0425 20.0213 34.0426C18.5857 34.0431 17.1501 34.0446 15.7145 34.0468C14.1965 34.0491 12.6785 34.0504 11.1605 34.0506C10.3331 34.0507 9.50573 34.0513 8.67834 34.053C7.97372 34.0545 7.26911 34.055 6.56449 34.0543C6.20501 34.054 5.84555 34.0542 5.48608 34.0555C5.15679 34.0566 4.82752 34.0566 4.49823 34.0555C4.37931 34.0554 4.26038 34.0557 4.14146 34.0564C3.16031 34.0625 2.42082 33.9238 1.69877 33.2216C1.18702 32.6807 0.966626 32.1429 0.968181 31.4035C0.968025 31.3532 0.967869 31.3029 0.967708 31.2511C0.967264 31.0815 0.967294 30.912 0.967322 30.7425C0.967103 30.6201 0.966855 30.4977 0.966582 30.3754C0.965916 30.0383 0.96567 29.7012 0.965494 29.3641C0.965235 29.0009 0.964599 28.6376 0.964019 28.2744C0.962707 27.3967 0.962039 26.5191 0.961448 25.6414C0.961157 25.2282 0.960801 24.815 0.960453 24.4018C0.959324 23.0284 0.95836 21.655 0.957881 20.2816C0.957849 20.1927 0.957818 20.1039 0.957786 20.0151C0.95777 19.9711 0.957755 19.927 0.957738 19.8816C0.957659 19.6585 0.957578 19.4353 0.957497 19.2121C0.957473 19.1457 0.957473 19.1457 0.957448 19.0779C0.956925 17.6423 0.955369 16.2068 0.953211 14.7712C0.950933 13.2532 0.949626 11.7351 0.949407 10.2171C0.949263 9.38974 0.948682 8.56235 0.946987 7.73496C0.945546 7.03034 0.945011 6.32573 0.945657 5.62112C0.945959 5.26164 0.945832 4.90218 0.944544 4.5427C0.943375 4.21341 0.943439 3.88415 0.944471 3.55486C0.944629 3.43593 0.944341 3.31701 0.943553 3.19808C0.937543 2.23038 1.06844 1.48773 1.76127 0.772511C2.29798 0.269341 2.86654 0.023271 3.59652 0.024807ZM3.10142 2.22443C2.8849 2.49191 2.87728 2.70959 2.87701 3.04811C2.8767 3.09724 2.87639 3.14637 2.87608 3.197C2.87528 3.36215 2.87591 3.52726 2.87652 3.69241C2.87625 3.8118 2.87588 3.93119 2.87544 4.05058C2.87448 4.37907 2.87476 4.70755 2.87525 5.03605C2.87557 5.39015 2.87474 5.74425 2.87406 6.09836C2.87291 6.79223 2.87286 7.4861 2.87321 8.17998C2.87348 8.74381 2.87338 9.30764 2.87303 9.87147C2.87298 9.95164 2.87293 10.0318 2.87288 10.1144C2.87277 10.2773 2.87267 10.4401 2.87257 10.603C2.87166 12.131 2.87202 13.6591 2.87278 15.1871C2.87344 16.5858 2.87258 17.9846 2.87099 19.3833C2.86937 20.8187 2.86873 22.2541 2.86918 23.6894C2.86941 24.4956 2.86926 25.3018 2.8681 26.108C2.86712 26.7943 2.86708 27.4806 2.86824 28.1669C2.8688 28.5171 2.86894 28.8674 2.86793 29.2177C2.86701 29.5382 2.86732 29.8587 2.86861 30.1792C2.86886 30.2953 2.86866 30.4114 2.86797 30.5275C2.8671 30.6851 2.86786 30.8426 2.86903 31.0002C2.86904 31.0878 2.86904 31.1754 2.86905 31.2656C2.90861 31.5451 2.98703 31.6833 3.1678 31.8986C7.115 34.2669 12.3727 32.0977 16.9759 32.0977C16.9759 22.1519 16.9759 12.2061 16.9759 1.95889C9.65022 0.808724 9.65022 0.808724 3.10142 2.22443ZM18.9675 1.95889C18.9675 11.9047 18.9675 21.8505 18.9675 32.0977C26.2932 33.2479 26.2932 33.2479 32.842 31.8322C33.0582 31.5649 33.0661 31.3478 33.0662 31.0096C33.0665 30.9605 33.0668 30.9115 33.0671 30.861C33.0678 30.6962 33.0671 30.5315 33.0664 30.3667C33.0666 30.2476 33.067 30.1285 33.0673 30.0094C33.0682 29.6817 33.0678 29.3539 33.0672 29.0262C33.0667 28.6729 33.0674 28.3196 33.0679 27.9663C33.0688 27.2741 33.0686 26.5818 33.0681 25.8895C33.0676 25.327 33.0676 24.7644 33.0678 24.2019C33.0678 24.0819 33.0678 24.0819 33.0679 23.9595C33.0679 23.797 33.068 23.6346 33.0681 23.4721C33.0686 21.9476 33.068 20.423 33.0669 18.8985C33.066 17.5898 33.0662 16.2811 33.0671 14.9724C33.0681 13.4535 33.0686 11.9346 33.068 10.4157C33.0679 10.2538 33.0678 10.0919 33.0678 9.93C33.0677 9.85033 33.0677 9.77067 33.0677 9.68859C33.0675 9.12663 33.0678 8.56467 33.0683 8.00271C33.0688 7.31801 33.0687 6.63331 33.0676 5.94861C33.0671 5.59912 33.0669 5.24965 33.0675 4.90016C33.0681 4.5804 33.0678 4.26064 33.0667 3.94088C33.0665 3.82504 33.0666 3.70921 33.0671 3.59337C33.0677 3.43617 33.0671 3.27901 33.0662 3.12181C33.0661 3.03442 33.0661 2.94703 33.0661 2.85699C33.0382 2.59496 32.9879 2.44359 32.842 2.22443C28.9932 -0.341438 23.5931 1.95889 18.9675 1.95889Z" fill="#503872"/>
<path d="M10.52 11.788C10.7671 12.0007 10.9071 12.2776 10.9599 12.6001C10.97 12.769 10.9721 12.9361 10.9712 13.1052C10.9719 13.1687 10.9726 13.2323 10.9733 13.2977C10.9752 13.5061 10.9753 13.7144 10.9754 13.9227C10.9764 14.0678 10.9775 14.2129 10.9787 14.358C10.9816 14.7387 10.9829 15.1193 10.9839 15.5C10.9852 15.8889 10.988 16.2779 10.9907 16.6668C10.9957 17.429 10.999 18.1912 11.0013 18.9535C11.0415 18.9119 11.0816 18.8704 11.123 18.8276C11.2731 18.6729 11.4239 18.5188 11.5751 18.3651C11.6402 18.2987 11.7051 18.232 11.7697 18.165C11.8631 18.0685 11.9572 17.9728 12.0516 17.8773C12.1079 17.8196 12.1642 17.7619 12.2222 17.7024C12.442 17.5209 12.651 17.432 12.9371 17.4212C13.2173 17.4609 13.4364 17.5024 13.6567 17.6921C13.8911 18.0094 13.9518 18.2817 13.9057 18.6698C13.74 19.1719 13.3008 19.5277 12.9371 19.8899C12.8728 19.9543 12.8085 20.0187 12.7442 20.0832C12.6099 20.2177 12.4753 20.352 12.3406 20.4861C12.1684 20.6575 11.9968 20.8295 11.8254 21.0017C11.6929 21.1347 11.5601 21.2674 11.4272 21.4C11.3331 21.4939 11.2393 21.5881 11.1455 21.6823C11.0879 21.7394 11.0303 21.7966 10.971 21.8555C10.9207 21.9058 10.8703 21.956 10.8184 22.0078C10.5471 22.2484 10.3159 22.3587 9.95628 22.4174C9.39803 22.373 9.08001 21.9742 8.71519 21.5923C8.38268 21.2489 8.05133 20.9141 7.68818 20.6031C7.40217 20.3502 7.13466 20.0779 6.8647 19.8082C6.80544 19.7497 6.74618 19.6913 6.68512 19.6311C6.62826 19.5743 6.5714 19.5176 6.51281 19.4591C6.43601 19.3827 6.43601 19.3827 6.35766 19.3048C6.09088 19.0064 5.97686 18.7582 5.95605 18.356C6.00813 17.985 6.1371 17.7937 6.42568 17.5703C6.6958 17.407 6.93352 17.417 7.23812 17.4515C7.75835 17.6265 8.15419 18.1622 8.53367 18.543C8.56692 18.5763 8.60018 18.6096 8.63444 18.6439C8.71532 18.7249 8.79617 18.806 8.877 18.8871C8.87754 18.8091 8.87808 18.7311 8.87863 18.6508C8.88378 17.9153 8.8896 17.1798 8.89609 16.4443C8.8994 16.0662 8.90248 15.6881 8.90501 15.31C8.90746 14.945 8.91054 14.58 8.91405 14.215C8.91528 14.0758 8.91628 13.9367 8.91705 13.7976C8.91818 13.6024 8.92011 13.4073 8.92222 13.2122C8.92236 13.1549 8.92251 13.0976 8.92265 13.0385C8.92778 12.6669 8.93826 12.2863 9.18144 11.9856C9.22063 11.9546 9.25983 11.9237 9.30021 11.8917C9.33906 11.8597 9.37791 11.8277 9.41794 11.7948C9.76451 11.5769 10.155 11.647 10.52 11.788Z" fill="#503872"/>
<path d="M26.4029 11.7175C26.5245 11.8027 26.5245 11.8027 26.6444 11.9122C26.6904 11.9542 26.7364 11.9962 26.7838 12.0395C27.0674 12.3089 27.3458 12.5832 27.6225 12.8596C27.6871 12.9239 27.7516 12.9883 27.8162 13.0526C27.9504 13.1864 28.0844 13.3203 28.2184 13.4543C28.3901 13.626 28.5622 13.7972 28.7345 13.9684C28.8675 14.1006 29.0001 14.2331 29.1327 14.3658C29.2269 14.4598 29.3213 14.5535 29.4157 14.6472C29.4725 14.7042 29.5292 14.7611 29.5877 14.8198C29.6379 14.8699 29.688 14.9199 29.7397 14.9715C29.9567 15.2194 29.9435 15.4855 29.9403 15.7997C29.9059 16.1016 29.7432 16.274 29.5396 16.4848C29.2255 16.6506 28.9552 16.6528 28.6196 16.5732C28.2094 16.4102 27.9299 16.0675 27.6311 15.7546C27.5701 15.6922 27.5092 15.6297 27.4464 15.5654C27.297 15.4121 27.1483 15.258 27.0004 15.1032C26.9998 15.2268 26.9998 15.2268 26.9992 15.353C26.9954 16.1295 26.9906 16.9061 26.9848 17.6826C26.9818 18.0819 26.9792 18.4811 26.9774 18.8804C26.9757 19.2656 26.973 19.6508 26.9696 20.0361C26.9685 20.1831 26.9678 20.3301 26.9674 20.4772C26.9667 20.683 26.9649 20.8888 26.9627 21.0946C26.9629 21.1859 26.9629 21.1859 26.963 21.2791C26.9569 21.6934 26.8847 21.9195 26.5896 22.223C26.3082 22.3981 26.0495 22.442 25.729 22.3762C25.423 22.2765 25.2498 22.1537 25.0752 21.8745C25.0152 21.6943 25 21.5872 24.9983 21.4019C24.9977 21.3463 24.997 21.2907 24.9964 21.2335C24.9958 21.1423 24.9958 21.1423 24.9952 21.0494C24.9946 20.9853 24.9939 20.9211 24.9932 20.8551C24.9911 20.6428 24.9895 20.4305 24.9878 20.2182C24.9865 20.0711 24.9851 19.9241 24.9837 19.777C24.98 19.3897 24.9767 19.0024 24.9735 18.615C24.9702 18.2199 24.9665 17.8248 24.9628 17.4296C24.9557 16.6542 24.9489 15.8787 24.9425 15.1032C24.9023 15.1447 24.8622 15.1862 24.8208 15.229C24.6707 15.3837 24.5199 15.5378 24.3687 15.6915C24.3036 15.758 24.2387 15.8247 24.174 15.8916C24.0807 15.9882 23.9866 16.0838 23.8922 16.1793C23.8359 16.2371 23.7796 16.2948 23.7216 16.3542C23.5023 16.5353 23.2938 16.6221 23.009 16.6378C22.688 16.5963 22.4698 16.5182 22.2207 16.2981C22.0423 15.983 21.9765 15.7288 22.0215 15.3687C22.2371 14.895 22.6001 14.5607 22.9646 14.1976C23.0316 14.1303 23.0986 14.063 23.1656 13.9957C23.3055 13.8552 23.4457 13.7151 23.5862 13.5752C23.7656 13.3966 23.9439 13.217 24.1219 13.037C24.2598 12.898 24.3983 12.7595 24.5369 12.6212C24.6029 12.5552 24.6687 12.4891 24.7342 12.4227C25.2303 11.9213 25.6618 11.489 26.4029 11.7175Z" fill="#503872"/>
</svg>
