<svg width="165" height="51" viewBox="0 0 165 51" fill="none" xmlns="http://www.w3.org/2000/svg">
<path d="M44.464 38.2309C44.3711 37.6801 44.2319 37.1386 44.0741 36.6158L44.0833 36.6252C40.9362 26.3186 31.5967 25.5905 31.2254 25.5625C30.5198 25.4691 29.7864 25.4131 29.0251 25.4131H28.9973C28.4588 25.4131 27.9111 25.4411 27.3541 25.4878C22.443 25.9265 18.7109 27.607 15.9908 29.5301C15.6473 29.7635 15.3038 30.0062 14.9695 30.2489C14.9231 30.2863 14.8767 30.3143 14.8303 30.3516C14.7096 30.445 14.5889 30.5383 14.4682 30.6224C11.9988 32.5268 10.5412 34.0112 9.64068 35.0101C8.5452 36.093 6.88342 37.5774 5.72295 37.8761C5.65796 37.8855 5.60226 37.9042 5.53727 37.9135C5.52799 37.9135 5.5187 37.9135 5.50942 37.9135C5.27733 37.9508 5.04523 37.9695 4.80386 37.9695C2.73358 37.9695 1.00681 36.5038 0.579757 34.5527C-0.172225 35.3835 0.0227311 36.7279 0.0227311 36.7279C0.0227311 36.7372 0.0227311 36.7465 0.0227311 36.7652C0.301243 39.3045 2.43651 41.2743 5.02667 41.2743C5.67653 41.2743 6.29854 41.1436 6.87413 40.9196C6.27997 42.2919 5.3516 44.0377 1.69381 45.4193C1.69381 45.4193 1.77736 45.5594 1.99089 45.7274C1.99089 45.7274 2.10229 45.8301 2.3808 45.9888C2.39008 45.9888 2.39009 45.9981 2.39937 45.9981H2.39009C2.39009 45.9981 2.39937 45.9981 2.41794 46.0075C2.4365 46.0168 2.44579 46.0261 2.46435 46.0261C2.75215 46.1755 3.18849 46.3622 3.81978 46.5489C8.93512 48.22 11.4139 44.2804 12.138 42.824C12.2587 43.7016 12.6115 44.5511 13.1778 45.27C13.3449 45.4847 13.5306 45.6901 13.7441 45.8768C14.2454 46.3342 14.8117 46.661 15.4152 46.8757C17.1141 47.4918 19.0637 47.1464 20.4655 45.8954C20.4748 45.8861 20.4841 45.8861 20.4934 45.8768C20.4934 45.8768 21.5332 45.0086 21.5239 43.8883C19.9085 45.0552 17.6525 44.9806 16.1114 43.5895C15.9351 43.4308 15.768 43.2628 15.6287 43.0761C15.6194 43.0668 15.6194 43.0574 15.6101 43.0574C15.573 43.0107 15.5359 42.9547 15.4987 42.908C15.081 42.2826 14.8303 41.181 14.6818 40.07C14.5611 35.5983 18.0982 32.3214 18.0982 32.3214C19.2494 31.2198 20.4934 30.445 21.7374 29.8848L21.7467 29.8755C21.7467 29.8755 22.1923 29.6608 22.9721 29.3994C23.0093 29.3901 23.0464 29.3714 23.0835 29.3621C24.7825 28.8019 27.9111 28.0551 31.3646 28.6806C32.3209 28.8299 33.602 29.1567 34.9389 29.8568C34.9482 29.8568 34.9574 29.8662 34.9667 29.8662C36.1086 30.4637 37.2969 31.3412 38.3831 32.6109C38.3831 32.6109 38.4017 32.6295 38.4296 32.6669C39.2187 33.6004 39.9335 34.7207 40.5091 36.0744C41.5675 38.4176 42.273 41.6104 40.5184 44.5978C40.3884 44.7938 38.3089 48.4161 34.5582 47.996C34.5211 47.996 34.484 47.9866 34.4468 47.9866C34.1497 47.9493 33.8434 47.8839 33.5277 47.7906C32.7943 47.5665 32.3209 47.2398 32.1073 47.0624C32.0609 47.0251 32.0145 46.9784 31.9681 46.941C31.1975 46.2315 30.6312 45.1859 30.6126 44.1497C30.6126 44.1403 30.6126 44.131 30.6126 44.1217C30.6126 42.1612 32.423 40.3407 34.3726 40.3407C34.549 40.3407 34.7253 40.3594 34.9017 40.3968C34.9017 40.3968 36.0529 40.6208 36.3871 41.349C36.415 41.405 36.4335 41.4704 36.4521 41.5357C36.4614 41.5731 36.4707 41.6104 36.4707 41.6571C36.4893 41.8064 36.48 41.9651 36.4428 42.1425C36.1829 42.0118 35.8858 41.9465 35.5702 41.9465C34.4561 41.9465 33.5463 42.8614 33.5463 43.9816C33.5463 45.1019 34.4561 46.0168 35.5702 46.0168C35.9694 46.0168 36.35 45.8954 36.6656 45.6901C36.6656 45.6901 38.541 44.8032 38.2624 42.1332C38.1325 40.4434 36.972 39.0431 35.4123 38.567C35.4123 38.567 33.5834 37.9415 31.6153 38.819C30.0649 39.4725 27.4933 41.237 28.3103 45.5594C29.3593 51.1234 35.9786 50.694 35.9786 50.694C36.4521 50.6753 36.9442 50.6099 37.4455 50.4886C39.5715 49.9938 43.8884 48.192 44.5661 41.7878C44.7611 40.5088 44.6589 39.2765 44.464 38.2309Z" fill="#009870"/>
<path d="M92.2199 15.5919C91.8857 15.1438 91.3101 14.8917 90.7438 14.9104C90.1961 14.8917 89.6112 15.0878 89.2398 15.5265C88.887 15.9466 88.7292 16.4321 88.5435 17.0389L86.6961 23.4525L84.83 16.9922C84.6444 16.3574 84.4958 15.8906 84.1245 15.4705C83.7439 15.0411 83.159 14.9011 82.6484 14.9197C82.0635 14.9104 81.5065 15.1905 81.1815 15.6199C80.8473 16.0493 80.6988 16.5628 80.6245 17.1136L79.2041 28.5964H82.0913L83.094 20.4371L84.8765 26.7386C85.0436 27.2988 85.155 27.7095 85.4242 28.111C85.6841 28.5311 86.2597 28.7738 86.7239 28.7458C86.7518 28.7458 86.7704 28.7458 86.7982 28.7458C87.2253 28.7458 87.7544 28.5124 87.9958 28.111C88.265 27.7189 88.3672 27.3081 88.5343 26.7386L90.3167 20.4184L91.3101 28.5964H94.1973L92.7676 17.1509C92.7027 16.5535 92.5634 16.0307 92.2199 15.5919Z" fill="#009870"/>
<path d="M99.7958 14.9102C98.4589 14.9102 97.2799 15.3676 96.4629 16.2171C95.6459 17.0573 95.2096 18.243 95.2189 19.55V28.5868H98.1061V24.0404H99.5358C101.866 24.0311 104.382 22.2573 104.41 19.4566C104.41 18.0936 103.918 16.9266 103.073 16.1238C102.219 15.3209 101.058 14.9102 99.7958 14.9102ZM100.901 20.8383C100.492 21.1837 99.9165 21.3797 99.3873 21.3797L98.1061 21.3704V19.4006C98.134 18.4017 98.7467 17.7482 99.8515 17.7202C100.938 17.7762 101.504 18.271 101.56 19.5126C101.56 20.0634 101.318 20.4929 100.901 20.8383Z" fill="#009870"/>
<path d="M66.6701 21.0898C67.3942 20.4457 67.812 19.5308 67.812 18.6066C67.8306 17.3463 67.2735 16.31 66.373 15.7685C65.4818 15.2271 64.0707 15.0777 62.8452 15.0684H60.1901C60.2458 15.5445 60.5707 17.6543 62.2882 17.8037H62.8173C63.4765 17.8037 64.2749 17.9251 64.5441 18.0931C64.8041 18.2705 64.8783 18.3825 64.8969 18.7466C64.8876 19.1947 64.7669 19.4561 64.5534 19.6615C64.3306 19.8575 63.9221 20.0349 63.2073 20.0349H61.2763V22.5835H63.3558C64.0614 22.5835 64.5441 22.7702 64.8319 23.0316C65.1197 23.293 65.2961 23.6665 65.3054 24.2826C65.2961 25.2349 64.5998 25.8043 63.5786 25.8323H60.0322V28.5677H63.69C64.9619 28.5677 66.1131 28.1942 66.9579 27.4474C67.8027 26.6912 68.2855 25.5709 68.2762 24.2639C68.2855 22.957 67.6913 21.79 66.6701 21.0898Z" fill="#009870"/>
<path d="M75.5087 17.1691V19.4936C75.4716 20.6232 74.8682 21.2114 73.8005 21.2487C72.7143 21.2114 72.1387 20.6419 72.0923 19.4936V17.2344C71.9716 15.3206 69.6507 15.1339 69.2051 15.1152V19.4936C69.2051 20.9033 69.6971 22.0796 70.5234 22.8731C71.3496 23.6667 72.473 24.0588 73.652 24.0588C74.2833 24.0494 74.9331 23.9187 75.5087 23.6387V24.4509C75.4995 24.8896 75.3045 25.1977 74.896 25.4871C74.4968 25.7672 73.8841 25.9259 73.3178 25.9259L70.0592 25.8979V28.5865H73.2806C74.9053 28.5772 76.2607 28.2411 77.1705 27.3169C78.1917 26.262 78.396 24.7683 78.396 23.1532V15.1152C77.9596 15.1339 75.6851 15.3113 75.5087 17.1691Z" fill="#009870"/>
<path d="M125.241 16.2078C124.34 15.3489 123.096 14.9102 121.713 14.9102C120.33 14.9102 119.076 15.3489 118.176 16.2078C117.275 17.0667 116.765 18.3083 116.765 19.7647V24.9459H119.671V19.6527C119.726 18.3737 120.339 17.7669 121.713 17.7108C123.068 17.7669 123.69 18.3737 123.737 19.6527V25.9262H115.809V28.5868H126.643V19.7647C126.661 18.3083 126.141 17.0573 125.241 16.2078Z" fill="#009870"/>
<path d="M147.402 20.838C146.502 20.1098 145.332 19.7457 144.125 19.7457H142.194V17.0944C141.971 15.2926 139.706 15.1246 139.307 15.1152V28.5865H144.394C145.657 28.5865 146.799 28.1198 147.606 27.2982C148.423 26.486 148.887 25.3284 148.887 24.0494C148.906 22.6958 148.312 21.5568 147.402 20.838ZM145.592 25.3657C145.322 25.6458 144.877 25.8605 144.078 25.8699H142.203V22.4904H143.986C145.573 22.5371 145.963 23.2932 146.009 24.1521C146.009 24.6749 145.861 25.0857 145.592 25.3657Z" fill="#009870"/>
<path d="M135.017 17.2624V20.2405H131.006V17.3184C130.951 15.33 128.583 15.1339 128.119 15.1152V28.5865H131.006V22.9385H135.017V28.5865H137.904V15.1152C137.449 15.1339 135.128 15.33 135.017 17.2624Z" fill="#009870"/>
<path d="M150.327 17.2157V28.5772H153.214V15.1152C152.769 15.1339 150.457 15.3206 150.327 17.2157Z" fill="#009870"/>
<path d="M56.7835 15.1149C55.5116 15.0309 54.9081 15.9271 54.7318 16.2538L51.4917 23.1715V17.1407C51.2968 15.311 49.0315 15.1336 48.6045 15.1149V26.8871C48.6045 26.9338 48.6045 26.9898 48.6045 27.0365C48.6416 27.4193 48.818 28.4648 50.4241 28.5769C51.7424 28.6702 52.3366 27.6993 52.4944 27.4006L55.688 20.5576V28.5769H58.5752V16.8887C58.5752 16.5339 58.501 16.1792 58.3431 15.8804C58.1203 15.5163 57.6654 15.1709 56.7835 15.1149Z" fill="#009870"/>
<path d="M162.813 15.1158C161.541 15.0318 160.937 15.928 160.761 16.2547L157.521 23.1631V17.1323C157.326 15.3025 155.061 15.1251 154.634 15.1064V26.8787C154.634 26.9253 154.634 26.9814 154.643 27.028C154.68 27.4108 154.857 28.4564 156.463 28.5684C157.781 28.6618 158.375 27.6909 158.533 27.3921L161.727 20.5491V28.5684H164.614V16.8895C164.614 16.5348 164.54 16.18 164.382 15.8813C164.15 15.5172 163.704 15.1718 162.813 15.1158Z" fill="#009870"/>
<path d="M111.976 17.2719V19.4938C111.938 20.6327 111.335 21.2115 110.267 21.2489C109.181 21.2115 108.606 20.642 108.559 19.4938V17.1505C108.373 15.3021 106.099 15.1247 105.672 15.106V19.4844C105.672 20.8941 106.164 22.0704 106.99 22.8639C107.816 23.6574 108.94 24.0495 110.119 24.0495C110.75 24.0402 111.4 23.9095 111.976 23.6294V24.4416C111.966 24.8804 111.771 25.1885 111.363 25.4686C111.038 25.6926 110.574 25.842 110.1 25.8887H105.728V28.5493V28.568H109.738C111.363 28.568 112.728 28.2226 113.628 27.2983C114.649 26.2434 114.853 24.7497 114.853 23.1347V15.0967C114.408 15.134 112.068 15.3301 111.976 17.2719Z" fill="#009870"/>
<path d="M159.656 14.6295H159.739C161.661 14.6295 162.961 13.2759 163.109 11.6048L163.137 11.3807L163.184 10.9326H160.965L160.928 11.306L160.909 11.4928C160.807 12.1743 160.491 12.445 159.674 12.4917C158.867 12.445 158.56 12.1743 158.44 11.4834L158.421 11.306L158.384 10.942H156.165L156.239 11.6235C156.379 13.2852 157.697 14.6482 159.656 14.6295Z" fill="#009870"/>
<path d="M3.67073 36.3352C3.92139 36.4473 4.17205 36.5033 4.432 36.522C4.81263 36.5313 5.18398 36.4566 5.52748 36.3259C5.94525 36.0738 6.73437 35.5137 7.95982 34.3001C9.37095 32.7504 11.042 31.238 13.0566 29.6789L13.168 29.5856C13.2608 29.5202 13.3444 29.4549 13.4279 29.3895L13.4836 29.3522L13.5672 29.2868L13.5858 29.2682C13.9571 28.9974 14.3192 28.7454 14.6627 28.5027C16.1388 27.4664 17.717 26.5982 19.3974 25.9074V21.6783C19.3974 19.5591 21.1056 17.8414 23.213 17.8414C25.3204 17.8414 27.0286 19.5591 27.0286 21.6783C27.0286 21.7063 27.0286 21.7343 27.0193 21.7623V24.0589C27.0565 24.0589 27.0936 24.0496 27.1307 24.0496C27.762 23.9936 28.384 23.9655 28.9782 23.9655H29.006C32.5339 23.9655 35.8482 24.9831 38.6147 26.8969C40.0351 27.8398 41.8455 29.2868 43.3958 31.2847C43.4051 31.2567 43.4051 31.238 43.4051 31.21C43.498 30.6685 43.5722 30.0057 43.6186 29.2215C43.86 25.4872 42.5325 22.5559 40.8242 20.3713C40.5829 20.0166 40.4158 19.8579 40.4158 19.8579V19.8485C40.3229 19.7552 40.2301 19.6618 40.1465 19.5685C40.1372 19.5591 40.1187 19.5405 40.1094 19.5218C39.4502 18.7843 38.9768 17.9067 38.6611 17.1692C38.494 16.7864 38.3733 16.4317 38.2805 16.161C38.2248 15.9556 38.1691 15.7782 38.132 15.6662L38.6426 14.9847C38.6426 14.9847 38.2155 14.826 37.4728 14.7233V13.6497L37.7142 13.435V13.0149L36.5723 12.184L36.0895 3.94063H35.8482L35.3933 12.184L34.1957 13.0149V13.435L34.4649 13.6777V14.7419C33.7872 14.8446 33.3973 14.9847 33.3973 14.9847L33.8429 15.5915L33.5179 16.4597C32.5803 18.4762 30.6678 19.9045 29.758 20.502V17.86H30.9742L31.7355 16.329C31.7355 16.329 24.1228 11.8852 24.0392 6.06915H23.5286V3.25913H23.6772V2.32557H23.8814C23.9464 2.23222 23.9835 2.13886 23.9835 2.02683C23.9835 2.0175 23.9835 2.00816 23.9835 1.98949C23.9835 1.98949 23.9835 1.98015 23.9835 1.97082C23.9835 1.96148 23.9835 1.96148 23.9835 1.95215V1.94281C23.9835 1.93348 23.9835 1.92414 23.9835 1.9148C23.9835 1.9148 23.9835 1.90547 23.9743 1.90547C23.9743 1.89613 23.9743 1.8868 23.965 1.87746V1.86812C23.965 1.85879 23.9557 1.84945 23.9557 1.83078C23.9557 1.83078 23.9557 1.83078 23.9557 1.82145C23.9464 1.81211 23.9464 1.80278 23.9464 1.79344C23.9464 1.78411 23.9371 1.78411 23.9371 1.77477C23.9371 1.76543 23.9278 1.76543 23.9278 1.7561L23.9186 1.74676C23.9186 1.73742 23.9093 1.73743 23.9093 1.72809L23.9 1.71875C23.9 1.70942 23.8907 1.70008 23.8814 1.70008C23.8814 1.70008 23.8814 1.69075 23.8721 1.69075C23.8629 1.68141 23.8536 1.67208 23.8443 1.66274L23.835 1.65341C23.8257 1.65341 23.8257 1.64407 23.8164 1.63473C23.8164 1.6254 23.8072 1.6254 23.8072 1.6254C23.7979 1.6254 23.7979 1.61606 23.7886 1.60673L23.7793 1.59739C23.7793 1.59739 23.77 1.58806 23.7607 1.57872C23.7515 1.57872 23.7515 1.56939 23.7515 1.56939C23.7422 1.56939 23.7329 1.56005 23.7236 1.55071C23.7143 1.55071 23.7143 1.54138 23.705 1.53204C23.6958 1.53204 23.6957 1.52271 23.6865 1.52271C23.6772 1.52271 23.6772 1.51337 23.6679 1.51337C23.6586 1.51337 23.6586 1.50404 23.6493 1.50404L23.64 1.4947H23.6308C23.1851 1.19596 23.1944 0.831871 23.1944 0.719844L23.148 0.701172H23.0737L23.0273 0.719844C23.018 0.831871 23.0366 1.18663 22.591 1.4947H22.5817C22.5817 1.4947 22.5724 1.4947 22.5724 1.50404C22.5724 1.50404 22.5631 1.51337 22.5539 1.51337C22.5539 1.52271 22.5446 1.52271 22.5353 1.52271C22.526 1.53204 22.5167 1.53204 22.5167 1.53204C22.5074 1.54138 22.4982 1.54138 22.4889 1.55071C22.4796 1.56005 22.4703 1.56005 22.4703 1.56939C22.4703 1.56939 22.461 1.57872 22.4517 1.57872C22.4517 1.58806 22.4424 1.58806 22.4332 1.59739L22.4239 1.60673C22.4146 1.61606 22.4146 1.61606 22.4053 1.6254C22.396 1.6254 22.396 1.63473 22.396 1.63473C22.396 1.64407 22.3867 1.64407 22.3775 1.65341L22.3682 1.66274C22.3589 1.67208 22.3496 1.68141 22.3403 1.69075L22.331 1.70008C22.3218 1.70942 22.3218 1.71875 22.3125 1.71875L22.3032 1.72809C22.3032 1.73743 22.2939 1.73742 22.2939 1.74676L22.2846 1.7561C22.2753 1.76543 22.2753 1.77477 22.2753 1.77477C22.2753 1.78411 22.2753 1.78411 22.2661 1.79344C22.2661 1.80278 22.2568 1.81211 22.2568 1.82145C22.2568 1.82145 22.2568 1.82145 22.2568 1.83078C22.2475 1.84012 22.2475 1.84945 22.2382 1.86812C22.2382 1.86812 22.2382 1.86813 22.2382 1.87746C22.2382 1.8868 22.2382 1.89613 22.2289 1.90547C22.2289 1.9148 22.2289 1.9148 22.2289 1.9148C22.2289 1.92414 22.2289 1.93348 22.2289 1.94281V1.95215C22.2289 1.96148 22.2289 1.97082 22.2289 1.97082C22.2289 1.98015 22.2289 1.98015 22.2289 1.98949C22.2289 1.99882 22.2289 2.00816 22.2289 2.02683C22.2289 2.13886 22.2661 2.24155 22.331 2.32557H22.5353V3.25913H22.6838V6.06915H22.1639C22.0897 11.8852 14.4677 16.329 14.4677 16.329L15.229 17.86H16.4452V23.2934C15.2476 22.2945 13.7529 20.6701 13.725 18.7749H12.6945C12.6574 21.9397 8.51684 24.3483 8.51684 24.3483L8.92532 25.1792H9.59375V27.8865H9.58447V28.624C9.51949 29.847 9.18527 29.987 9.02745 29.987C8.05265 29.7816 7.90412 28.0826 7.90412 28.0826H7.9134C7.9134 28.0826 8.24761 27.6158 8.17334 26.9623C8.17334 26.9623 7.97839 26.5608 7.32852 26.3928H7.31924L7.29139 26.3835C7.19855 26.3648 7.09643 26.3461 6.98502 26.3275C6.9386 26.3181 6.85505 26.2808 6.85505 26.2248V25.3566C6.85505 25.1978 6.88291 25.2819 6.79935 25.1605C6.74365 25.0858 6.69723 25.0205 6.64153 24.9551C6.62296 24.9271 6.60439 24.9084 6.58582 24.8898C6.52084 24.8711 6.44657 24.8151 6.47442 24.7404C6.47442 24.7311 6.4837 24.7124 6.4837 24.7031C6.51156 24.6564 6.53012 24.6004 6.53012 24.5444C6.53012 24.3763 6.39086 24.2363 6.22376 24.2363C6.05665 24.2363 5.9174 24.3763 5.9174 24.5444C5.9174 24.6004 5.93596 24.647 5.96381 24.6937C5.96381 24.7124 5.9731 24.7311 5.98238 24.7497C6.01023 24.8244 5.92668 24.8804 5.87098 24.8991C5.85241 24.9178 5.83384 24.9458 5.81527 24.9645C5.75957 25.0391 5.71315 25.1045 5.65745 25.1698C5.56461 25.2912 5.60175 25.2072 5.60175 25.3659V26.2341C5.60175 26.2808 5.52748 26.3181 5.48106 26.3275C5.36037 26.3368 5.25825 26.3555 5.16541 26.3835L5.12828 26.3928L5.11899 26.4021C4.46913 26.5702 4.27417 26.9716 4.27417 26.9716C4.1999 27.6251 4.53412 28.0919 4.53412 28.0919C4.53412 28.0919 4.52484 28.4373 4.50627 28.8854C4.432 31.2287 3.22511 32.6197 2.51026 33.2452C2.32459 33.4039 1.78613 33.7866 1.78613 33.7866C2.23175 35.439 3.08585 36.0832 3.67073 36.3352Z" fill="#812690"/>
<path d="M56.3199 31.7236H52.7828C51.7152 31.7236 50.6568 32.069 49.8677 32.8532C49.0786 33.6281 48.6051 34.8044 48.6144 36.2701V45.1856H51.5202V36.3261C51.5666 35.1311 52.0772 34.515 52.987 34.4963H54.1939C55.9764 34.403 56.2735 32.3865 56.3199 31.7236Z" fill="#009870"/>
<path d="M104 32.8162C103.1 31.9573 101.856 31.5186 100.472 31.5186C99.0891 31.5186 97.8358 31.9573 96.9259 32.8162C96.0254 33.6751 95.5148 34.9167 95.5148 36.3731V41.5543H98.4206V36.2611C98.4763 34.9821 99.0891 34.3753 100.463 34.3192C101.818 34.3753 102.44 34.9821 102.487 36.2611V42.5346H94.5586V45.2046H105.393V36.3824C105.421 34.9167 104.91 33.6751 104 32.8162Z" fill="#009870"/>
<path d="M62.242 31.5186C58.4357 31.5186 55.4463 34.674 55.4463 38.4736C55.4556 42.2545 58.4449 45.4006 62.242 45.4006C66.0576 45.4006 69.0748 42.2545 69.0748 38.4736C69.0748 34.6647 66.0669 31.5186 62.242 31.5186ZM62.242 42.5066C60.0789 42.5066 58.3985 40.6675 58.3892 38.4643C58.3985 36.233 60.0789 34.4033 62.242 34.4033C64.4144 34.4033 66.1319 36.2517 66.1319 38.4643C66.1319 40.6581 64.4144 42.5066 62.242 42.5066Z" fill="#009870"/>
<path d="M74.9704 31.5186C73.6243 31.5186 72.4545 31.976 71.6376 32.8255C70.8206 33.6657 70.3936 34.8514 70.3936 36.1584V45.1952H73.2808V40.6581H74.7105C77.0407 40.6581 79.5566 38.8844 79.5937 36.0743C79.5937 34.7113 79.1017 33.5351 78.2476 32.7415C77.3935 31.9293 76.233 31.5186 74.9704 31.5186ZM76.0752 37.456C75.6667 37.7921 75.0818 37.9975 74.5527 37.9881L73.2715 37.9788V36.009C73.2994 35.0101 73.9121 34.3566 75.0169 34.3286C76.103 34.3846 76.6786 34.87 76.7251 36.121C76.7343 36.6718 76.4837 37.1106 76.0752 37.456Z" fill="#009870"/>
<path d="M87.2898 31.5186C83.4835 31.5186 80.4941 34.674 80.4941 38.4736C80.5034 42.2545 83.4928 45.4006 87.2898 45.4006C91.1055 45.4006 94.1227 42.2545 94.1227 38.4736C94.1227 34.6647 91.1055 31.5186 87.2898 31.5186ZM87.2898 42.5066C85.1267 42.5066 83.4371 40.6675 83.4371 38.4643C83.4464 36.233 85.1267 34.4033 87.2898 34.4033C89.4622 34.4033 91.1797 36.2517 91.1797 38.4643C91.1797 40.6581 89.4622 42.5066 87.2898 42.5066Z" fill="#009870"/>
</svg>
