<svg width="119" height="37" viewBox="0 0 119 37" fill="none" xmlns="http://www.w3.org/2000/svg">
<path d="M32.143 27.1303C32.0759 26.7321 31.9753 26.3407 31.8612 25.9627L31.8679 25.9695C29.5928 18.5189 22.8413 17.9925 22.5728 17.9722C22.0628 17.9048 21.5326 17.8643 20.9823 17.8643H20.9621C20.5729 17.8643 20.1769 17.8845 19.7743 17.9182C16.224 18.2354 13.5261 19.4502 11.5597 20.8404C11.3114 21.0092 11.0631 21.1846 10.8215 21.3601C10.7879 21.3871 10.7544 21.4073 10.7208 21.4343C10.6336 21.5018 10.5463 21.5693 10.4591 21.63C8.6739 23.0068 7.62024 24.0798 6.96925 24.802C6.17733 25.5848 4.97602 26.6579 4.13712 26.8738C4.09014 26.8806 4.04988 26.8941 4.0029 26.9008C3.99619 26.9008 3.98947 26.9008 3.98276 26.9008C3.81498 26.9278 3.6472 26.9413 3.47271 26.9413C1.97611 26.9413 0.727823 25.8817 0.419107 24.4713C-0.124502 25.0719 0.0164323 26.0437 0.0164323 26.0437C0.0164323 26.0505 0.0164323 26.0572 0.0164323 26.0707C0.217769 27.9064 1.76135 29.3303 3.63378 29.3303C4.10357 29.3303 4.55322 29.2359 4.96931 29.0739C4.53979 30.066 3.86867 31.328 1.22445 32.3268C1.22445 32.3268 1.28485 32.428 1.43921 32.5495C1.43921 32.5495 1.51975 32.6237 1.72108 32.7385C1.72779 32.7385 1.72779 32.7452 1.73451 32.7452H1.72779C1.72779 32.7452 1.73451 32.7452 1.74793 32.752C1.76135 32.7587 1.76806 32.7654 1.78148 32.7654C1.98953 32.8734 2.30496 33.0084 2.76132 33.1434C6.4592 34.3514 8.2511 31.5034 8.77457 30.4506C8.86182 31.085 9.11685 31.6991 9.52623 32.2188C9.64703 32.374 9.78126 32.5225 9.93561 32.6575C10.298 32.9882 10.7074 33.2244 11.1436 33.3796C12.3718 33.825 13.7811 33.5753 14.7945 32.671C14.8012 32.6642 14.808 32.6642 14.8147 32.6575C14.8147 32.6575 15.5663 32.0298 15.5596 31.22C14.3919 32.0636 12.761 32.0096 11.647 31.004C11.5195 30.8893 11.3987 30.7678 11.298 30.6329C11.2913 30.6261 11.2913 30.6194 11.2846 30.6194C11.2577 30.5856 11.2309 30.5451 11.204 30.5114C10.902 30.0592 10.7208 29.2629 10.6134 28.4598C10.5262 25.2271 13.0832 22.8583 13.0832 22.8583C13.9154 22.062 14.8147 21.5018 15.714 21.0969L15.7207 21.0902C15.7207 21.0902 16.0428 20.9349 16.6066 20.746C16.6334 20.7392 16.6603 20.7257 16.6871 20.719C17.9153 20.314 20.1769 19.7741 22.6735 20.2263C23.3648 20.3343 24.2909 20.5705 25.2573 21.0767C25.264 21.0767 25.2707 21.0834 25.2775 21.0834C26.1029 21.5153 26.962 22.1497 27.7472 23.0675C27.7472 23.0675 27.7606 23.081 27.7807 23.108C28.3512 23.7829 28.868 24.5927 29.2841 25.5713C30.0491 27.2652 30.5592 29.5733 29.2908 31.7329C29.1968 31.8746 27.6935 34.4931 24.9822 34.1894C24.9553 34.1894 24.9285 34.1827 24.9016 34.1827C24.6869 34.1557 24.4654 34.1084 24.2372 34.041C23.707 33.879 23.3648 33.6428 23.2104 33.5146C23.1768 33.4876 23.1433 33.4538 23.1097 33.4268C22.5527 32.9139 22.1433 32.1581 22.1299 31.4089C22.1299 31.4022 22.1299 31.3955 22.1299 31.3887C22.1299 29.9715 23.4386 28.6555 24.8479 28.6555C24.9755 28.6555 25.103 28.669 25.2305 28.696C25.2305 28.696 26.0627 28.8579 26.3043 29.3843C26.3244 29.4248 26.3378 29.4721 26.3512 29.5193C26.358 29.5463 26.3647 29.5733 26.3647 29.607C26.3781 29.715 26.3714 29.8298 26.3445 29.958C26.1566 29.8635 25.9419 29.8163 25.7137 29.8163C24.9083 29.8163 24.2506 30.4776 24.2506 31.2875C24.2506 32.0973 24.9083 32.7587 25.7137 32.7587C26.0023 32.7587 26.2774 32.671 26.5056 32.5225C26.5056 32.5225 27.8613 31.8814 27.6599 29.9512C27.566 28.7297 26.7271 27.7174 25.5996 27.3732C25.5996 27.3732 24.2775 26.921 22.8547 27.5554C21.7339 28.0278 19.8749 29.3033 20.4655 32.428C21.2239 36.4503 26.009 36.1398 26.009 36.1398C26.3513 36.1263 26.7069 36.0791 27.0694 35.9913C28.6062 35.6337 31.7269 34.3312 32.2169 29.7015C32.3578 28.7769 32.284 27.8861 32.143 27.1303Z" fill="white"/>
<path d="M66.666 10.764C66.4244 10.4401 66.0083 10.2579 65.5989 10.2714C65.2029 10.2579 64.7801 10.3996 64.5117 10.7168C64.2566 11.0205 64.1425 11.3714 64.0083 11.8101L62.6728 16.4465L61.3238 11.7764C61.1896 11.3174 61.0822 10.98 60.8138 10.6763C60.5386 10.3659 60.1158 10.2646 59.7467 10.2781C59.3239 10.2714 58.9212 10.4738 58.6863 10.7843C58.4447 11.0947 58.3373 11.4659 58.2837 11.8641L57.2568 20.165H59.344L60.0688 14.2666L61.3574 18.822C61.4782 19.2269 61.5587 19.5239 61.7533 19.8141C61.9413 20.1178 62.3574 20.2932 62.6929 20.273C62.7131 20.273 62.7265 20.273 62.7466 20.273C63.0553 20.273 63.4379 20.1043 63.6124 19.8141C63.807 19.5306 63.8808 19.2337 64.0016 18.822L65.2902 14.2531L66.0083 20.165H68.0954L67.0619 11.8911C67.0149 11.4592 66.9143 11.0812 66.666 10.764Z" fill="white"/>
<path d="M72.1427 10.2715C71.1763 10.2715 70.324 10.6022 69.7334 11.2163C69.1428 11.8237 68.8274 12.6808 68.8341 13.6256V20.1584H70.9213V16.8717H71.9548C73.6393 16.865 75.4581 15.5827 75.4782 13.5581C75.4782 12.5728 75.1225 11.7292 74.5118 11.1488C73.8944 10.5684 73.0555 10.2715 72.1427 10.2715ZM72.9414 14.5569C72.6461 14.8066 72.23 14.9484 71.8474 14.9484L70.9213 14.9416V13.5176C70.9414 12.7955 71.3844 12.3231 72.183 12.3028C72.9682 12.3433 73.3776 12.701 73.4179 13.5986C73.4179 13.9968 73.2434 14.3072 72.9414 14.5569Z" fill="white"/>
<path d="M48.196 14.7396C48.7195 14.274 49.0215 13.6126 49.0215 12.9445C49.0349 12.0334 48.6322 11.2843 47.9812 10.8929C47.3369 10.5014 46.3168 10.3935 45.431 10.3867H43.5116C43.5518 10.7309 43.7867 12.2561 45.0283 12.3641H45.4108C45.8873 12.3641 46.4645 12.4518 46.6591 12.5733C46.847 12.7015 46.9007 12.7825 46.9141 13.0457C46.9074 13.3697 46.8202 13.5586 46.6658 13.7071C46.5048 13.8488 46.2095 13.977 45.6927 13.977H44.2968V15.8194H45.8001C46.3101 15.8194 46.6591 15.9544 46.8672 16.1434C47.0752 16.3323 47.2027 16.6023 47.2094 17.0477C47.2027 17.7361 46.6994 18.1478 45.9611 18.168H43.3975V20.1454H46.0417C46.9611 20.1454 47.7933 19.8754 48.404 19.3355C49.0148 18.7889 49.3637 17.979 49.357 17.0342C49.3637 16.0894 48.9342 15.2458 48.196 14.7396Z" fill="white"/>
<path d="M54.5862 11.9046V13.5851C54.5594 14.4017 54.1231 14.8268 53.3513 14.8538C52.5661 14.8268 52.15 14.4152 52.1165 13.5851V11.9519C52.0292 10.5684 50.3514 10.4334 50.0293 10.4199V13.5851C50.0293 14.6041 50.385 15.4545 50.9823 16.0281C51.5796 16.6018 52.3916 16.8852 53.244 16.8852C53.7003 16.8784 54.1701 16.784 54.5862 16.5815V17.1686C54.5795 17.4858 54.4386 17.7085 54.1433 17.9178C53.8547 18.1202 53.4118 18.2349 53.0024 18.2349L50.6467 18.2147V20.1583H52.9755C54.15 20.1516 55.1298 19.9086 55.7875 19.2405C56.5258 18.4779 56.6734 17.3981 56.6734 16.2306V10.4199C56.358 10.4334 54.7137 10.5616 54.5862 11.9046Z" fill="white"/>
<path d="M90.5373 11.2096C89.8864 10.5887 88.987 10.2715 87.9871 10.2715C86.9871 10.2715 86.0811 10.5887 85.4301 11.2096C84.7791 11.8304 84.41 12.728 84.41 13.7808V17.5264H86.5106V13.6998C86.5509 12.7753 86.9938 12.3366 87.9871 12.2961C88.9669 12.3366 89.4166 12.7753 89.4501 13.6998V18.235H83.7188V20.1584H91.5507V13.7808C91.5642 12.728 91.1883 11.8237 90.5373 11.2096Z" fill="white"/>
<path d="M106.557 14.5569C105.906 14.0305 105.061 13.7673 104.188 13.7673H102.792V11.8507C102.631 10.5481 100.994 10.4267 100.705 10.4199V20.1583H104.383C105.296 20.1583 106.121 19.8209 106.705 19.227C107.295 18.6399 107.631 17.803 107.631 16.8785C107.644 15.8999 107.215 15.0765 106.557 14.5569ZM105.249 17.83C105.054 18.0325 104.732 18.1877 104.155 18.1945H102.799V15.7514H104.088C105.235 15.7852 105.517 16.3318 105.551 16.9527C105.551 17.3306 105.443 17.6276 105.249 17.83Z" fill="white"/>
<path d="M97.6036 11.9721V14.125H94.7044V12.0126C94.6641 10.5751 92.9527 10.4334 92.6172 10.4199V20.1583H94.7044V16.0754H97.6036V20.1583H99.6908V10.4199C99.362 10.4334 97.6842 10.5751 97.6036 11.9721Z" fill="white"/>
<path d="M108.672 11.9384V20.1516H110.759V10.4199C110.437 10.4334 108.766 10.5684 108.672 11.9384Z" fill="white"/>
<path d="M41.0483 10.42C40.1289 10.3593 39.6927 11.0072 39.5651 11.2434L37.2229 16.2442V11.8845C37.082 10.5617 35.4445 10.4335 35.1357 10.42V18.9302C35.1357 18.9639 35.1357 19.0044 35.1357 19.0381C35.1626 19.3148 35.2901 20.0707 36.4511 20.1517C37.4041 20.2192 37.8337 19.5173 37.9477 19.3013L40.2564 14.3545V20.1517H42.3436V11.7023C42.3436 11.4458 42.2899 11.1894 42.1758 10.9734C42.0147 10.7102 41.6859 10.4605 41.0483 10.42Z" fill="white"/>
<path d="M117.698 10.4198C116.778 10.3591 116.342 11.007 116.215 11.2432L113.872 16.2372V11.8776C113.731 10.5548 112.094 10.4266 111.785 10.4131V18.9232C111.785 18.957 111.785 18.9975 111.792 19.0312C111.819 19.3079 111.946 20.0638 113.107 20.1447C114.06 20.2122 114.49 19.5104 114.604 19.2944L116.913 14.3476V20.1447H119V11.7021C119 11.4456 118.946 11.1892 118.832 10.9732C118.664 10.71 118.342 10.4603 117.698 10.4198Z" fill="white"/>
<path d="M80.9466 11.9787V13.5849C80.9197 14.4082 80.4835 14.8267 79.7117 14.8537C78.9265 14.8267 78.5104 14.415 78.4768 13.5849V11.891C78.3426 10.5547 76.6984 10.4265 76.3896 10.413V13.5781C76.3896 14.5972 76.7454 15.4475 77.3427 16.0212C77.9399 16.5948 78.752 16.8783 79.6043 16.8783C80.0607 16.8715 80.5305 16.777 80.9466 16.5746V17.1617C80.9399 17.4789 80.7989 17.7016 80.5036 17.9041C80.2687 18.0661 79.9332 18.174 79.5909 18.2078H76.4299V20.1312V20.1447H79.3292C80.5036 20.1447 81.4902 19.895 82.1412 19.2268C82.8794 18.4642 83.027 17.3844 83.027 16.2169V10.4062C82.7049 10.4332 81.0137 10.575 80.9466 11.9787Z" fill="white"/>
<path d="M115.416 10.069H115.476C116.866 10.069 117.805 9.09042 117.913 7.88239L117.933 7.72043L117.966 7.39648H116.362L116.335 7.66643L116.322 7.80141C116.248 8.29407 116.02 8.48978 115.429 8.52352C114.846 8.48978 114.624 8.29406 114.537 7.79466L114.523 7.66643L114.497 7.40323H112.893L112.946 7.89589C113.047 9.09716 114 10.0825 115.416 10.069Z" fill="white"/>
<path d="M2.65339 25.7599C2.83459 25.8409 3.0158 25.8814 3.20371 25.8949C3.47887 25.9016 3.74732 25.8476 3.99564 25.7531C4.29764 25.5709 4.8681 25.166 5.75398 24.2887C6.77408 23.1684 7.9821 22.0751 9.43843 20.948L9.51897 20.8806C9.58608 20.8333 9.64648 20.7861 9.70688 20.7388L9.74715 20.7118L9.80755 20.6646L9.82097 20.6511C10.0894 20.4554 10.3512 20.2732 10.5995 20.0977C11.6666 19.3486 12.8075 18.721 14.0222 18.2216V15.1644C14.0222 13.6324 15.2571 12.3907 16.7805 12.3907C18.304 12.3907 19.5388 13.6324 19.5388 15.1644C19.5388 15.1846 19.5388 15.2049 19.5321 15.2251V16.8853C19.559 16.8853 19.5858 16.8786 19.6126 16.8786C20.069 16.8381 20.5187 16.8178 20.9482 16.8178H20.9683C23.5186 16.8178 25.9145 17.5534 27.9144 18.9369C28.9412 19.6185 30.2499 20.6646 31.3707 22.1088C31.3774 22.0886 31.3774 22.0751 31.3774 22.0548C31.4445 21.6634 31.4982 21.1842 31.5318 20.6174C31.7063 17.9179 30.7466 15.7988 29.5117 14.2196C29.3372 13.9631 29.2164 13.8484 29.2164 13.8484V13.8416C29.1493 13.7742 29.0822 13.7067 29.0218 13.6392C29.0151 13.6324 29.0016 13.6189 28.9949 13.6054C28.5184 13.0723 28.1762 12.4379 27.948 11.9048C27.8272 11.6281 27.7399 11.3716 27.6728 11.1759C27.6325 11.0274 27.5923 10.8992 27.5654 10.8182L27.9345 10.3256C27.9345 10.3256 27.6258 10.2108 27.0889 10.1366V9.36048L27.2634 9.20526V8.90157L26.438 8.30093L26.089 2.34181H25.9145L25.5856 8.30093L24.7199 8.90157V9.20526L24.9145 9.38073V10.1501C24.4246 10.2243 24.1427 10.3256 24.1427 10.3256L24.4648 10.7642L24.23 11.3918C23.5521 12.8496 22.1696 13.8821 21.5119 14.314V12.4042H22.3911L22.9414 11.2974C22.9414 11.2974 17.4382 8.08497 17.3778 3.88052H17.0087V1.84915H17.1161V1.17428H17.2637C17.3107 1.10679 17.3375 1.03931 17.3375 0.95832C17.3375 0.951572 17.3375 0.944822 17.3375 0.931325C17.3375 0.931325 17.3375 0.924576 17.3375 0.917827C17.3375 0.911078 17.3375 0.911078 17.3375 0.904329V0.897582C17.3375 0.890833 17.3375 0.884083 17.3375 0.877334C17.3375 0.877334 17.3375 0.870586 17.3308 0.870586C17.3308 0.863838 17.3308 0.85709 17.3241 0.850341V0.843591C17.3241 0.836842 17.3174 0.830093 17.3174 0.816595C17.3174 0.816595 17.3174 0.816596 17.3174 0.809848C17.3107 0.803099 17.3107 0.796351 17.3107 0.789602C17.3107 0.782854 17.304 0.782853 17.304 0.776105C17.304 0.769356 17.2973 0.769355 17.2973 0.762607L17.2906 0.755857C17.2906 0.749108 17.2838 0.74911 17.2838 0.742361L17.2771 0.735611C17.2771 0.728862 17.2704 0.722113 17.2637 0.722113C17.2637 0.722113 17.2637 0.715366 17.257 0.715366C17.2503 0.708617 17.2436 0.701869 17.2369 0.695121L17.2302 0.68837C17.2234 0.68837 17.2234 0.681621 17.2167 0.674873C17.2167 0.668124 17.21 0.668125 17.21 0.668125C17.2033 0.668125 17.2033 0.661376 17.1966 0.654627L17.1899 0.647877C17.1899 0.647877 17.1832 0.641131 17.1765 0.634382C17.1698 0.634382 17.1698 0.627632 17.1698 0.627632C17.163 0.627632 17.1563 0.620883 17.1496 0.614134C17.1429 0.614134 17.1429 0.607385 17.1362 0.600636C17.1295 0.600636 17.1295 0.593889 17.1228 0.593889C17.1161 0.593889 17.1161 0.587138 17.1094 0.587138C17.1026 0.587138 17.1026 0.580391 17.0959 0.580391L17.0892 0.573643H17.0825C16.7604 0.357684 16.7671 0.0944825 16.7671 0.0134978L16.7335 0H16.6798L16.6463 0.0134978C16.6396 0.0944825 16.653 0.350935 16.3309 0.573643H16.3241C16.3241 0.573643 16.3174 0.573642 16.3174 0.580391C16.3174 0.580391 16.3107 0.587138 16.304 0.587138C16.304 0.593887 16.2973 0.593889 16.2906 0.593889C16.2839 0.600637 16.2772 0.600636 16.2772 0.600636C16.2705 0.607385 16.2637 0.607385 16.257 0.614134C16.2503 0.620883 16.2436 0.620883 16.2436 0.627632C16.2436 0.627632 16.2369 0.634382 16.2302 0.634382C16.2302 0.641131 16.2235 0.641128 16.2168 0.647877L16.2101 0.654627C16.2033 0.661376 16.2033 0.661376 16.1966 0.668125C16.1899 0.668125 16.1899 0.674873 16.1899 0.674873C16.1899 0.681621 16.1832 0.681622 16.1765 0.68837L16.1698 0.695121C16.1631 0.701869 16.1564 0.708617 16.1497 0.715366L16.1429 0.722113C16.1362 0.728862 16.1362 0.735611 16.1295 0.735611L16.1228 0.742361C16.1228 0.74911 16.1161 0.749108 16.1161 0.755857L16.1094 0.762607C16.1027 0.769355 16.1027 0.776105 16.1027 0.776105C16.1027 0.782853 16.1027 0.782854 16.096 0.789602C16.096 0.796351 16.0893 0.803099 16.0893 0.809848C16.0893 0.809848 16.0893 0.809846 16.0893 0.816595C16.0825 0.823344 16.0825 0.830093 16.0758 0.843591C16.0758 0.843591 16.0758 0.843592 16.0758 0.850341C16.0758 0.85709 16.0758 0.863838 16.0691 0.870586C16.0691 0.877335 16.0691 0.877334 16.0691 0.877334C16.0691 0.884083 16.0691 0.890833 16.0691 0.897582V0.904329C16.0691 0.911078 16.0691 0.917827 16.0691 0.917827C16.0691 0.924576 16.0691 0.924576 16.0691 0.931325C16.0691 0.938074 16.0691 0.944823 16.0691 0.95832C16.0691 1.03931 16.096 1.11354 16.1429 1.17428H16.2906V1.84915H16.398V3.88052H16.0221C15.9684 8.08497 10.4585 11.2974 10.4585 11.2974L11.0089 12.4042H11.888V16.3319C11.0223 15.6098 9.94178 14.4355 9.92164 13.0655H9.1767C9.14985 15.3534 6.15665 17.0945 6.15665 17.0945L6.45194 17.6952H6.93515V19.6523H6.92844V20.1854C6.88146 21.0695 6.63986 21.1708 6.52576 21.1708C5.82109 21.0223 5.71371 19.794 5.71371 19.794H5.72042C5.72042 19.794 5.96202 19.4566 5.90833 18.9842C5.90833 18.9842 5.7674 18.694 5.29761 18.5725H5.2909L5.27077 18.5657C5.20366 18.5522 5.12983 18.5387 5.0493 18.5253C5.01574 18.5185 4.95534 18.4915 4.95534 18.451V17.8234C4.95534 17.7087 4.97548 17.7694 4.91507 17.6817C4.87481 17.6277 4.84125 17.5804 4.80098 17.5332C4.78756 17.5129 4.77414 17.4994 4.76071 17.4859C4.71374 17.4725 4.66005 17.432 4.68018 17.378C4.68018 17.3712 4.68689 17.3577 4.68689 17.351C4.70703 17.3172 4.72045 17.2767 4.72045 17.2362C4.72045 17.1148 4.61978 17.0135 4.49898 17.0135C4.37818 17.0135 4.27751 17.1148 4.27751 17.2362C4.27751 17.2767 4.29093 17.3105 4.31106 17.3442C4.31106 17.3577 4.31778 17.3712 4.32449 17.3847C4.34462 17.4387 4.28422 17.4792 4.24395 17.4927C4.23053 17.5062 4.21711 17.5264 4.20368 17.5399C4.16342 17.5939 4.12986 17.6412 4.08959 17.6884C4.02248 17.7761 4.04933 17.7154 4.04933 17.8301V18.4578C4.04933 18.4915 3.99564 18.5185 3.96208 18.5253C3.87483 18.532 3.80101 18.5455 3.7339 18.5657L3.70705 18.5725L3.70034 18.5792C3.23056 18.7007 3.08962 18.9909 3.08962 18.9909C3.03593 19.4633 3.27754 19.8008 3.27754 19.8008C3.27754 19.8008 3.27083 20.0505 3.2574 20.3744C3.20371 22.0683 2.33125 23.0739 1.81449 23.5261C1.68027 23.6408 1.29102 23.9175 1.29102 23.9175C1.61315 25.112 2.23059 25.5777 2.65339 25.7599Z" fill="white"/>
<path d="M40.714 22.4258H38.157C37.3852 22.4258 36.6201 22.6755 36.0497 23.2424C35.4792 23.8025 35.1369 24.6529 35.1437 25.7124V32.1574H37.2443V25.7529C37.2778 24.8891 37.6469 24.4437 38.3046 24.4302H39.1771C40.4656 24.3627 40.6804 22.9049 40.714 22.4258Z" fill="white"/>
<path d="M75.1818 23.2154C74.5308 22.5945 73.6315 22.2773 72.6315 22.2773C71.6315 22.2773 70.7255 22.5945 70.0678 23.2154C69.4168 23.8363 69.0477 24.7339 69.0477 25.7867V29.5322H71.1483V25.7057C71.1886 24.7811 71.6315 24.3425 72.6248 24.302C73.6046 24.3425 74.0543 24.7811 74.0878 25.7057V30.2408H68.3564V32.171H76.1884V25.7934C76.2086 24.7339 75.8395 23.8363 75.1818 23.2154Z" fill="white"/>
<path d="M44.9956 22.2773C42.244 22.2773 40.083 24.5584 40.083 27.3051C40.0897 30.0384 42.2507 32.3127 44.9956 32.3127C47.7539 32.3127 49.9351 30.0384 49.9351 27.3051C49.9351 24.5517 47.7606 22.2773 44.9956 22.2773ZM44.9956 30.2206C43.4319 30.2206 42.2172 28.8911 42.2105 27.2984C42.2172 25.6855 43.4319 24.3627 44.9956 24.3627C46.566 24.3627 47.8076 25.6989 47.8076 27.2984C47.8076 28.8843 46.566 30.2206 44.9956 30.2206Z" fill="white"/>
<path d="M54.1953 22.2773C53.2222 22.2773 52.3766 22.608 51.786 23.2222C51.1954 23.8296 50.8867 24.6866 50.8867 25.6315V32.1642H52.9739V28.8843H54.0074C55.692 28.8843 57.5107 27.6021 57.5375 25.5707C57.5375 24.5854 57.1818 23.7351 56.5644 23.1614C55.947 22.5743 55.1081 22.2773 54.1953 22.2773ZM54.994 26.5695C54.6987 26.8125 54.2759 26.961 53.8933 26.9542L52.9672 26.9475V25.5235C52.9873 24.8014 53.4303 24.329 54.2289 24.3087C55.0141 24.3492 55.4302 24.7001 55.4638 25.6045C55.4705 26.0026 55.2893 26.3198 54.994 26.5695Z" fill="white"/>
<path d="M63.1021 22.2773C60.3505 22.2773 58.1895 24.5584 58.1895 27.3051C58.1962 30.0384 60.3572 32.3127 63.1021 32.3127C65.8604 32.3127 68.0415 30.0384 68.0415 27.3051C68.0415 24.5517 65.8604 22.2773 63.1021 22.2773ZM63.1021 30.2206C61.5384 30.2206 60.3169 28.8911 60.3169 27.2984C60.3236 25.6855 61.5384 24.3627 63.1021 24.3627C64.6725 24.3627 65.9141 25.6989 65.9141 27.2984C65.9141 28.8843 64.6725 30.2206 63.1021 30.2206Z" fill="white"/>
</svg>
