<svg width="19" height="22" viewBox="0 0 19 22" fill="none" xmlns="http://www.w3.org/2000/svg">
<path d="M8.90658 0.144854L0.600519 4.54188C-0.196863 4.96388 -0.196863 6.04357 0.600519 6.46557C1.63878 7.0152 7.86832 10.313 8.90658 10.8626C9.27086 11.0557 9.7277 11.0557 10.0932 10.8626L18.3992 6.46557C19.1966 6.04357 19.1966 4.96388 18.3992 4.54188L10.0932 0.144854C9.72888 -0.0482848 9.27205 -0.0482848 8.90658 0.144854ZM0.897164 9.93504C0.604079 10.0091 0.318113 10.1868 0.155551 10.4504C-0.169572 10.9775 0.0321469 11.6607 0.600519 11.9618L8.90658 16.3589C9.27086 16.552 9.7277 16.552 10.0932 16.3589L18.3992 11.9618C18.9688 11.6607 19.1693 10.9775 18.8442 10.4504C18.5191 9.92328 17.7822 9.73696 17.2126 10.0382L9.49987 14.1261L1.7871 10.0382C1.50232 9.88755 1.19025 9.86106 0.897164 9.93504ZM0.897164 15.4313C0.604079 15.5054 0.318113 15.683 0.155551 15.9466C-0.169572 16.4737 0.0321469 17.1569 0.600519 17.4581L8.90658 21.8551C9.27086 22.0483 9.7277 22.0483 10.0932 21.8551L18.3992 17.4581C18.9688 17.1569 19.1693 16.4737 18.8442 15.9466C18.5191 15.4196 17.7822 15.2332 17.2126 15.5344L9.49987 19.6223L1.7871 15.5344C1.50232 15.3838 1.19025 15.3573 0.897164 15.4313Z" fill="currentColor"/>
</svg>
