<svg width="20" height="20" viewBox="0 0 20 20" fill="none" xmlns="http://www.w3.org/2000/svg">
<path d="M15.7143 0H4.28571C1.91878 0 0 1.91878 0 4.28571V15.7143C0 18.0812 1.91878 20 4.28571 20H15.7143C18.0812 20 20 18.0812 20 15.7143V4.28571C20 1.91878 18.0812 0 15.7143 0Z" fill="#503872"/>
<path d="M7.5 6.47945V6.97945C7.67676 6.97945 7.84038 6.88613 7.93036 6.73398L7.5 6.47945ZM8.375 5V4.5C8.19824 4.5 8.03462 4.59333 7.94464 4.74547L8.375 5ZM11.625 5L12.0554 4.74547C11.9654 4.59333 11.8018 4.5 11.625 4.5V5ZM12.5 6.47945L12.0696 6.73398C12.1596 6.88613 12.3232 6.97945 12.5 6.97945V6.47945ZM5.5 12.7671V7.71233H4.5V12.7671H5.5ZM6.25 6.97945H7.5V5.97945H6.25V6.97945ZM7.93036 6.73398L8.80536 5.25453L7.94464 4.74547L7.06964 6.22492L7.93036 6.73398ZM8.375 5.5H11.625V4.5H8.375V5.5ZM11.1946 5.25453L12.0696 6.73398L12.9304 6.22492L12.0554 4.74547L11.1946 5.25453ZM12.5 6.97945H13.75V5.97945H12.5V6.97945ZM14.5 7.71233V12.7671H15.5V7.71233H14.5ZM14.5 12.7671C14.5 13.1654 14.1707 13.5 13.75 13.5V14.5C14.71 14.5 15.5 13.7306 15.5 12.7671H14.5ZM13.75 6.97945C14.1707 6.97945 14.5 7.31405 14.5 7.71233H15.5C15.5 6.74881 14.71 5.97945 13.75 5.97945V6.97945ZM5.5 7.71233C5.5 7.31405 5.82926 6.97945 6.25 6.97945V5.97945C5.29003 5.97945 4.5 6.74881 4.5 7.71233H5.5ZM6.25 13.5C5.82926 13.5 5.5 13.1654 5.5 12.7671H4.5C4.5 13.7306 5.29003 14.5 6.25 14.5V13.5ZM11.375 9.93151C11.375 10.6702 10.7659 11.2808 10 11.2808V12.2808C11.3052 12.2808 12.375 11.2355 12.375 9.93151H11.375ZM10 11.2808C9.23408 11.2808 8.625 10.6702 8.625 9.93151H7.625C7.625 11.2355 8.69485 12.2808 10 12.2808V11.2808ZM8.625 9.93151C8.625 9.19278 9.23408 8.58219 10 8.58219V7.58219C8.69485 7.58219 7.625 8.62754 7.625 9.93151H8.625ZM10 8.58219C10.7659 8.58219 11.375 9.19278 11.375 9.93151H12.375C12.375 8.62754 11.3052 7.58219 10 7.58219V8.58219ZM13.75 13.5H6.25V14.5H13.75V13.5Z" fill="white"/>
</svg>
