<svg width="24" height="24" viewBox="0 0 24 24" fill="none" xmlns="http://www.w3.org/2000/svg">
<path fill-rule="evenodd" clip-rule="evenodd" d="M11.8783 8.34234C10.6217 8.34234 9.60309 9.36099 9.60309 10.6175C9.60309 11.8741 10.6217 12.8927 11.8783 12.8927C13.1348 12.8927 14.1535 11.8741 14.1535 10.6175C14.1535 9.36099 13.1348 8.34234 11.8783 8.34234ZM8.16309 10.6175C8.16309 8.5657 9.82644 6.90234 11.8783 6.90234C13.9301 6.90234 15.5935 8.5657 15.5935 10.6175C15.5935 12.6694 13.9301 14.3327 11.8783 14.3327C9.82644 14.3327 8.16309 12.6694 8.16309 10.6175Z" fill="currentColor"/>
<path fill-rule="evenodd" clip-rule="evenodd" d="M11.8818 3.35992C8.60172 3.35771 5.39353 5.26103 4.53603 9.0296C3.52126 13.513 6.29923 17.401 8.91245 19.9197C10.5737 21.5145 13.1849 21.5125 14.8347 19.9203L14.836 19.919C17.4586 17.4005 20.2361 13.5219 19.2212 9.03889L19.2212 9.03886C18.3682 5.27004 15.1621 3.36214 11.8818 3.35992ZM20.6257 8.72095C19.5971 4.1762 15.7041 1.92251 11.8828 1.91992C8.06135 1.91734 4.16566 4.16587 3.13181 8.71062L3.13164 8.71135C1.93865 13.9813 5.22759 18.3682 7.91343 20.9567L7.91434 20.9576C10.1314 23.0868 13.625 23.0887 15.8343 20.9567C18.5299 18.368 21.8187 13.9909 20.6257 8.72095Z" fill="currentColor"/>
</svg>
