<svg width="76" height="76" viewBox="0 0 76 76" fill="none" xmlns="http://www.w3.org/2000/svg">
<path d="M59.4286 0.5H16.5714C7.69542 0.5 0.5 7.69542 0.5 16.5714V59.4286C0.5 68.3046 7.69542 75.5 16.5714 75.5H59.4286C68.3046 75.5 75.5 68.3046 75.5 59.4286V16.5714C75.5 7.69542 68.3046 0.5 59.4286 0.5Z" fill="#503872"/>
<path d="M36.51 37.7251C32.8584 37.7251 29.2213 37.7251 25.5646 37.7251C25.5646 34.0397 25.5646 30.3741 25.5646 26.6855C29.212 26.6855 32.8491 26.6855 36.51 26.6855C36.51 30.3585 36.51 34.0345 36.51 37.7251ZM34.5519 35.7491C34.5519 33.3699 34.5519 31.023 34.5519 28.671C32.1992 28.671 29.864 28.671 27.535 28.671C27.535 31.0439 27.535 33.3897 27.535 35.7491C29.8795 35.7491 32.1992 35.7491 34.5519 35.7491Z" fill="white"/>
<path d="M50.5479 40.4941C50.5479 44.1785 50.5479 47.8452 50.5479 51.5306C46.8985 51.5306 43.2614 51.5306 39.6067 51.5306C39.6067 47.8493 39.6067 44.1827 39.6067 40.4941C43.2562 40.4941 46.8923 40.4941 50.5479 40.4941ZM48.5785 49.5556C48.5785 47.1785 48.5785 44.8327 48.5785 42.4785C46.2289 42.4785 43.904 42.4785 41.5761 42.4785C41.5761 44.8504 41.5761 47.1962 41.5761 49.5556C43.9154 49.5556 46.2341 49.5556 48.5785 49.5556Z" fill="white"/>
<path d="M34.6749 42.4519C33.6747 42.4519 32.6869 42.4519 31.6588 42.4519C31.6588 41.8196 31.6547 41.2196 31.666 40.6196C31.6671 40.5696 31.7735 40.479 31.8314 40.479C33.4309 40.4717 35.0304 40.4727 36.6474 40.4727C36.6474 44.2737 36.6474 48.0394 36.6474 51.8321C36.012 51.8321 35.3775 51.8321 34.71 51.8321C34.71 50.4904 34.71 49.156 34.71 47.78C34.0746 47.78 33.4712 47.78 32.8512 47.78C32.8512 47.106 32.8512 46.4737 32.8512 45.8112C33.4557 45.8112 34.0508 45.8112 34.6739 45.8112C34.6749 44.6915 34.6749 43.5998 34.6749 42.4519Z" fill="white"/>
<path d="M48.5228 28.6965C47.63 28.6965 46.7921 28.6965 45.9148 28.6965C45.9148 29.2111 45.9148 29.71 45.9148 30.2319C45.2484 30.2319 44.6222 30.2319 43.9681 30.2319C43.9681 29.0694 43.9681 27.91 43.9681 26.7246C46.1256 26.7246 48.2893 26.7246 50.4705 26.7246C50.4705 28.5673 50.4705 30.3996 50.4705 32.2538C49.8278 32.2538 49.1923 32.2538 48.5228 32.2538C48.5228 31.0663 48.5228 29.8954 48.5228 28.6965Z" fill="white"/>
<path d="M44.091 35.7599C44.091 35.013 44.091 34.2932 44.091 33.5547C44.7595 33.5547 45.3867 33.5547 46.0542 33.5547C46.0542 34.2766 46.0542 34.9974 46.0542 35.7474C46.9945 35.7474 47.8945 35.7474 48.8223 35.7474C48.8223 36.4182 48.8223 37.0578 48.8223 37.7203C45.8393 37.7203 42.8583 37.7203 39.8546 37.7203C39.8546 37.0724 39.8546 36.4307 39.8546 35.7599C41.2671 35.7599 42.6589 35.7599 44.091 35.7599Z" fill="white"/>
<path d="M25.6204 51.8418C25.6204 51.7064 25.6204 51.6085 25.6204 51.5116C25.6204 49.4033 25.6245 47.2939 25.6152 45.1855C25.6142 44.921 25.6741 44.8241 25.9552 44.8283C27.0443 44.8439 28.1333 44.8345 29.2234 44.8355C29.3195 44.8355 29.4146 44.846 29.5293 44.8533C29.5293 45.5043 29.5293 46.1355 29.5293 46.8158C29.0147 46.8158 28.5053 46.8345 27.999 46.8085C27.6787 46.7918 27.5702 46.8699 27.5754 47.2189C27.5971 48.6241 27.5847 50.0303 27.5847 51.4355C27.5847 51.5647 27.5847 51.6928 27.5847 51.8408C26.9203 51.8418 26.2941 51.8418 25.6204 51.8418Z" fill="white"/>
<path d="M25.6173 40.4844C26.7942 40.4844 27.937 40.4844 29.1077 40.4844C29.1077 41.1302 29.1077 41.7698 29.1077 42.4313C27.9515 42.4313 26.7921 42.4313 25.6173 42.4313C25.6173 41.7833 25.6173 41.151 25.6173 40.4844Z" fill="white"/>
<path d="M39.7523 26.6855C40.3929 26.6855 41.0201 26.6855 41.6721 26.6855C41.6721 27.4126 41.6721 28.1397 41.6721 28.8876C41.0398 28.8876 40.4064 28.8876 39.7523 28.8876C39.7523 28.1553 39.7523 27.4293 39.7523 26.6855Z" fill="white"/>
<path d="M39.7523 31.0977C40.4033 31.0977 41.0305 31.0977 41.6783 31.0977C41.6783 31.832 41.6783 32.5518 41.6783 33.2977C41.0429 33.2977 40.4074 33.2977 39.7523 33.2977C39.7523 32.5716 39.7523 31.8518 39.7523 31.0977Z" fill="white"/>
<path d="M31.667 51.7496C31.0253 51.7496 30.3971 51.7496 29.7451 51.7496C29.7451 51.0517 29.7451 50.3548 29.7451 49.6309C30.3785 49.6309 31.014 49.6309 31.667 49.6309C31.667 50.335 31.667 51.0329 31.667 51.7496Z" fill="white"/>
<path d="M31.9966 33.2241C31.3446 33.2241 30.7195 33.2241 30.0747 33.2241C30.0747 32.5408 30.0747 31.8772 30.0747 31.1855C30.705 31.1855 31.3384 31.1855 31.9966 31.1855C31.9966 31.8512 31.9966 32.5241 31.9966 33.2241Z" fill="white"/>
<path d="M46.045 44.9961C46.045 45.6898 46.045 46.3544 46.045 47.0378C45.4023 47.0378 44.7772 47.0378 44.1241 47.0378C44.1241 46.3628 44.1241 45.6919 44.1241 44.9961C44.7565 44.9961 45.3816 44.9961 46.045 44.9961Z" fill="white"/>
<path d="M28.9526 19V21.3958H20.3765V30.0417H18V19H28.9526Z" fill="white"/>
<path d="M46.7249 19V21.3958H55.301V30.0417H57.6775V19H46.7249Z" fill="white"/>
<path d="M28.9526 58.9987V56.6029H20.3765V47.957H18V58.9987H28.9526Z" fill="white"/>
<path d="M46.7249 58.9987V56.6029H55.301V47.957H57.6775V58.9987H46.7249Z" fill="white"/>
</svg>
