<svg width="29" height="31" viewBox="0 0 29 31" fill="none" xmlns="http://www.w3.org/2000/svg">
<path d="M7.36651 9.41106H5.25729L3.22658 27.8647H25.7749L23.7442 9.41106H22.4059V6.27581H23.7674C25.4002 6.27581 26.7707 7.47323 26.9437 9.05325L28.9816 27.5583C29.1832 29.3969 27.7021 31 25.8053 31H3.19446C1.2958 31 -0.181724 29.3969 0.0181346 27.5601L2.05598 9.05325C2.23086 7.47146 3.60132 6.27227 5.23231 6.27227H7.37365C7.5396 2.78276 10.4982 0 14.126 0C17.8573 0 20.8837 2.94572 20.8837 6.58048V12.3621H17.6592V9.40929H12.6574V6.27404H17.6467C17.4861 4.51511 15.9694 3.13702 14.1242 3.13702C12.1703 3.13702 10.5875 4.67807 10.5875 6.58048V12.3621H7.36473V9.40929L7.36651 9.41106Z" fill="#503872"/>
</svg>
