<svg width="20" height="20" viewBox="0 0 20 20" fill="none" xmlns="http://www.w3.org/2000/svg">
<path d="M15.7143 0H4.28571C1.91878 0 0 1.91878 0 4.28571V15.7143C0 18.0812 1.91878 20 4.28571 20H15.7143C18.0812 20 20 18.0812 20 15.7143V4.28571C20 1.91878 18.0812 0 15.7143 0Z" fill="#503872"/>
<path d="M7.79419 7.33941H6.99414L6.22388 13.8875H14.7767L14.0064 7.33941H13.4988V6.2269H14.0152C14.6346 6.2269 15.1544 6.65179 15.22 7.21244L15.993 13.7788C16.0695 14.4312 15.5077 15 14.7882 15H6.21169C5.49151 15 4.93107 14.4312 5.00688 13.7794L5.77985 7.21244C5.84619 6.65116 6.36602 6.22564 6.98467 6.22564H7.7969C7.85985 4.98743 8.98209 4 10.3581 4C11.7735 4 12.9214 5.04525 12.9214 6.33501V8.38655H11.6983V7.33878H9.80109V6.22627H11.6936C11.6327 5.60214 11.0573 5.11314 10.3575 5.11314C9.61631 5.11314 9.01593 5.65996 9.01593 6.33501V8.38655H7.79352V7.33878L7.79419 7.33941Z" fill="white"/>
</svg>
