<svg width="30" height="30" viewBox="0 0 30 30" fill="none" xmlns="http://www.w3.org/2000/svg">
<rect width="30" height="30" rx="15" fill="#503872"/>
<path d="M15 22.5C19.1421 22.5 22.5 19.1421 22.5 15C22.5 10.8579 19.1421 7.5 15 7.5M15 22.5C10.8579 22.5 7.5 19.1421 7.5 15C7.5 10.8579 10.8579 7.5 15 7.5M15 22.5C13.1878 22.5 11.7187 19.1421 11.7187 15C11.7187 10.8579 13.1878 7.5 15 7.5M15 22.5C16.8122 22.5 18.2812 19.1421 18.2812 15C18.2812 10.8579 16.8122 7.5 15 7.5M8.90625 18.6453C10.2803 17.8585 12.5631 17.3437 15.147 17.3437C17.8437 17.3437 20.2125 17.9045 21.5625 18.75M8.90625 11.3547C10.2803 12.1415 12.5631 12.6562 15.147 12.6562C17.8437 12.6562 20.2125 12.0955 21.5625 11.25" stroke="white"/>
</svg>
