<svg width="45" height="46" viewBox="0 0 45 46" fill="none" xmlns="http://www.w3.org/2000/svg">
<path d="M35.3571 0.300781H9.64286C4.31725 0.300781 0 4.61804 0 9.94364V35.6579C0 40.9835 4.31725 45.3008 9.64286 45.3008H35.3571C40.6827 45.3008 45 40.9835 45 35.6579V9.94364C45 4.61804 40.6827 0.300781 35.3571 0.300781Z" fill="#503872"/>
<path d="M33.9993 14.8856C33.871 15.5149 33.7386 16.1442 33.6136 16.7742C32.8748 20.5078 32.1379 24.2421 31.4004 27.9764C31.2374 28.802 31.0725 29.6277 30.9102 30.4534C30.5963 32.0495 29.2164 32.5534 27.9714 31.5252C26.1046 29.9836 24.2439 28.4352 22.3658 26.9086C22.0938 26.6877 22.0166 26.5023 22.1257 26.1648C22.2088 25.9077 22.3059 25.6882 22.4888 25.4891C24.7154 23.0735 26.9359 20.6517 29.1578 18.2319C29.1924 18.1944 29.2277 18.1583 29.2609 18.1194C29.5037 17.8385 29.5356 17.4997 29.3447 17.2358C29.1485 16.9638 28.812 16.8963 28.4795 17.0688C27.7978 17.4233 27.1175 17.7819 26.4365 18.1385C22.9617 19.9583 19.4868 21.7773 16.0147 23.6019C15.875 23.6755 15.7546 23.6823 15.6096 23.6387C14.8282 23.4035 14.0395 23.1914 13.2647 22.9364C12.9648 22.8382 12.6609 22.691 12.4141 22.4939C11.8774 22.0637 11.8675 21.3533 12.3835 20.8951C12.6003 20.7028 12.865 20.546 13.1337 20.4403C19.3106 18.0137 25.4895 15.5947 31.6724 13.1838C31.9537 13.074 32.2676 13.0099 32.5688 13.0024C33.2379 12.9854 33.7586 13.4197 33.9368 14.0824C33.9574 14.1595 33.9787 14.2358 34 14.3129C33.9993 14.5045 33.9993 14.6947 33.9993 14.8856Z" fill="white"/>
<path d="M25.7328 20.0326C25.6517 20.1213 25.5706 20.2092 25.4894 20.2979C24.0875 21.8258 22.6816 23.3496 21.2884 24.8858C21.1501 25.0385 21.0397 25.2478 20.9891 25.4503C20.5475 27.2319 20.1232 29.0169 19.693 30.8011C19.6797 30.8564 19.661 30.9109 19.6391 30.9866C19.3817 30.7343 19.246 30.4316 19.1376 30.1132C18.6934 28.8144 18.2511 27.5148 17.8076 26.216C17.6094 25.6358 17.4112 25.0555 17.207 24.4562C20.0448 22.9699 22.8778 21.4863 25.7109 20.002C25.7182 20.0122 25.7255 20.0224 25.7328 20.0326Z" fill="white"/>
<path d="M20.8438 31.5329C21.1271 30.3568 21.403 29.21 21.687 28.0332C22.3308 28.5643 22.9513 29.0771 23.5924 29.6061C23.3909 29.797 23.204 29.9736 23.0171 30.1509C22.7391 30.4141 22.4611 30.6779 22.1818 30.9398C21.8812 31.2213 21.5427 31.4313 21.1364 31.5063C21.0479 31.5227 20.9568 31.5234 20.8438 31.5329Z" fill="white"/>
</svg>
