<svg width="36" height="36" viewBox="0 0 36 36" fill="none" xmlns="http://www.w3.org/2000/svg">
<path d="M28.9954 9.88364C28.8671 10.513 28.7347 11.1423 28.6097 11.7723C27.8708 15.5059 27.134 19.2401 26.3965 22.9744C26.2335 23.8001 26.0686 24.6257 25.9063 25.4514C25.5924 27.0475 24.2125 27.5514 22.9675 26.5232C21.1007 24.9817 19.24 23.4333 17.3619 21.9067C17.0899 21.6858 17.0127 21.5003 17.1218 21.1628C17.2049 20.9058 17.302 20.6862 17.4849 20.4872C19.7115 18.0715 21.932 15.6497 24.1539 13.23C24.1885 13.1925 24.2238 13.1563 24.257 13.1175C24.4998 12.8366 24.5317 12.4977 24.3408 12.2338C24.1446 11.9618 23.8081 11.8943 23.4756 12.0668C22.7939 12.4213 22.1136 12.78 21.4326 13.1366C17.9578 14.9563 14.4829 16.7754 11.0108 18.5999C10.8711 18.6735 10.7507 18.6804 10.6057 18.6367C9.82432 18.4015 9.03558 18.1895 8.26081 17.9345C7.96088 17.8363 7.65696 17.689 7.41023 17.492C6.87354 17.0617 6.86356 16.3513 7.37964 15.8931C7.59644 15.7009 7.86112 15.544 8.1298 15.4384C14.3067 13.0118 20.4856 10.5927 26.6685 8.18185C26.9498 8.07207 27.2637 8.00798 27.5649 8.00048C28.234 7.98344 28.7547 8.41775 28.9329 9.08047C28.9535 9.15752 28.9748 9.23388 28.9961 9.31092C28.9954 9.50251 28.9954 9.69274 28.9954 9.88364Z" fill="white"/>
<path d="M20.7289 15.0307C20.6478 15.1193 20.5667 15.2073 20.4855 15.2959C19.0836 16.8238 17.6777 18.3477 16.2845 19.8838C16.1461 20.0365 16.0358 20.2459 15.9852 20.4483C15.5436 22.2299 15.1193 24.0149 14.689 25.7992C14.6757 25.8544 14.6571 25.909 14.6352 25.9846C14.3778 25.7324 14.2421 25.4297 14.1337 25.1112C13.6895 23.8124 13.2472 22.5129 12.8037 21.214C12.6055 20.6338 12.4073 20.0536 12.2031 19.4543C15.0409 17.9679 17.8739 16.4843 20.707 15C20.7143 15.0102 20.7216 15.0205 20.7289 15.0307Z" fill="white"/>
<path d="M15.8398 26.531C16.1232 25.3549 16.3991 24.2081 16.6831 23.0312C17.3269 23.5624 17.9474 24.0751 18.5885 24.6042C18.3869 24.7951 18.2001 24.9717 18.0132 25.149C17.7352 25.4121 17.4572 25.676 17.1779 25.9378C16.8773 26.2194 16.5388 26.4294 16.1325 26.5044C16.044 26.5208 15.9529 26.5214 15.8398 26.531Z" fill="white"/>
</svg>
