<svg width="30" height="30" viewBox="0 0 30 30" fill="none" xmlns="http://www.w3.org/2000/svg">
<circle cx="15" cy="15" r="14.5" stroke="white"/>
<path d="M21.8128 9.27862C21.7201 9.7257 21.6245 10.1728 21.5342 10.6203C21.0004 13.2728 20.468 15.9257 19.9352 18.5786C19.8174 19.1652 19.6983 19.7518 19.581 20.3384C19.3543 21.4723 18.3573 21.8302 17.4579 21.0998C16.1092 20.0046 14.7648 18.9046 13.408 17.8201C13.2115 17.6631 13.1557 17.5314 13.2345 17.2916C13.2946 17.109 13.3647 16.9531 13.4969 16.8116C15.1055 15.0955 16.7098 13.375 18.315 11.6559C18.34 11.6293 18.3655 11.6036 18.3895 11.576C18.5649 11.3764 18.5879 11.1357 18.45 10.9483C18.3083 10.755 18.0652 10.707 17.8249 10.8296C17.3325 11.0815 16.8409 11.3362 16.3489 11.5896C13.8385 12.8824 11.328 14.1747 8.81951 15.4709C8.71861 15.5232 8.63164 15.528 8.5269 15.497C7.96235 15.3299 7.39252 15.1793 6.83277 14.9981C6.61608 14.9284 6.3965 14.8237 6.21825 14.6838C5.83051 14.3781 5.8233 13.8734 6.19615 13.5479C6.35278 13.4113 6.54401 13.2999 6.73812 13.2248C11.2007 11.5009 15.6647 9.78237 20.1317 8.06962C20.3349 7.99163 20.5617 7.9461 20.7793 7.94077C21.2627 7.92866 21.6389 8.23721 21.7677 8.70802C21.7826 8.76276 21.7979 8.81701 21.8133 8.87174C21.8128 9.00785 21.8128 9.14299 21.8128 9.27862Z" fill="white"/>
<path d="M15.8412 12.9359C15.7826 12.9988 15.724 13.0613 15.6654 13.1243C14.6526 14.2098 13.6369 15.2923 12.6303 16.3836C12.5303 16.4921 12.4506 16.6408 12.4141 16.7847C12.095 18.0504 11.7885 19.3185 11.4776 20.5861C11.468 20.6253 11.4546 20.6641 11.4387 20.7178C11.2528 20.5386 11.1548 20.3235 11.0764 20.0973C10.7555 19.1746 10.436 18.2514 10.1155 17.3287C9.97232 16.9165 9.82914 16.5043 9.68164 16.0785C11.7318 15.0225 13.7786 13.9685 15.8254 12.9141C15.8307 12.9213 15.836 12.9286 15.8412 12.9359Z" fill="white"/>
<path d="M12.3086 21.1045C12.5133 20.2689 12.7127 19.4542 12.9178 18.6182C13.3829 18.9955 13.8312 19.3597 14.2944 19.7356C14.1488 19.8712 14.0138 19.9967 13.8788 20.1226C13.6779 20.3096 13.4771 20.4971 13.2753 20.6831C13.0581 20.8831 12.8136 21.0323 12.52 21.0856C12.4561 21.0972 12.3903 21.0977 12.3086 21.1045Z" fill="white"/>
</svg>
