<svg width="11" height="12" viewBox="0 0 11 12" fill="none" xmlns="http://www.w3.org/2000/svg">
<path d="M7.21689 7.72434C7.47886 7.81167 7.76202 7.67009 7.84934 7.40811C7.93667 7.14614 7.79509 6.86298 7.53311 6.77566L7.21689 7.72434ZM5.5 6.625H5C5 6.84022 5.13771 7.03128 5.34189 7.09934L5.5 6.625ZM6 4.01159C6 3.73545 5.77614 3.51159 5.5 3.51159C5.22386 3.51159 5 3.73545 5 4.01159H6ZM7.53311 6.77566L5.65811 6.15066L5.34189 7.09934L7.21689 7.72434L7.53311 6.77566ZM6 6.625V4.01159H5V6.625H6ZM10 6C10 8.48528 7.98528 10.5 5.5 10.5V11.5C8.53757 11.5 11 9.03757 11 6H10ZM5.5 10.5C3.01472 10.5 1 8.48528 1 6H0C0 9.03757 2.46243 11.5 5.5 11.5V10.5ZM1 6C1 3.51472 3.01472 1.5 5.5 1.5V0.5C2.46243 0.5 0 2.96243 0 6H1ZM5.5 1.5C7.98528 1.5 10 3.51472 10 6H11C11 2.96243 8.53757 0.5 5.5 0.5V1.5Z" fill="currentColor"/>
</svg>
