<svg width="20" height="20" viewBox="0 0 20 20" fill="none" xmlns="http://www.w3.org/2000/svg">
<path d="M15.7143 0H4.28571C1.91878 0 0 1.91878 0 4.28571V15.7143C0 18.0812 1.91878 20 4.28571 20H15.7143C18.0812 20 20 18.0812 20 15.7143V4.28571C20 1.91878 18.0812 0 15.7143 0Z" fill="#503872"/>
<path fill-rule="evenodd" clip-rule="evenodd" d="M11.968 5.97794L14.9097 5.1297V13.0062L11.8089 13.8808L8.31178 13.0143C8.22035 12.9919 8.12454 12.9938 8.03407 13.0197L5.091 13.8558V5.98064L8.19041 5.11751L11.6875 5.98403C11.7801 6.00679 11.8765 6.00469 11.968 5.97794ZM16 4.99905C16.0012 4.84667 15.9668 4.69606 15.8995 4.55894C15.8322 4.42183 15.7337 4.3019 15.6118 4.20849C15.4898 4.11508 15.3477 4.05071 15.1964 4.0204C15.0451 3.99008 14.8888 3.99463 14.7396 4.03369L11.8075 4.8799L8.31178 4.01609C8.22139 3.99354 8.1266 3.99471 8.03681 4.01948L4.40049 5.03154C4.28441 5.06484 4.18249 5.13461 4.11022 5.23027C4.03795 5.32594 3.99926 5.44226 4.00003 5.5616V13.9864C3.99876 14.1386 4.03304 14.2891 4.10021 14.4261C4.16738 14.5631 4.26564 14.683 4.38735 14.7764C4.50906 14.8699 4.65095 14.9344 4.802 14.9649C4.95305 14.9954 5.1092 14.9912 5.25831 14.9525L8.19178 14.1184L11.6882 14.9843C11.7794 15.0067 11.8749 15.0051 11.9652 14.9795L15.6016 13.9533C15.7172 13.9196 15.8185 13.8498 15.8904 13.7543C15.9623 13.6588 16.0007 13.5428 16 13.4239V4.99905ZM6.04208 9.63355C6.08397 9.59126 6.134 9.55765 6.18923 9.53471C6.24445 9.51177 6.30376 9.49996 6.36368 9.49996C6.42359 9.49996 6.48291 9.51177 6.53813 9.53471C6.59336 9.55765 6.64338 9.59126 6.68528 9.63355C6.7713 9.72011 6.81949 9.83654 6.81949 9.95781C6.81949 10.0791 6.7713 10.1955 6.68528 10.2821C6.64338 10.3244 6.59336 10.358 6.53813 10.3809C6.48291 10.4038 6.42359 10.4157 6.36368 10.4157C6.30376 10.4157 6.24445 10.4038 6.18923 10.3809C6.134 10.358 6.08397 10.3244 6.04208 10.2821C5.95622 10.1954 5.90815 10.079 5.90815 9.95781C5.90815 9.8366 5.95622 9.7202 6.04208 9.63355ZM13.3147 8.71694C13.3566 8.67465 13.4066 8.64105 13.4619 8.6181C13.5171 8.59516 13.5764 8.58335 13.6363 8.58335C13.6962 8.58335 13.7556 8.59516 13.8108 8.6181C13.866 8.64105 13.916 8.67465 13.9579 8.71694C14.0438 8.80359 14.0919 8.91999 14.0919 9.0412C14.0919 9.16242 14.0438 9.27882 13.9579 9.36547C13.916 9.40776 13.866 9.44136 13.8108 9.4643C13.7556 9.48724 13.6962 9.49906 13.6363 9.49906C13.5764 9.49906 13.5171 9.48724 13.4619 9.4643C13.4066 9.44136 13.3566 9.40776 13.3147 9.36547C13.2287 9.2789 13.1805 9.16247 13.1805 9.0412C13.1805 8.91993 13.2287 8.8035 13.3147 8.71694ZM6.95133 11.4674C6.99321 11.4253 7.0432 11.3917 7.09836 11.3689C7.15352 11.346 7.21275 11.3342 7.27259 11.3342C7.33242 11.3342 7.39165 11.346 7.44681 11.3689C7.50198 11.3917 7.55196 11.4253 7.59384 11.4674C7.67949 11.5541 7.72744 11.6703 7.72744 11.7914C7.72744 11.9124 7.67949 12.0287 7.59384 12.1153C7.55196 12.1575 7.50198 12.191 7.44681 12.2139C7.39165 12.2368 7.33242 12.2485 7.27259 12.2485C7.21275 12.2485 7.15352 12.2368 7.09836 12.2139C7.0432 12.191 6.99321 12.1575 6.95133 12.1153C6.86568 12.0287 6.81773 11.9124 6.81773 11.7914C6.81773 11.6703 6.86568 11.5541 6.95133 11.4674ZM12.4062 6.88371C12.448 6.84153 12.498 6.80802 12.5532 6.78514C12.6083 6.76226 12.6676 6.75047 12.7274 6.75047C12.7872 6.75047 12.8465 6.76226 12.9016 6.78514C12.9568 6.80802 13.0068 6.84153 13.0487 6.88371C13.1343 6.97034 13.1823 7.08659 13.1823 7.20764C13.1823 7.3287 13.1343 7.44495 13.0487 7.53157C13.0068 7.57386 12.9567 7.60746 12.9015 7.6304C12.8463 7.65334 12.787 7.66516 12.7271 7.66516C12.6672 7.66516 12.6078 7.65334 12.5526 7.6304C12.4974 7.60746 12.4474 7.57386 12.4055 7.53157C12.3198 7.44495 12.2719 7.3287 12.2719 7.20764C12.2719 7.08659 12.3198 6.97034 12.4055 6.88371H12.4062ZM8.76984 8.71694C8.81172 8.67475 8.8617 8.64124 8.91686 8.61836C8.97203 8.59548 9.03126 8.58369 9.09109 8.58369C9.15092 8.58369 9.21016 8.59548 9.26532 8.61836C9.32048 8.64124 9.37047 8.67475 9.41235 8.71694C9.49837 8.8035 9.54656 8.91993 9.54656 9.0412C9.54656 9.16247 9.49837 9.2789 9.41235 9.36547C9.37045 9.40776 9.32043 9.44136 9.2652 9.4643C9.20998 9.48724 9.15066 9.49906 9.09075 9.49906C9.03083 9.49906 8.97152 9.48724 8.9163 9.4643C8.86107 9.44136 8.81104 9.40776 8.76915 9.36547C8.68313 9.2789 8.63494 9.16247 8.63494 9.0412C8.63494 8.91993 8.68313 8.8035 8.76915 8.71694H8.76984ZM10.5877 9.63355C10.6295 9.59136 10.6795 9.55785 10.7347 9.53497C10.7898 9.51209 10.8491 9.5003 10.9089 9.5003C10.9687 9.5003 11.028 9.51209 11.0831 9.53497C11.1383 9.55785 11.1883 9.59136 11.2302 9.63355C11.3162 9.72011 11.3644 9.83654 11.3644 9.95781C11.3644 10.0791 11.3162 10.1955 11.2302 10.2821C11.1883 10.3243 11.1383 10.3578 11.0831 10.3807C11.028 10.4035 10.9687 10.4153 10.9089 10.4153C10.8491 10.4153 10.7898 10.4035 10.7347 10.3807C10.6795 10.3578 10.6295 10.3243 10.5877 10.2821C10.5018 10.1954 10.4537 10.079 10.4537 9.95781C10.4537 9.8366 10.5018 9.7202 10.5877 9.63355ZM12.5392 10.6849C12.7092 10.5129 12.9403 10.4161 13.1817 10.4161C13.4231 10.4161 13.6542 10.5129 13.8249 10.6849C13.995 10.8568 14.0909 11.0897 14.0909 11.3327C14.0909 11.5764 13.995 11.8093 13.8249 11.9813C13.7412 12.066 13.6412 12.1334 13.5307 12.1794C13.4203 12.2254 13.3016 12.2492 13.1817 12.2493C12.9403 12.2493 12.7092 12.1532 12.5392 11.9813C12.3678 11.8078 12.2721 11.575 12.2724 11.3327C12.2724 11.0897 12.3684 10.8568 12.5392 10.6849ZM6.17579 7.01775C6.34585 6.8458 6.57693 6.749 6.8183 6.749C7.05899 6.749 7.29076 6.8458 7.46081 7.01775C7.63249 7.19094 7.72862 7.42363 7.72862 7.66595C7.72862 7.90827 7.63249 8.14095 7.46081 8.31414C7.37725 8.39892 7.27736 8.46637 7.16703 8.51252C7.05669 8.55867 6.93813 8.5826 6.8183 8.5829C6.57693 8.5829 6.34585 8.48609 6.17511 8.31414C6.00399 8.14059 5.90849 7.9078 5.90905 7.66561C5.90905 7.42258 6.00505 7.1897 6.17511 7.01775H6.17579Z" fill="white"/>
</svg>
