<svg width="20" height="20" viewBox="0 0 20 20" fill="none" xmlns="http://www.w3.org/2000/svg">
<path d="M15.7143 0H4.28571C1.91878 0 0 1.91878 0 4.28571V15.7143C0 18.0812 1.91878 20 4.28571 20H15.7143C18.0812 20 20 18.0812 20 15.7143V4.28571C20 1.91878 18.0812 0 15.7143 0Z" fill="#812690"/>
<path d="M9.5554 3.47088C9.57869 3.47644 9.60199 3.482 9.62599 3.48773C10.7339 3.75962 11.7465 4.40623 12.4405 5.31333C12.4521 5.32822 12.4636 5.3431 12.4755 5.35844C12.9369 5.95893 13.238 6.65334 13.4022 7.38933C13.4065 7.40775 13.4108 7.42617 13.4152 7.44515C13.5538 8.06607 13.5428 8.82015 13.4022 9.43938C13.3979 9.45994 13.3936 9.4805 13.3891 9.50167C13.2482 10.1662 12.9749 10.893 12.5242 11.4131C12.4869 11.4607 12.4869 11.4607 12.4986 11.513C12.5219 11.5766 12.5497 11.6078 12.5978 11.6553C12.6144 11.6719 12.6311 11.6885 12.6483 11.7057C12.6753 11.7321 12.6753 11.7321 12.703 11.7591C12.7214 11.7774 12.7398 11.7956 12.7588 11.8145C12.8177 11.8728 12.8768 11.9309 12.936 11.989C12.976 12.0285 13.0159 12.068 13.0559 12.1076C13.1538 12.2045 13.2519 12.3012 13.3502 12.3977C13.4252 12.364 13.4573 12.3421 13.5127 12.2777C13.5896 12.2114 13.636 12.1933 13.738 12.2004C13.8035 12.2193 13.8361 12.2459 13.8864 12.2918C13.9136 12.3166 13.9136 12.3166 13.9413 12.3419C14.0506 12.4457 14.1577 12.5515 14.2642 12.6581C14.2901 12.6839 14.3159 12.7096 14.3418 12.7354C14.4114 12.8047 14.4809 12.8742 14.5504 12.9436C14.6233 13.0165 14.6962 13.0893 14.7692 13.1621C14.8915 13.2841 15.0137 13.4062 15.1359 13.5283C15.2772 13.6696 15.4187 13.8107 15.5602 13.9519C15.6818 14.0732 15.8034 14.1946 15.925 14.316C15.9975 14.3885 16.0701 14.4609 16.1427 14.5333C16.2108 14.6012 16.2788 14.6692 16.3468 14.7372C16.3837 14.7741 16.4207 14.811 16.4577 14.8479C16.4905 14.8807 16.4905 14.8807 16.5239 14.9141C16.5429 14.9332 16.562 14.9522 16.5816 14.9718C16.6516 15.0469 16.6681 15.1147 16.6668 15.2179C16.6458 15.2991 16.6065 15.3383 16.5491 15.3992C16.5278 15.4219 16.5065 15.4446 16.4845 15.4681C16.3786 15.5777 16.272 15.6864 16.1641 15.7939C16.1294 15.8286 16.1294 15.8286 16.094 15.864C16.0333 15.9246 15.9725 15.9851 15.9118 16.0456C15.862 16.0952 15.8124 16.1449 15.7628 16.1946C15.7033 16.2541 15.6437 16.3135 15.5841 16.3729C15.562 16.3951 15.5398 16.4173 15.5169 16.4402C15.4964 16.4606 15.4758 16.4811 15.4546 16.5021C15.4275 16.5292 15.4275 16.5292 15.3999 16.5567C15.311 16.6394 15.2445 16.6701 15.1217 16.6664C15.053 16.6506 15.023 16.6255 14.9713 16.578C14.9532 16.5614 14.935 16.5449 14.9164 16.5278C14.8074 16.4237 14.7001 16.318 14.5936 16.2114C14.5678 16.1857 14.5419 16.1599 14.516 16.1342C14.4465 16.0648 14.3769 15.9953 14.3074 15.9259C14.2345 15.853 14.1616 15.7803 14.0886 15.7075C13.9663 15.5854 13.8441 15.4633 13.7219 15.3412C13.5806 15.1999 13.4391 15.0588 13.2977 14.9177C13.176 14.7963 13.0544 14.6749 12.9328 14.5535C12.8603 14.481 12.7877 14.4086 12.7152 14.3362C12.6471 14.2683 12.579 14.2003 12.511 14.1323C12.4741 14.0954 12.4371 14.0585 12.4001 14.0217C12.3674 13.9889 12.3674 13.9889 12.334 13.9554C12.3149 13.9364 12.2958 13.9173 12.2762 13.8977C12.2042 13.8204 12.1936 13.7534 12.1936 13.6479C12.2183 13.5403 12.3058 13.4772 12.3885 13.4097C12.3541 13.3339 12.3166 13.2793 12.2583 13.2199C12.2425 13.2037 12.2267 13.1875 12.2105 13.1709C12.1934 13.1537 12.1764 13.1366 12.1589 13.1189C12.1413 13.1011 12.1237 13.0834 12.1056 13.0651C12.0685 13.0276 12.0313 12.9903 11.9941 12.953C11.937 12.8957 11.8804 12.8379 11.8238 12.7801C11.7877 12.7438 11.7516 12.7075 11.7154 12.6713C11.69 12.6452 11.69 12.6452 11.6641 12.6185C11.6481 12.6028 11.6322 12.587 11.6157 12.5707C11.6018 12.5567 11.5879 12.5427 11.5735 12.5282C11.5317 12.4959 11.5317 12.4959 11.4782 12.5071C11.3983 12.5387 11.3323 12.59 11.2628 12.6393C10.4158 13.2179 9.44155 13.5004 8.41987 13.4957C8.3981 13.4956 8.37632 13.4956 8.35389 13.4955C8.02937 13.4942 7.71541 13.4829 7.39806 13.4097C7.36312 13.402 7.36312 13.402 7.32748 13.3941C6.16501 13.1316 5.11014 12.4917 4.38297 11.5413C4.37143 11.5265 4.35988 11.5116 4.34798 11.4962C3.85429 10.8537 3.53902 10.1043 3.39527 9.30963C3.39045 9.28319 3.38563 9.25674 3.38067 9.22949C3.33786 8.96737 3.33293 8.70842 3.33354 8.44355C3.33356 8.42071 3.33357 8.39786 3.33359 8.37432C3.33464 8.00297 3.35854 7.64753 3.44726 7.28553C3.45283 7.26228 3.4584 7.23902 3.46414 7.21506C3.74763 6.06355 4.43558 5.02555 5.39666 4.32723C5.41131 4.31651 5.42596 4.30579 5.44105 4.29474C6.01988 3.87644 6.67707 3.59979 7.37206 3.44493C7.39953 3.4385 7.39953 3.4385 7.42755 3.43194C8.09486 3.28212 8.89461 3.30945 9.5554 3.47088ZM7.13813 3.96393C7.12031 3.96884 7.10249 3.97376 7.08413 3.97882C6.43096 4.16488 5.85521 4.50937 5.34468 4.95003C5.31918 4.97181 5.29369 4.99358 5.26741 5.01602C5.13411 5.13265 5.01521 5.25455 4.90281 5.39118C4.87963 5.41828 4.85645 5.44538 4.83327 5.47248C4.38184 6.00851 4.04908 6.65434 3.88912 7.33743C3.8841 7.35755 3.87908 7.37767 3.87391 7.39839C3.71174 8.06834 3.71759 8.85008 3.88912 9.51723C3.89385 9.53582 3.89858 9.55441 3.90345 9.57356C3.93575 9.69561 3.97536 9.81403 4.01908 9.93243C4.02646 9.95266 4.03383 9.97289 4.04142 9.99372C4.24829 10.5541 4.54023 11.035 4.92881 11.4894C4.9465 11.5103 4.96419 11.5312 4.98242 11.5527C5.09456 11.6821 5.21327 11.795 5.34468 11.9046C5.36676 11.9241 5.38884 11.9435 5.41159 11.9635C6.14907 12.6014 7.17189 13.042 8.15447 13.0526C8.17398 13.0529 8.19349 13.0531 8.21359 13.0534C8.64494 13.0578 9.05724 13.052 9.47742 12.9426C9.49651 12.9379 9.5156 12.9332 9.53527 12.9283C10.3564 12.7222 11.0793 12.3051 11.6758 11.7078C11.7134 11.6704 11.7515 11.6335 11.7907 11.5978C12.5212 10.9184 13.0017 9.7832 13.0425 8.79293C13.043 8.75767 13.0434 8.7224 13.0436 8.68714C13.0439 8.65847 13.0439 8.65847 13.0442 8.62922C13.0512 8.04368 13.0512 8.04368 12.9604 7.46718C12.9526 7.43532 12.9526 7.43532 12.9447 7.40281C12.7084 6.45678 12.2176 5.54984 11.4528 4.92408C11.4394 4.91277 11.4259 4.90147 11.412 4.88982C10.2243 3.89348 8.63448 3.54931 7.13813 3.96393ZM12.0667 11.9355C12.0314 11.9716 12.0314 11.9716 11.9954 12.0084C11.9717 12.0325 11.9481 12.0566 11.9237 12.0814C11.9056 12.1002 11.8874 12.1189 11.8687 12.1382C11.9033 12.2148 11.9409 12.2685 12.0005 12.3276C12.0167 12.3437 12.0328 12.3598 12.0494 12.3764C12.0668 12.3935 12.0841 12.4105 12.102 12.4281C12.1198 12.4458 12.1376 12.4635 12.156 12.4818C12.2128 12.5382 12.2698 12.5944 12.3268 12.6507C12.3654 12.689 12.404 12.7273 12.4425 12.7655C12.537 12.8593 12.6317 12.9529 12.7264 13.0464C12.8151 13.0048 12.8725 12.9581 12.9409 12.8875C12.9592 12.8687 12.9776 12.8499 12.9965 12.8305C13.0103 12.8161 13.0241 12.8018 13.0383 12.7869C13.0039 12.7107 12.9664 12.6566 12.9073 12.5975C12.8913 12.5814 12.8754 12.5653 12.8589 12.5487C12.8418 12.5317 12.8246 12.5146 12.8068 12.497C12.7892 12.4793 12.7715 12.4616 12.7532 12.4434C12.7159 12.406 12.6785 12.3688 12.641 12.3316C12.5835 12.2745 12.5263 12.217 12.469 12.1596C12.4328 12.1234 12.3964 12.0872 12.3601 12.051C12.3343 12.0251 12.3343 12.0251 12.308 11.9987C12.292 11.9829 12.2761 11.9671 12.2596 11.9509C12.2456 11.9369 12.2316 11.9229 12.2171 11.9085C12.1487 11.8526 12.1296 11.8778 12.0667 11.9355ZM13.6214 12.7955C13.6053 12.8116 13.5893 12.8277 13.5727 12.8444C13.5545 12.8625 13.5363 12.8807 13.5176 12.8995C13.4979 12.9193 13.4783 12.9392 13.4581 12.9597C13.4379 12.9798 13.4178 13 13.3971 13.0208C13.3326 13.0854 13.2683 13.1503 13.204 13.2151C13.1605 13.2589 13.1169 13.3026 13.0733 13.3464C12.9662 13.4539 12.8592 13.5615 12.7524 13.6692C12.7895 13.7535 12.8344 13.8094 12.8995 13.8742C12.9291 13.9039 12.9291 13.9039 12.9593 13.9342C12.981 13.9556 13.0027 13.9771 13.025 13.9992C13.0479 14.022 13.0707 14.0448 13.0942 14.0683C13.1567 14.1307 13.2194 14.1929 13.282 14.2552C13.3476 14.3203 13.4129 14.3855 13.4783 14.4507C13.6021 14.5741 13.7261 14.6974 13.85 14.8207C13.9912 14.9611 14.1322 15.1015 14.2732 15.2421C14.5632 15.531 14.8534 15.8199 15.1437 16.1085C15.2221 16.071 15.2768 16.0339 15.3382 15.9721C15.3554 15.955 15.3725 15.9379 15.3902 15.9202C15.4084 15.9017 15.4267 15.8833 15.4454 15.8642C15.4738 15.8358 15.4738 15.8358 15.5027 15.8069C15.5629 15.7464 15.623 15.6858 15.683 15.6252C15.7239 15.5842 15.7647 15.5432 15.8056 15.5022C15.9057 15.4017 16.0056 15.301 16.1054 15.2003C16.0684 15.1162 16.0235 15.0601 15.9587 14.9953C15.939 14.9755 15.9193 14.9558 15.8991 14.9354C15.8775 14.9139 15.8559 14.8924 15.8336 14.8703C15.8109 14.8475 15.7881 14.8247 15.7647 14.8012C15.7024 14.7388 15.64 14.6766 15.5775 14.6144C15.5121 14.5493 15.4469 14.484 15.3817 14.4188C15.2722 14.3094 15.1626 14.2001 15.0529 14.0908C14.926 13.9644 14.7992 13.8378 14.6726 13.711C14.5639 13.6023 14.4551 13.4937 14.3463 13.3851C14.2812 13.3202 14.2162 13.2553 14.1513 13.1903C14.079 13.118 14.0065 13.0458 13.9339 12.9737C13.9123 12.9521 13.8907 12.9304 13.8685 12.908C13.8488 12.8885 13.8291 12.869 13.8088 12.849C13.7917 12.8319 13.7746 12.8148 13.7569 12.7972C13.6995 12.7486 13.6791 12.7467 13.6214 12.7955Z" fill="white"/>
<path d="M10.2313 4.71658C10.2475 4.72427 10.2636 4.73195 10.2802 4.73986C10.6845 4.93414 11.0284 5.21006 11.349 5.52103C11.3705 5.5416 11.3705 5.5416 11.3924 5.56259C12.1328 6.2832 12.5298 7.33459 12.549 8.35632C12.5596 9.52629 12.0976 10.5597 11.2938 11.3987C10.6567 12.0185 9.81355 12.4165 8.93173 12.5275C8.90995 12.5304 8.88817 12.5333 8.86573 12.5363C7.80388 12.6548 6.71407 12.3478 5.8738 11.6895C5.38912 11.3012 5.00299 10.8497 4.72101 10.2958C4.70667 10.2679 4.69233 10.24 4.67755 10.2113C4.20521 9.24141 4.15202 8.10721 4.49132 7.08796C4.54902 6.92399 4.61852 6.76693 4.69502 6.61094C4.70271 6.59484 4.7104 6.57874 4.71833 6.56215C4.9015 6.18217 5.15734 5.85098 5.44879 5.54698C5.47728 5.51608 5.47728 5.51608 5.50636 5.48454C6.70011 4.23125 8.70349 3.96981 10.2313 4.71658ZM5.67622 5.94597C5.01404 6.70229 4.66659 7.65377 4.72101 8.66099C4.79874 9.58397 5.18538 10.4162 5.83867 11.0743C5.84725 11.0743 5.85582 11.0743 5.86466 11.0743C5.86481 11.0552 5.86496 11.0361 5.86512 11.0163C5.86664 10.8347 5.86851 10.653 5.87079 10.4713C5.87194 10.3779 5.87296 10.2846 5.87366 10.1912C5.87435 10.1008 5.8754 10.0105 5.8767 9.92013C5.87733 9.86942 5.8776 9.81872 5.87785 9.76802C5.88377 9.40384 5.95793 9.09902 6.20581 8.82318C6.48995 8.5577 6.86634 8.5093 7.23818 8.51765C7.40876 8.52885 7.54489 8.59154 7.69558 8.66737C8.09135 8.86212 8.53981 8.84987 8.95772 8.73884C9.09454 8.69104 9.22437 8.63189 9.35369 8.56672C9.46852 8.51813 9.5802 8.51947 9.70337 8.52151C9.72635 8.52177 9.74933 8.52203 9.773 8.52231C10.1113 8.53028 10.3857 8.6175 10.6407 8.84588C10.9083 9.13136 10.9405 9.48936 10.9439 9.86047C10.9444 9.89562 10.9449 9.93078 10.9454 9.96594C10.9467 10.0577 10.9478 10.1495 10.9487 10.2412C10.9498 10.3352 10.9511 10.4291 10.9524 10.5231C10.9549 10.7068 10.9571 10.8906 10.9591 11.0743C11.1039 10.961 11.211 10.8299 11.323 10.6851C11.3338 10.6712 11.3446 10.6574 11.3557 10.6431C11.9468 9.87434 12.1943 8.89905 12.0735 7.94087C11.9725 7.21897 11.6755 6.56112 11.193 6.01409C11.1725 5.9901 11.1519 5.96612 11.1307 5.9414C10.5368 5.26526 9.61729 4.80708 8.71526 4.74497C8.69234 4.74416 8.66943 4.74336 8.64581 4.74253C8.59616 4.74053 8.59616 4.74053 8.5455 4.73848C7.44742 4.7088 6.42802 5.14992 5.67622 5.94597ZM6.46248 9.17999C6.34183 9.35215 6.304 9.49377 6.29945 9.70252C6.29903 9.72097 6.29861 9.73942 6.29817 9.75844C6.29454 9.92813 6.2925 10.0979 6.29092 10.2676C6.28986 10.3815 6.28829 10.4953 6.28549 10.6092C6.28279 10.7195 6.28137 10.8298 6.28085 10.9402C6.28044 10.9821 6.27958 11.0241 6.27825 11.066C6.26468 11.3002 6.26468 11.3002 6.36276 11.5028C6.42896 11.5499 6.49276 11.5855 6.56645 11.6193C6.59897 11.638 6.63139 11.6568 6.66361 11.6761C6.69441 11.6921 6.72538 11.7077 6.75651 11.7231C6.77375 11.7316 6.79099 11.7401 6.80875 11.7489C7.67875 12.1634 8.66581 12.2254 9.58153 11.9307C9.8955 11.8188 10.2759 11.6786 10.5172 11.4376C10.5201 11.38 10.5211 11.3222 10.5214 11.2645C10.5216 11.2464 10.5217 11.2283 10.5218 11.2096C10.5222 11.1494 10.5224 11.0892 10.5225 11.0289C10.5227 10.9871 10.5228 10.9452 10.523 10.9033C10.5232 10.8153 10.5234 10.7272 10.5235 10.6392C10.5236 10.5268 10.5243 10.4145 10.525 10.3021C10.5255 10.2155 10.5256 10.1288 10.5257 10.0422C10.5257 10.0008 10.5259 9.9594 10.5263 9.91802C10.5285 9.63063 10.5184 9.38322 10.3303 9.14867C10.1672 8.98718 9.97495 8.94357 9.7521 8.93509C9.572 8.93602 9.44677 8.98491 9.28567 9.06068C8.70104 9.31848 8.05905 9.25948 7.47352 9.04444C7.42419 9.02429 7.42419 9.02429 7.34367 8.981C7.05509 8.84877 6.67799 8.96248 6.46248 9.17999Z" fill="white"/>
<path d="M9.46153 5.72801C9.76407 6.00897 9.9518 6.39055 9.97639 6.8028C9.98294 7.31181 9.82586 7.68687 9.48437 8.06097C9.37507 8.16746 9.24988 8.23651 9.115 8.30537C9.09794 8.31414 9.08089 8.32291 9.06332 8.33194C8.73512 8.49181 8.28109 8.52075 7.93419 8.40349C7.47903 8.21472 7.13946 7.94424 6.94537 7.48369C6.79808 7.05887 6.82143 6.63441 6.98761 6.22045C7.17625 5.84049 7.51186 5.55732 7.9087 5.41691C8.46129 5.25146 9.01833 5.35988 9.46153 5.72801ZM7.73579 6.01366C7.70792 6.03346 7.68004 6.05326 7.65132 6.07367C7.42959 6.29001 7.2948 6.58592 7.28581 6.89596C7.28911 7.16794 7.38345 7.41228 7.55385 7.62256C7.56628 7.63848 7.57871 7.65441 7.59152 7.67081C7.75805 7.86011 8.04335 8.00093 8.29472 8.01799C8.67142 8.0283 8.95213 7.92539 9.23521 7.67122C9.44827 7.44812 9.54245 7.14305 9.53575 6.84051C9.51164 6.56488 9.39553 6.2836 9.19135 6.09151C8.75559 5.73146 8.20462 5.67474 7.73579 6.01366Z" fill="white"/>
</svg>
