<svg width="50" height="51" viewBox="0 0 50 51" fill="none" xmlns="http://www.w3.org/2000/svg">
<path d="M16.9166 4.51324C17.068 4.51277 17.2193 4.5122 17.3707 4.51155C17.7787 4.51009 18.1867 4.51001 18.5946 4.51029C18.9367 4.51041 19.2787 4.50987 19.6207 4.50935C20.4283 4.50814 21.236 4.50808 22.0436 4.50875C22.8736 4.50941 23.7036 4.50806 24.5336 4.50573C25.2491 4.50379 25.9647 4.50314 26.6803 4.50349C27.1063 4.50369 27.5324 4.50341 27.9585 4.50188C28.3595 4.50049 28.7604 4.50072 29.1615 4.50214C29.3766 4.50252 29.5917 4.5013 29.8068 4.5C31.5686 4.51032 33.2033 4.99532 34.4991 6.20808C35.7927 7.5792 36.2296 8.93982 36.2063 10.7784C36.2059 10.9204 36.2054 11.0624 36.2049 11.2087C36.2036 11.5824 36.2004 11.9561 36.1967 12.3298C36.1932 12.7127 36.1917 13.0955 36.1901 13.4784C36.1865 14.2269 36.1808 14.9753 36.1738 15.7237C36.2414 15.7557 36.309 15.7877 36.3786 15.8207C38.417 16.8598 39.7556 19.1449 40.5099 21.2043C41.3916 24.0135 41.0576 26.9792 39.7177 29.5896C38.9017 31.0192 37.7792 32.334 36.3961 33.2616C36.3227 33.2616 36.2494 33.2616 36.1738 33.2616C36.1748 33.3381 36.1757 33.4146 36.1768 33.4934C36.1857 34.2204 36.1925 34.9474 36.1968 35.6745C36.1991 36.0482 36.2022 36.4218 36.2073 36.7954C36.2131 37.2267 36.2152 37.6579 36.2172 38.0892C36.2195 38.221 36.2218 38.3527 36.2241 38.4884C36.2246 40.2054 35.6196 41.5551 34.4574 42.8184C33.9958 43.254 33.5147 43.5556 32.9495 43.8391C32.8783 43.8749 32.8072 43.9107 32.7339 43.9476C31.6702 44.4445 30.5812 44.4747 29.4214 44.4739C29.2707 44.4745 29.1201 44.4753 28.9695 44.4761C28.5633 44.478 28.1571 44.4785 27.7509 44.4787C27.4962 44.4788 27.2414 44.4793 26.9867 44.4799C26.095 44.4819 25.2034 44.4828 24.3118 44.4826C23.4853 44.4825 22.6589 44.4848 21.8324 44.4883C21.1191 44.4912 20.4058 44.4923 19.6925 44.4922C19.2682 44.4921 18.8438 44.4927 18.4195 44.4951C13.6545 44.5196 13.6545 44.5196 11.7415 42.791C10.4812 41.4626 9.99164 39.9132 10.0036 38.1187C10.0031 37.9967 10.0026 37.8748 10.0021 37.7492C10.0007 37.3443 10.0018 36.9394 10.0028 36.5346C10.0024 36.2428 10.0018 35.951 10.0011 35.6592C9.99959 34.9511 9.9999 34.2431 10.0009 33.5351C10.0016 32.9593 10.0017 32.3835 10.0014 31.8076C10.0013 31.7255 10.0013 31.6433 10.0012 31.5586C10.0011 31.3916 10.001 31.2246 10.0009 31.0576C9.99993 29.4944 10.001 27.9311 10.0028 26.3679C10.0043 25.0288 10.004 23.6897 10.0025 22.3505C10.0007 20.7926 10 19.2347 10.001 17.6768C10.0012 17.5104 10.0013 17.3441 10.0014 17.1777C10.0014 17.0959 10.0015 17.014 10.0015 16.9297C10.0018 16.3551 10.0013 15.7805 10.0005 15.2059C9.99959 14.5049 9.99986 13.8039 10.0016 13.1029C10.0025 12.7457 10.0027 12.3886 10.0017 12.0315C10.0008 11.6432 10.002 11.255 10.0036 10.8667C10.0029 10.7554 10.0022 10.6441 10.0014 10.5295C10.0153 8.83336 10.5972 7.44814 11.7784 6.21921C13.2666 4.83026 14.9278 4.50937 16.9166 4.51324ZM13.5048 8.0338C13.0008 8.57643 13.0008 8.57643 12.8255 9.25665C19.6499 9.25665 26.4742 9.25665 33.5054 9.25665C32.9821 8.22489 32.496 7.58244 31.3929 7.17403C30.5508 6.94451 29.7247 6.92344 28.8559 6.92644C28.6485 6.92586 28.6485 6.92586 28.437 6.92528C28.0609 6.92448 27.6849 6.92466 27.3088 6.92536C26.9133 6.92592 26.5178 6.9254 26.1223 6.92506C25.4584 6.92466 24.7945 6.92518 24.1305 6.92623C23.3655 6.92742 22.6004 6.92703 21.8353 6.92583C21.1758 6.92483 20.5162 6.92469 19.8566 6.92526C19.4639 6.9256 19.0711 6.92566 18.6784 6.92493C18.2402 6.92417 17.802 6.92522 17.3638 6.92644C17.2354 6.926 17.1071 6.92555 16.9748 6.9251C15.6556 6.93186 14.4868 7.08964 13.5048 8.0338ZM23.7214 19.4505C22.1488 21.485 21.8268 23.7288 22.0975 26.2101C22.3821 27.5223 23.1433 28.8776 24.0549 29.8637C24.1358 29.9534 24.2166 30.0431 24.2999 30.1355C25.7742 31.6852 27.7642 32.5687 29.9096 32.6406C32.0888 32.6757 34.1304 32.0048 35.7825 30.5714C37.0954 29.3092 38.0392 27.8173 38.3974 26.0272C38.4352 25.8475 38.4352 25.8475 38.4738 25.6642C38.6773 23.2971 38.1518 21.1981 36.6185 19.3409C36.5513 19.2554 36.4841 19.17 36.4148 19.0819C35.108 17.5115 33.0587 16.5568 31.0242 16.356C28.1 16.1678 25.6593 17.2924 23.7214 19.4505ZM12.8255 39.7287C13.0446 40.5927 13.6105 41.099 14.3547 41.5673C15.3079 42.0804 16.2657 42.0469 17.3259 42.0465C17.4642 42.0468 17.6024 42.0472 17.7448 42.0476C18.1222 42.0485 18.4997 42.0488 18.8771 42.0489C19.1134 42.049 19.3498 42.0492 19.5861 42.0495C20.4121 42.0505 21.2381 42.051 22.064 42.0509C22.8316 42.0508 23.5991 42.052 24.3666 42.0537C25.0276 42.0551 25.6886 42.0557 26.3496 42.0556C26.7434 42.0556 27.1373 42.0559 27.5312 42.0571C27.971 42.0584 28.4108 42.0578 28.8507 42.0572C28.9795 42.0578 29.1084 42.0584 29.2412 42.059C30.6695 42.0536 31.8351 41.8521 32.8783 40.8437C33.1381 40.5046 33.3126 40.1088 33.5054 39.7287C26.681 39.7287 19.8567 39.7287 12.8255 39.7287Z" fill="white"/>
<path d="M36.0812 20.5377C36.4313 20.6678 36.6259 20.7754 36.8589 21.0316C36.9931 21.4177 37.0522 21.7271 36.9436 22.1183C36.6724 22.5417 36.3164 22.9064 35.958 23.2774C35.8619 23.378 35.8619 23.378 35.7639 23.4806C35.4 23.8616 35.0338 24.2409 34.6663 24.6193C34.2858 25.0122 33.9145 25.4105 33.5478 25.813C33.0417 26.3672 32.5313 26.9183 32.0155 27.466C31.9474 27.539 31.8794 27.6119 31.8093 27.6871C31.7452 27.7549 31.6811 27.8226 31.6151 27.8925C31.5586 27.9526 31.502 28.0127 31.4438 28.0747C31.1237 28.3714 30.8492 28.4785 30.3908 28.5C29.9399 28.4818 29.7139 28.4269 29.3825 28.1649C29.2978 28.098 29.2131 28.0311 29.1257 27.9621C28.4868 27.4342 27.853 26.9023 27.2249 26.365C26.9783 26.1543 26.7306 25.9444 26.4829 25.7345C26.3253 25.6001 26.1678 25.4655 26.0103 25.331C25.9365 25.2686 25.8628 25.2063 25.7867 25.142C25.6842 25.0539 25.6842 25.0539 25.5797 24.9639C25.5197 24.9128 25.4598 24.8617 25.398 24.809C25.0624 24.4668 24.9922 24.2646 25.0007 23.8109C25.0816 23.3581 25.3142 23.1437 25.7322 22.8559C26.1097 22.6945 26.4241 22.7264 26.841 22.7505C27.3499 22.9676 27.7123 23.2604 28.1101 23.6046C28.1694 23.6556 28.2287 23.7067 28.2897 23.7592C28.4773 23.9208 28.664 24.0832 28.8507 24.2455C28.9785 24.3558 29.1062 24.4661 29.2341 24.5763C29.5459 24.8452 29.8569 25.1149 30.1675 25.3849C30.5191 25.0886 30.86 24.7928 31.1733 24.4666C31.2422 24.395 31.3111 24.3234 31.3821 24.2496C31.4898 24.1368 31.4898 24.1368 31.5997 24.0216C31.6752 23.943 31.7506 23.8643 31.8284 23.7833C32.3039 23.2859 32.7708 22.7834 33.2321 22.2763C34.9132 20.4303 34.9132 20.4303 36.0812 20.5377Z" fill="white"/>
</svg>
