<svg width="30" height="30" viewBox="0 0 30 30" fill="none" xmlns="http://www.w3.org/2000/svg">
<circle cx="15" cy="15" r="14.5" stroke="white"/>
<path d="M23.0192 20.2269C22.9027 20.5641 22.7323 20.7014 22.3526 20.7132C21.5232 20.7392 20.6925 20.7294 19.8644 20.7761C19.1447 20.8168 18.5743 20.5515 18.0904 20.0815C17.6972 19.6992 17.3365 19.286 16.9509 18.8964C16.8113 18.7551 16.6514 18.6271 16.4835 18.5178C16.1958 18.3313 15.9874 18.3663 15.7528 18.6129C15.4862 18.8928 15.414 19.2446 15.3697 19.6033C15.3478 19.7812 15.3491 19.9616 15.3368 20.1408C15.3128 20.4832 15.1369 20.6864 14.7825 20.712C14.3935 20.7404 14.0016 20.7339 13.6114 20.7315C13.3355 20.7298 13.057 20.7274 12.7845 20.6933C11.8842 20.5803 11.0919 20.2119 10.3304 19.7483C9.38586 19.1735 8.66699 18.3939 8.00718 17.544C6.62005 15.7586 5.55018 13.8025 4.61994 11.7696C4.43643 11.3682 4.57269 11.1456 5.03127 11.1086C5.31815 11.0855 5.60797 11.0924 5.89654 11.0903C6.47999 11.0859 7.06344 11.0846 7.64647 11.0826C8.04093 11.0814 8.30375 11.25 8.47925 11.601C8.94796 12.5382 9.43016 13.4693 9.92628 14.3936C10.1334 14.7795 10.4001 15.1333 10.7574 15.4108C10.8363 15.4717 10.9232 15.5282 11.0151 15.5672C11.2468 15.6647 11.4665 15.6062 11.545 15.3795C11.6518 15.0704 11.729 14.747 11.7737 14.424C11.8779 13.668 11.8559 12.9128 11.6956 12.1616C11.6011 11.7192 11.3218 11.4824 10.8793 11.3906C10.8088 11.3759 10.7447 11.3345 10.6776 11.3052C10.7152 11.2415 10.7422 11.1687 10.7915 11.1151C10.9776 10.9136 11.2138 10.7881 11.4902 10.7491C12.5309 10.6012 13.5738 10.5785 14.615 10.7381C15.136 10.8181 15.3111 10.9924 15.36 11.5421C15.401 12.0016 15.3592 12.4675 15.3541 12.9306C15.3474 13.5327 15.3326 14.1352 15.3394 14.7368C15.3415 14.9123 15.382 15.096 15.4469 15.2605C15.5862 15.6115 15.8912 15.6822 16.162 15.4141C16.4582 15.1211 16.7484 14.8161 16.9923 14.4829C17.6458 13.5908 18.1634 12.6256 18.5823 11.6107C18.7646 11.1687 18.8515 11.1212 19.348 11.1171C20.3162 11.1098 21.2844 11.0956 22.2526 11.0883C22.3779 11.0875 22.5058 11.0985 22.6277 11.1241C22.8087 11.1622 22.9639 11.2435 23.0196 11.4344C23.0196 11.5157 23.0196 11.5965 23.0196 11.6778C22.9032 11.9414 22.8061 12.2152 22.6665 12.4675C22.2016 13.3081 21.5764 14.0434 20.9874 14.8026C20.6828 15.1959 20.3863 15.5961 20.1095 16.0076C19.9462 16.2501 19.9665 16.5215 20.1441 16.7579C20.2669 16.9204 20.4132 17.0679 20.5605 17.2113C21.071 17.7086 21.6067 18.1843 22.0944 18.7014C22.502 19.1337 22.923 19.574 23.0196 20.1924C23.0192 20.2037 23.0192 20.2155 23.0192 20.2269Z" fill="white"/>
</svg>
