<svg width="30" height="30" viewBox="0 0 30 30" fill="none" xmlns="http://www.w3.org/2000/svg">
<path d="M30 15C30 6.71573 23.2843 0 15 0C6.71573 0 0 6.71573 0 15C0 23.2843 6.71573 30 15 30C23.2843 30 30 23.2843 30 15Z" fill="#0077FF"/>
<path d="M15.6668 19.6875C10.542 19.6875 7.61988 16.1747 7.5 10.32H10.0774C10.1598 14.6134 12.048 16.4299 13.5465 16.8052V10.32H15.9665V14.0205C17.4426 13.8628 19.001 12.174 19.5255 10.3125H21.9381C21.7413 11.2761 21.3484 12.1887 20.7837 12.9933C20.2191 13.7979 19.4949 14.4772 18.6563 14.9887C19.5921 15.4553 20.4185 16.1154 21.081 16.9253C21.7436 17.7352 22.2272 18.6766 22.5 19.6875H19.8402C19.2707 17.9086 17.8472 16.5275 15.9665 16.3398V19.6875H15.6743H15.6668Z" fill="white"/>
</svg>
