<svg width="36" height="36" viewBox="0 0 36 36" fill="none" xmlns="http://www.w3.org/2000/svg">
<path d="M30.9994 24.237C30.8356 24.7019 30.5958 24.8913 30.0615 24.9075C28.8945 24.9434 27.7257 24.93 26.5605 24.9944C25.5479 25.0504 24.7453 24.6846 24.0645 24.0364C23.5112 23.5092 23.0037 22.9395 22.4612 22.4022C22.2647 22.2073 22.0397 22.0308 21.8035 21.8801C21.3986 21.623 21.1054 21.6712 20.7754 22.0112C20.4002 22.3972 20.2987 22.8824 20.2364 23.377C20.2055 23.6224 20.2073 23.8711 20.1901 24.1182C20.1563 24.5905 19.9087 24.8706 19.4101 24.9059C18.8628 24.9451 18.3114 24.9361 17.7623 24.9328C17.3741 24.9305 16.9823 24.9272 16.5989 24.8801C15.3321 24.7244 14.2174 24.2162 13.1459 23.577C11.8169 22.7843 10.8054 21.7093 9.87701 20.5373C7.92528 18.0751 6.41992 15.3777 5.11105 12.5743C4.85284 12.0208 5.04457 11.7138 5.68981 11.6629C6.09345 11.6309 6.50125 11.6405 6.90726 11.6377C7.7282 11.6315 8.54914 11.6298 9.36949 11.627C9.9245 11.6253 10.2943 11.8578 10.5412 12.3418C11.2007 13.6343 11.8792 14.9183 12.5773 16.1928C12.8687 16.725 13.2439 17.2129 13.7466 17.5956C13.8576 17.6796 13.9799 17.7575 14.1093 17.8113C14.4352 17.9457 14.7445 17.865 14.8549 17.5524C15.0051 17.1261 15.1137 16.6802 15.1766 16.2348C15.3232 15.1922 15.2924 14.1508 15.0668 13.1149C14.9338 12.5049 14.5409 12.1783 13.9182 12.0517C13.8191 12.0315 13.7288 11.9743 13.6344 11.934C13.6873 11.8461 13.7253 11.7458 13.7947 11.6718C14.0565 11.394 14.3889 11.2209 14.7777 11.1671C16.2421 10.9632 17.7095 10.9318 19.1744 11.1519C19.9075 11.2623 20.1539 11.5026 20.2227 12.2606C20.2803 12.8942 20.2215 13.5368 20.2144 14.1754C20.2049 15.0057 20.1841 15.8365 20.1936 16.6662C20.1966 16.9082 20.2536 17.1614 20.345 17.3883C20.5409 17.8723 20.9701 17.9698 21.3512 17.6001C21.7679 17.1961 22.1762 16.7754 22.5193 16.316C23.4388 15.0858 24.1672 13.7547 24.7566 12.3553C25.013 11.7458 25.1353 11.6802 25.834 11.6746C27.1963 11.6645 28.5586 11.6449 29.9209 11.6349C30.0971 11.6337 30.277 11.6489 30.4486 11.6842C30.7032 11.7368 30.9216 11.8489 31 12.1122C31 12.2242 31 12.3357 31 12.4477C30.8362 12.8113 30.6996 13.1889 30.5032 13.5368C29.849 14.6959 28.9693 15.7099 28.1407 16.7569C27.7121 17.2992 27.2948 17.851 26.9054 18.4185C26.6757 18.753 26.7042 19.1272 26.9541 19.4533C27.1268 19.6773 27.3328 19.8807 27.5399 20.0785C28.2582 20.7642 29.0121 21.4202 29.6983 22.1333C30.2717 22.7294 30.8641 23.3367 31 24.1893C30.9994 24.205 30.9994 24.2213 30.9994 24.237Z" fill="white"/>
</svg>
