<svg width="45" height="46" viewBox="0 0 45 46" fill="none" xmlns="http://www.w3.org/2000/svg">
<path d="M35.3571 0.300781H9.64286C4.31725 0.300781 0 4.61803 0 9.94364V35.6579C0 40.9835 4.31725 45.3008 9.64286 45.3008H35.3571C40.6827 45.3008 45 40.9835 45 35.6579V9.94364C45 4.61803 40.6827 0.300781 35.3571 0.300781Z" fill="#503872"/>
<path d="M34.9994 28.237C34.8356 28.7019 34.5958 28.8913 34.0615 28.9075C32.8945 28.9434 31.7257 28.93 30.5605 28.9944C29.5479 29.0504 28.7453 28.6846 28.0645 28.0364C27.5112 27.5092 27.0037 26.9395 26.4612 26.4022C26.2647 26.2073 26.0397 26.0308 25.8035 25.8801C25.3986 25.623 25.1054 25.6712 24.7754 26.0112C24.4002 26.3972 24.2987 26.8824 24.2364 27.377C24.2055 27.6224 24.2073 27.8711 24.1901 28.1182C24.1563 28.5905 23.9087 28.8706 23.4101 28.9059C22.8628 28.9451 22.3114 28.9361 21.7623 28.9328C21.3741 28.9305 20.9823 28.9272 20.5989 28.8801C19.3321 28.7244 18.2174 28.2162 17.1459 27.577C15.8169 26.7843 14.8054 25.7093 13.877 24.5373C11.9253 22.0751 10.4199 19.3777 9.11105 16.5743C8.85284 16.0208 9.04457 15.7138 9.68981 15.6629C10.0934 15.6309 10.5012 15.6405 10.9073 15.6377C11.7282 15.6315 12.5491 15.6298 13.3695 15.627C13.9245 15.6253 14.2943 15.8578 14.5412 16.3418C15.2007 17.6343 15.8792 18.9183 16.5773 20.1928C16.8687 20.725 17.2439 21.2129 17.7466 21.5956C17.8576 21.6796 17.9799 21.7575 18.1093 21.8113C18.4352 21.9457 18.7445 21.865 18.8549 21.5524C19.0051 21.1261 19.1137 20.6802 19.1766 20.2348C19.3232 19.1922 19.2924 18.1508 19.0668 17.1149C18.9338 16.5049 18.5409 16.1783 17.9182 16.0517C17.8191 16.0315 17.7288 15.9743 17.6344 15.934C17.6873 15.8461 17.7253 15.7458 17.7947 15.6718C18.0565 15.394 18.3889 15.2209 18.7777 15.1671C20.2421 14.9632 21.7095 14.9318 23.1744 15.1519C23.9075 15.2623 24.1539 15.5026 24.2227 16.2606C24.2803 16.8942 24.2215 17.5368 24.2144 18.1754C24.2049 19.0057 24.1841 19.8365 24.1936 20.6662C24.1966 20.9082 24.2536 21.1614 24.345 21.3883C24.5409 21.8723 24.9701 21.9698 25.3512 21.6001C25.7679 21.1961 26.1762 20.7754 26.5193 20.316C27.4388 19.0858 28.1672 17.7547 28.7566 16.3553C29.013 15.7458 29.1353 15.6802 29.834 15.6746C31.1963 15.6645 32.5586 15.6449 33.9208 15.6349C34.0971 15.6337 34.277 15.6489 34.4486 15.6842C34.7032 15.7368 34.9216 15.8489 35 16.1122C35 16.2242 35 16.3357 35 16.4477C34.8362 16.8113 34.6996 17.1889 34.5032 17.5368C33.849 18.6959 32.9693 19.7099 32.1407 20.7569C31.7121 21.2992 31.2948 21.851 30.9054 22.4185C30.6757 22.753 30.7042 23.1272 30.9541 23.4533C31.1268 23.6773 31.3328 23.8807 31.5399 24.0785C32.2582 24.7642 33.0121 25.4202 33.6983 26.1333C34.2717 26.7294 34.8641 27.3367 35 28.1893C34.9994 28.205 34.9994 28.2213 34.9994 28.237Z" fill="white"/>
</svg>
