<svg width="41" height="31" viewBox="0 0 41 31" fill="none" xmlns="http://www.w3.org/2000/svg">
<mask id="path-1-outside-1_5_2775" maskUnits="userSpaceOnUse" x="0" y="0" width="41" height="31" fill="black">
<rect fill="white" width="41" height="31"/>
<path d="M23.2998 1.84813C23.5713 2.05975 23.8178 2.28605 24.0601 2.53011C24.1312 2.59722 24.1312 2.59722 24.2038 2.66568C25.0957 3.57469 25.4693 4.89224 25.4607 6.13336C25.4151 7.4538 24.8386 8.63861 23.9154 9.57196C23.5777 9.88169 23.206 10.1229 22.8142 10.3596C22.2218 10.7383 21.9068 11.1663 21.7555 11.8553C21.6941 12.1836 21.6993 12.5028 21.7032 12.8357C21.7787 12.879 21.7787 12.879 21.8557 12.9232C22.7692 13.4475 23.6822 13.9726 24.5923 14.5027C25.553 15.0623 26.517 15.6163 27.4813 16.1698C28.5209 16.7666 29.5597 17.3647 30.5955 17.968C31.1529 18.2925 31.7117 18.6145 32.271 18.9356C32.9807 19.3431 33.6888 19.7529 34.3958 20.165C34.878 20.4458 35.3614 20.7242 35.8458 21.0012C36.1759 21.1903 36.5054 21.3804 36.8346 21.5708C36.979 21.6543 37.1236 21.7374 37.2684 21.8202C38.5081 22.5312 39.4907 23.3052 39.8969 24.7408C40.064 25.673 40.0593 26.6709 39.6456 27.5362C39.619 27.5954 39.5923 27.6546 39.5649 27.7156C39.0896 28.6663 38.2556 29.3611 37.2745 29.747C36.5217 29.9669 35.7944 29.9829 35.0165 29.9813C34.8863 29.9816 34.756 29.9819 34.6258 29.9824C34.2692 29.9833 33.9127 29.9833 33.5562 29.9831C33.1711 29.9831 32.786 29.9839 32.401 29.9846C31.647 29.9859 30.8931 29.9863 30.1391 29.9864C29.526 29.9864 28.9129 29.9867 28.2998 29.9872C26.5603 29.9886 24.8208 29.9893 23.0813 29.9891C22.9875 29.9891 22.8938 29.9891 22.7973 29.9891C22.7034 29.9891 22.6096 29.9891 22.5129 29.9891C20.9927 29.989 19.4724 29.9905 17.9522 29.9926C16.3899 29.9948 14.8277 29.9959 13.2655 29.9957C12.3889 29.9957 11.5123 29.9961 10.6358 29.9977C9.88934 29.9991 9.14293 29.9994 8.39651 29.9984C8.01603 29.9979 7.63556 29.9979 7.25508 29.9992C6.90605 30.0004 6.55705 30.0002 6.20802 29.9989C6.08247 29.9986 5.95692 29.9989 5.83137 29.9998C4.46153 30.0084 3.20847 29.772 2.17374 28.8007C1.39125 27.9686 1.01112 26.9841 1.00482 25.8597C1.00325 25.7915 1.00168 25.7233 1.00007 25.6531C0.993993 24.6 1.41187 23.7245 2.11315 22.9532C2.67855 22.4218 3.30785 22.0394 3.98413 21.6636C4.07824 21.6107 4.17231 21.5578 4.26634 21.5048C4.45939 21.396 4.65255 21.2875 4.84579 21.1791C5.27781 20.9363 5.70725 20.689 6.13665 20.4417C6.25851 20.3716 6.25851 20.3716 6.38283 20.3C7.00414 19.9423 7.624 19.5821 8.24351 19.2212C8.88397 18.8484 9.52638 18.4791 10.1691 18.1101C10.7203 17.7934 11.2704 17.4749 11.8197 17.1549C12.5351 16.7382 13.2524 16.3248 13.9704 15.9126C14.5962 15.5531 15.2203 15.1909 15.8438 14.8276C16.2487 14.5919 16.654 14.3572 17.0602 14.1238C17.1044 14.0985 17.1486 14.0731 17.1941 14.0469C17.4071 13.9247 17.6201 13.8025 17.8333 13.6804C17.9865 13.5926 18.1393 13.504 18.2917 13.4146C18.4367 13.3321 18.5843 13.2539 18.7341 13.1804C19.1058 13.0033 19.1058 13.0033 19.3317 12.6811C19.3518 12.4994 19.3485 12.3313 19.3369 12.1489C19.3362 12.0202 19.3365 11.8914 19.3378 11.7627C19.3381 11.7 19.3384 11.6374 19.3388 11.5729C19.3845 10.5101 20.0499 9.53418 20.7909 8.81953C21.0934 8.56137 21.4226 8.34944 21.7555 8.13281C22.3221 7.75794 22.6933 7.3032 22.9434 6.67412C23.0759 5.9659 23.0369 5.27239 22.6723 4.63734C22.2246 3.99658 21.6237 3.62615 20.8669 3.43942C20.2094 3.35092 19.5656 3.49076 19.0233 3.87514C18.3529 4.42179 18.0655 4.98067 17.9541 5.82637C17.8868 6.25964 17.8283 6.60856 17.4908 6.91772C17.1395 7.15888 16.8129 7.18593 16.4003 7.12759C16.1038 7.03932 15.8887 6.86112 15.6971 6.62202C15.3137 5.84636 15.5864 4.90087 15.8491 4.12141C16.327 2.898 17.2137 2.01961 18.3865 1.44083C20.0023 0.749812 21.8351 0.860605 23.2998 1.84813ZM19.9754 15.1495C19.9042 15.1915 19.8331 15.2335 19.7598 15.2768C19.683 15.323 19.6061 15.3692 19.5269 15.4168C19.3611 15.5149 19.1952 15.613 19.0292 15.711C18.9434 15.7619 18.8576 15.8128 18.7692 15.8653C18.3586 16.1077 17.9449 16.3447 17.5312 16.5818C17.3653 16.6771 17.1994 16.7725 17.0335 16.8678C16.7834 17.0114 16.5333 17.1549 16.2832 17.2985C15.327 17.8475 14.3719 18.3982 13.4192 18.9531C12.7787 19.3259 12.1363 19.6953 11.4936 20.0643C10.9424 20.3809 10.3923 20.6995 9.84298 21.0195C9.21062 21.3878 8.57697 21.7538 7.9423 22.1182C7.06924 22.6196 6.19759 23.1234 5.32853 23.6316C5.14569 23.7379 4.96205 23.8425 4.77796 23.9466C4.15513 24.3021 3.61784 24.6212 3.38067 25.3387C3.31687 25.9162 3.31747 26.457 3.68478 26.93C4.07097 27.3568 4.50806 27.5863 5.08613 27.6331C5.41875 27.6414 5.7507 27.6423 6.08338 27.6409C6.21268 27.6411 6.34197 27.6415 6.47126 27.6419C6.82585 27.6429 7.18043 27.6424 7.53502 27.6417C7.9177 27.6412 8.30038 27.642 8.68306 27.6426C9.43246 27.6436 10.1818 27.6434 10.9312 27.6427C11.5403 27.6422 12.1493 27.6422 12.7584 27.6424C12.8884 27.6425 12.8884 27.6425 13.021 27.6425C13.1971 27.6426 13.3732 27.6427 13.5492 27.6427C15.2004 27.6434 16.8516 27.6426 18.5027 27.6414C19.9195 27.6404 21.3364 27.6406 22.7532 27.6416C24.3984 27.6428 26.0437 27.6433 27.6889 27.6426C27.8644 27.6426 28.0398 27.6425 28.2152 27.6424C28.3015 27.6424 28.3879 27.6423 28.4768 27.6423C29.0851 27.6421 29.6934 27.6424 30.3017 27.643C31.0431 27.6436 31.7844 27.6434 32.5257 27.6422C32.9039 27.6416 33.2822 27.6414 33.6604 27.6421C34.0067 27.6428 34.353 27.6425 34.6993 27.6412C34.8245 27.641 34.9497 27.6411 35.075 27.6417C35.8811 27.6449 36.5546 27.6365 37.1715 27.0597C37.5781 26.6103 37.6432 26.1728 37.6217 25.5752C37.5571 25.0444 37.3269 24.737 36.924 24.4021C36.5888 24.1532 36.2225 23.9559 35.8585 23.7521C35.7262 23.677 35.5938 23.6019 35.4614 23.5268C35.3247 23.4492 35.1878 23.3719 35.0509 23.2946C34.6266 23.0548 34.2044 22.8113 33.782 22.5681C33.7002 22.5211 33.6184 22.4741 33.5341 22.4256C32.9101 22.0668 32.2877 21.7053 31.6657 21.343C31.1083 21.0185 30.5495 20.6965 29.9902 20.3754C29.2802 19.9678 28.5718 19.5576 27.8644 19.1455C27.307 18.821 26.7482 18.499 26.1888 18.1779C25.4796 17.7707 24.772 17.361 24.0654 16.9493C23.6605 16.7136 23.2552 16.4789 22.849 16.2456C22.8048 16.2202 22.7606 16.1948 22.7151 16.1687C22.5021 16.0464 22.2891 15.9242 22.0759 15.8022C21.9986 15.7578 21.9213 15.7135 21.8416 15.6678C21.7674 15.6253 21.6931 15.5828 21.6166 15.539C21.3413 15.3783 21.0713 15.2095 20.8024 15.0382C20.4738 14.8758 20.2653 14.9762 19.9754 15.1495Z"/>
</mask>
<path d="M23.2998 1.84813C23.5713 2.05975 23.8178 2.28605 24.0601 2.53011C24.1312 2.59722 24.1312 2.59722 24.2038 2.66568C25.0957 3.57469 25.4693 4.89224 25.4607 6.13336C25.4151 7.4538 24.8386 8.63861 23.9154 9.57196C23.5777 9.88169 23.206 10.1229 22.8142 10.3596C22.2218 10.7383 21.9068 11.1663 21.7555 11.8553C21.6941 12.1836 21.6993 12.5028 21.7032 12.8357C21.7787 12.879 21.7787 12.879 21.8557 12.9232C22.7692 13.4475 23.6822 13.9726 24.5923 14.5027C25.553 15.0623 26.517 15.6163 27.4813 16.1698C28.5209 16.7666 29.5597 17.3647 30.5955 17.968C31.1529 18.2925 31.7117 18.6145 32.271 18.9356C32.9807 19.3431 33.6888 19.7529 34.3958 20.165C34.878 20.4458 35.3614 20.7242 35.8458 21.0012C36.1759 21.1903 36.5054 21.3804 36.8346 21.5708C36.979 21.6543 37.1236 21.7374 37.2684 21.8202C38.5081 22.5312 39.4907 23.3052 39.8969 24.7408C40.064 25.673 40.0593 26.6709 39.6456 27.5362C39.619 27.5954 39.5923 27.6546 39.5649 27.7156C39.0896 28.6663 38.2556 29.3611 37.2745 29.747C36.5217 29.9669 35.7944 29.9829 35.0165 29.9813C34.8863 29.9816 34.756 29.9819 34.6258 29.9824C34.2692 29.9833 33.9127 29.9833 33.5562 29.9831C33.1711 29.9831 32.786 29.9839 32.401 29.9846C31.647 29.9859 30.8931 29.9863 30.1391 29.9864C29.526 29.9864 28.9129 29.9867 28.2998 29.9872C26.5603 29.9886 24.8208 29.9893 23.0813 29.9891C22.9875 29.9891 22.8938 29.9891 22.7973 29.9891C22.7034 29.9891 22.6096 29.9891 22.5129 29.9891C20.9927 29.989 19.4724 29.9905 17.9522 29.9926C16.3899 29.9948 14.8277 29.9959 13.2655 29.9957C12.3889 29.9957 11.5123 29.9961 10.6358 29.9977C9.88934 29.9991 9.14293 29.9994 8.39651 29.9984C8.01603 29.9979 7.63556 29.9979 7.25508 29.9992C6.90605 30.0004 6.55705 30.0002 6.20802 29.9989C6.08247 29.9986 5.95692 29.9989 5.83137 29.9998C4.46153 30.0084 3.20847 29.772 2.17374 28.8007C1.39125 27.9686 1.01112 26.9841 1.00482 25.8597C1.00325 25.7915 1.00168 25.7233 1.00007 25.6531C0.993993 24.6 1.41187 23.7245 2.11315 22.9532C2.67855 22.4218 3.30785 22.0394 3.98413 21.6636C4.07824 21.6107 4.17231 21.5578 4.26634 21.5048C4.45939 21.396 4.65255 21.2875 4.84579 21.1791C5.27781 20.9363 5.70725 20.689 6.13665 20.4417C6.25851 20.3716 6.25851 20.3716 6.38283 20.3C7.00414 19.9423 7.624 19.5821 8.24351 19.2212C8.88397 18.8484 9.52638 18.4791 10.1691 18.1101C10.7203 17.7934 11.2704 17.4749 11.8197 17.1549C12.5351 16.7382 13.2524 16.3248 13.9704 15.9126C14.5962 15.5531 15.2203 15.1909 15.8438 14.8276C16.2487 14.5919 16.654 14.3572 17.0602 14.1238C17.1044 14.0985 17.1486 14.0731 17.1941 14.0469C17.4071 13.9247 17.6201 13.8025 17.8333 13.6804C17.9865 13.5926 18.1393 13.504 18.2917 13.4146C18.4367 13.3321 18.5843 13.2539 18.7341 13.1804C19.1058 13.0033 19.1058 13.0033 19.3317 12.6811C19.3518 12.4994 19.3485 12.3313 19.3369 12.1489C19.3362 12.0202 19.3365 11.8914 19.3378 11.7627C19.3381 11.7 19.3384 11.6374 19.3388 11.5729C19.3845 10.5101 20.0499 9.53418 20.7909 8.81953C21.0934 8.56137 21.4226 8.34944 21.7555 8.13281C22.3221 7.75794 22.6933 7.3032 22.9434 6.67412C23.0759 5.9659 23.0369 5.27239 22.6723 4.63734C22.2246 3.99658 21.6237 3.62615 20.8669 3.43942C20.2094 3.35092 19.5656 3.49076 19.0233 3.87514C18.3529 4.42179 18.0655 4.98067 17.9541 5.82637C17.8868 6.25964 17.8283 6.60856 17.4908 6.91772C17.1395 7.15888 16.8129 7.18593 16.4003 7.12759C16.1038 7.03932 15.8887 6.86112 15.6971 6.62202C15.3137 5.84636 15.5864 4.90087 15.8491 4.12141C16.327 2.898 17.2137 2.01961 18.3865 1.44083C20.0023 0.749812 21.8351 0.860605 23.2998 1.84813ZM19.9754 15.1495C19.9042 15.1915 19.8331 15.2335 19.7598 15.2768C19.683 15.323 19.6061 15.3692 19.5269 15.4168C19.3611 15.5149 19.1952 15.613 19.0292 15.711C18.9434 15.7619 18.8576 15.8128 18.7692 15.8653C18.3586 16.1077 17.9449 16.3447 17.5312 16.5818C17.3653 16.6771 17.1994 16.7725 17.0335 16.8678C16.7834 17.0114 16.5333 17.1549 16.2832 17.2985C15.327 17.8475 14.3719 18.3982 13.4192 18.9531C12.7787 19.3259 12.1363 19.6953 11.4936 20.0643C10.9424 20.3809 10.3923 20.6995 9.84298 21.0195C9.21062 21.3878 8.57697 21.7538 7.9423 22.1182C7.06924 22.6196 6.19759 23.1234 5.32853 23.6316C5.14569 23.7379 4.96205 23.8425 4.77796 23.9466C4.15513 24.3021 3.61784 24.6212 3.38067 25.3387C3.31687 25.9162 3.31747 26.457 3.68478 26.93C4.07097 27.3568 4.50806 27.5863 5.08613 27.6331C5.41875 27.6414 5.7507 27.6423 6.08338 27.6409C6.21268 27.6411 6.34197 27.6415 6.47126 27.6419C6.82585 27.6429 7.18043 27.6424 7.53502 27.6417C7.9177 27.6412 8.30038 27.642 8.68306 27.6426C9.43246 27.6436 10.1818 27.6434 10.9312 27.6427C11.5403 27.6422 12.1493 27.6422 12.7584 27.6424C12.8884 27.6425 12.8884 27.6425 13.021 27.6425C13.1971 27.6426 13.3732 27.6427 13.5492 27.6427C15.2004 27.6434 16.8516 27.6426 18.5027 27.6414C19.9195 27.6404 21.3364 27.6406 22.7532 27.6416C24.3984 27.6428 26.0437 27.6433 27.6889 27.6426C27.8644 27.6426 28.0398 27.6425 28.2152 27.6424C28.3015 27.6424 28.3879 27.6423 28.4768 27.6423C29.0851 27.6421 29.6934 27.6424 30.3017 27.643C31.0431 27.6436 31.7844 27.6434 32.5257 27.6422C32.9039 27.6416 33.2822 27.6414 33.6604 27.6421C34.0067 27.6428 34.353 27.6425 34.6993 27.6412C34.8245 27.641 34.9497 27.6411 35.075 27.6417C35.8811 27.6449 36.5546 27.6365 37.1715 27.0597C37.5781 26.6103 37.6432 26.1728 37.6217 25.5752C37.5571 25.0444 37.3269 24.737 36.924 24.4021C36.5888 24.1532 36.2225 23.9559 35.8585 23.7521C35.7262 23.677 35.5938 23.6019 35.4614 23.5268C35.3247 23.4492 35.1878 23.3719 35.0509 23.2946C34.6266 23.0548 34.2044 22.8113 33.782 22.5681C33.7002 22.5211 33.6184 22.4741 33.5341 22.4256C32.9101 22.0668 32.2877 21.7053 31.6657 21.343C31.1083 21.0185 30.5495 20.6965 29.9902 20.3754C29.2802 19.9678 28.5718 19.5576 27.8644 19.1455C27.307 18.821 26.7482 18.499 26.1888 18.1779C25.4796 17.7707 24.772 17.361 24.0654 16.9493C23.6605 16.7136 23.2552 16.4789 22.849 16.2456C22.8048 16.2202 22.7606 16.1948 22.7151 16.1687C22.5021 16.0464 22.2891 15.9242 22.0759 15.8022C21.9986 15.7578 21.9213 15.7135 21.8416 15.6678C21.7674 15.6253 21.6931 15.5828 21.6166 15.539C21.3413 15.3783 21.0713 15.2095 20.8024 15.0382C20.4738 14.8758 20.2653 14.9762 19.9754 15.1495Z" fill="#503872"/>
<path d="M23.2998 1.84813C23.5713 2.05975 23.8178 2.28605 24.0601 2.53011C24.1312 2.59722 24.1312 2.59722 24.2038 2.66568C25.0957 3.57469 25.4693 4.89224 25.4607 6.13336C25.4151 7.4538 24.8386 8.63861 23.9154 9.57196C23.5777 9.88169 23.206 10.1229 22.8142 10.3596C22.2218 10.7383 21.9068 11.1663 21.7555 11.8553C21.6941 12.1836 21.6993 12.5028 21.7032 12.8357C21.7787 12.879 21.7787 12.879 21.8557 12.9232C22.7692 13.4475 23.6822 13.9726 24.5923 14.5027C25.553 15.0623 26.517 15.6163 27.4813 16.1698C28.5209 16.7666 29.5597 17.3647 30.5955 17.968C31.1529 18.2925 31.7117 18.6145 32.271 18.9356C32.9807 19.3431 33.6888 19.7529 34.3958 20.165C34.878 20.4458 35.3614 20.7242 35.8458 21.0012C36.1759 21.1903 36.5054 21.3804 36.8346 21.5708C36.979 21.6543 37.1236 21.7374 37.2684 21.8202C38.5081 22.5312 39.4907 23.3052 39.8969 24.7408C40.064 25.673 40.0593 26.6709 39.6456 27.5362C39.619 27.5954 39.5923 27.6546 39.5649 27.7156C39.0896 28.6663 38.2556 29.3611 37.2745 29.747C36.5217 29.9669 35.7944 29.9829 35.0165 29.9813C34.8863 29.9816 34.756 29.9819 34.6258 29.9824C34.2692 29.9833 33.9127 29.9833 33.5562 29.9831C33.1711 29.9831 32.786 29.9839 32.401 29.9846C31.647 29.9859 30.8931 29.9863 30.1391 29.9864C29.526 29.9864 28.9129 29.9867 28.2998 29.9872C26.5603 29.9886 24.8208 29.9893 23.0813 29.9891C22.9875 29.9891 22.8938 29.9891 22.7973 29.9891C22.7034 29.9891 22.6096 29.9891 22.5129 29.9891C20.9927 29.989 19.4724 29.9905 17.9522 29.9926C16.3899 29.9948 14.8277 29.9959 13.2655 29.9957C12.3889 29.9957 11.5123 29.9961 10.6358 29.9977C9.88934 29.9991 9.14293 29.9994 8.39651 29.9984C8.01603 29.9979 7.63556 29.9979 7.25508 29.9992C6.90605 30.0004 6.55705 30.0002 6.20802 29.9989C6.08247 29.9986 5.95692 29.9989 5.83137 29.9998C4.46153 30.0084 3.20847 29.772 2.17374 28.8007C1.39125 27.9686 1.01112 26.9841 1.00482 25.8597C1.00325 25.7915 1.00168 25.7233 1.00007 25.6531C0.993993 24.6 1.41187 23.7245 2.11315 22.9532C2.67855 22.4218 3.30785 22.0394 3.98413 21.6636C4.07824 21.6107 4.17231 21.5578 4.26634 21.5048C4.45939 21.396 4.65255 21.2875 4.84579 21.1791C5.27781 20.9363 5.70725 20.689 6.13665 20.4417C6.25851 20.3716 6.25851 20.3716 6.38283 20.3C7.00414 19.9423 7.624 19.5821 8.24351 19.2212C8.88397 18.8484 9.52638 18.4791 10.1691 18.1101C10.7203 17.7934 11.2704 17.4749 11.8197 17.1549C12.5351 16.7382 13.2524 16.3248 13.9704 15.9126C14.5962 15.5531 15.2203 15.1909 15.8438 14.8276C16.2487 14.5919 16.654 14.3572 17.0602 14.1238C17.1044 14.0985 17.1486 14.0731 17.1941 14.0469C17.4071 13.9247 17.6201 13.8025 17.8333 13.6804C17.9865 13.5926 18.1393 13.504 18.2917 13.4146C18.4367 13.3321 18.5843 13.2539 18.7341 13.1804C19.1058 13.0033 19.1058 13.0033 19.3317 12.6811C19.3518 12.4994 19.3485 12.3313 19.3369 12.1489C19.3362 12.0202 19.3365 11.8914 19.3378 11.7627C19.3381 11.7 19.3384 11.6374 19.3388 11.5729C19.3845 10.5101 20.0499 9.53418 20.7909 8.81953C21.0934 8.56137 21.4226 8.34944 21.7555 8.13281C22.3221 7.75794 22.6933 7.3032 22.9434 6.67412C23.0759 5.9659 23.0369 5.27239 22.6723 4.63734C22.2246 3.99658 21.6237 3.62615 20.8669 3.43942C20.2094 3.35092 19.5656 3.49076 19.0233 3.87514C18.3529 4.42179 18.0655 4.98067 17.9541 5.82637C17.8868 6.25964 17.8283 6.60856 17.4908 6.91772C17.1395 7.15888 16.8129 7.18593 16.4003 7.12759C16.1038 7.03932 15.8887 6.86112 15.6971 6.62202C15.3137 5.84636 15.5864 4.90087 15.8491 4.12141C16.327 2.898 17.2137 2.01961 18.3865 1.44083C20.0023 0.749812 21.8351 0.860605 23.2998 1.84813ZM19.9754 15.1495C19.9042 15.1915 19.8331 15.2335 19.7598 15.2768C19.683 15.323 19.6061 15.3692 19.5269 15.4168C19.3611 15.5149 19.1952 15.613 19.0292 15.711C18.9434 15.7619 18.8576 15.8128 18.7692 15.8653C18.3586 16.1077 17.9449 16.3447 17.5312 16.5818C17.3653 16.6771 17.1994 16.7725 17.0335 16.8678C16.7834 17.0114 16.5333 17.1549 16.2832 17.2985C15.327 17.8475 14.3719 18.3982 13.4192 18.9531C12.7787 19.3259 12.1363 19.6953 11.4936 20.0643C10.9424 20.3809 10.3923 20.6995 9.84298 21.0195C9.21062 21.3878 8.57697 21.7538 7.9423 22.1182C7.06924 22.6196 6.19759 23.1234 5.32853 23.6316C5.14569 23.7379 4.96205 23.8425 4.77796 23.9466C4.15513 24.3021 3.61784 24.6212 3.38067 25.3387C3.31687 25.9162 3.31747 26.457 3.68478 26.93C4.07097 27.3568 4.50806 27.5863 5.08613 27.6331C5.41875 27.6414 5.7507 27.6423 6.08338 27.6409C6.21268 27.6411 6.34197 27.6415 6.47126 27.6419C6.82585 27.6429 7.18043 27.6424 7.53502 27.6417C7.9177 27.6412 8.30038 27.642 8.68306 27.6426C9.43246 27.6436 10.1818 27.6434 10.9312 27.6427C11.5403 27.6422 12.1493 27.6422 12.7584 27.6424C12.8884 27.6425 12.8884 27.6425 13.021 27.6425C13.1971 27.6426 13.3732 27.6427 13.5492 27.6427C15.2004 27.6434 16.8516 27.6426 18.5027 27.6414C19.9195 27.6404 21.3364 27.6406 22.7532 27.6416C24.3984 27.6428 26.0437 27.6433 27.6889 27.6426C27.8644 27.6426 28.0398 27.6425 28.2152 27.6424C28.3015 27.6424 28.3879 27.6423 28.4768 27.6423C29.0851 27.6421 29.6934 27.6424 30.3017 27.643C31.0431 27.6436 31.7844 27.6434 32.5257 27.6422C32.9039 27.6416 33.2822 27.6414 33.6604 27.6421C34.0067 27.6428 34.353 27.6425 34.6993 27.6412C34.8245 27.641 34.9497 27.6411 35.075 27.6417C35.8811 27.6449 36.5546 27.6365 37.1715 27.0597C37.5781 26.6103 37.6432 26.1728 37.6217 25.5752C37.5571 25.0444 37.3269 24.737 36.924 24.4021C36.5888 24.1532 36.2225 23.9559 35.8585 23.7521C35.7262 23.677 35.5938 23.6019 35.4614 23.5268C35.3247 23.4492 35.1878 23.3719 35.0509 23.2946C34.6266 23.0548 34.2044 22.8113 33.782 22.5681C33.7002 22.5211 33.6184 22.4741 33.5341 22.4256C32.9101 22.0668 32.2877 21.7053 31.6657 21.343C31.1083 21.0185 30.5495 20.6965 29.9902 20.3754C29.2802 19.9678 28.5718 19.5576 27.8644 19.1455C27.307 18.821 26.7482 18.499 26.1888 18.1779C25.4796 17.7707 24.772 17.361 24.0654 16.9493C23.6605 16.7136 23.2552 16.4789 22.849 16.2456C22.8048 16.2202 22.7606 16.1948 22.7151 16.1687C22.5021 16.0464 22.2891 15.9242 22.0759 15.8022C21.9986 15.7578 21.9213 15.7135 21.8416 15.6678C21.7674 15.6253 21.6931 15.5828 21.6166 15.539C21.3413 15.3783 21.0713 15.2095 20.8024 15.0382C20.4738 14.8758 20.2653 14.9762 19.9754 15.1495Z" stroke="#503872" mask="url(#path-1-outside-1_5_2775)"/>
</svg>
