<svg width="120" height="40" viewBox="0 0 120 40" fill="none" xmlns="http://www.w3.org/2000/svg">
<rect width="120" height="40" rx="10" fill="transparent"/>
<path d="M61.417 20.0255C61.417 19.2282 61.1828 18.5526 60.7441 18.043C60.1756 17.3954 59.2716 17.0215 58.0925 17.0215H54.0859V17.807V18.5214V26.5056H55.5841V18.5214H55.6393V18.5203H55.6659H57.9422C58.5343 18.5203 59.0037 18.6636 59.3237 18.9351C59.6489 19.2013 59.8258 19.5945 59.8258 20.1074C59.8258 20.9479 59.3023 21.519 58.4525 21.672C58.3022 21.6989 57.4421 21.7172 57.4421 21.7172L57.437 22.9509L59.8524 26.4938H61.7003L59.2675 22.9003C60.5294 22.521 61.417 21.5847 61.417 20.0255Z" fill="black"/>
<path d="M20.1994 18.5193H24.7367L20 25.6641V26.5057H20.949H21.2762H26.9394V24.9271H22.308L26.9394 17.8426V17H20.1994V18.5193Z" fill="black"/>
<path d="M90.9249 23.7085L85.5982 17H84.5459V17.9848V18.0743V26.5057H86.044V20.0224L91.0282 26.5057H92.4496V17H90.9249V23.7085Z" fill="black"/>
<path d="M71.916 21.3585V26.5057V26.5261H73.4141V26.5057V21.3585V17H71.916V21.3585Z" fill="black"/>
<path d="M39.7238 17L39.2432 18.0172L43.3377 26.5057H44.9912L40.5357 17H39.7238Z" fill="black"/>
<path d="M37.516 21.668V21.6712L35.2305 26.5059H36.9004L38.4711 23.2465H40.2811L39.5029 21.668H37.516Z" fill="black"/>
<path d="M106.545 17H105.733L105.252 18.0172L109.346 26.5057H111L106.545 17Z" fill="black"/>
<path d="M103.525 21.668V21.6712L101.239 26.5059H102.909L104.48 23.2465H106.29L105.513 21.668H103.525Z" fill="black"/>
</svg>
