<svg xmlns="http://www.w3.org/2000/svg" xmlns:xlink="http://www.w3.org/1999/xlink"><defs><symbol id="icon-arrow-down-56f24" viewBox="0 0 20 20"><path d="M7 8l3 4 3-4" stroke="#503872" stroke-linecap="round" stroke-linejoin="round"/><path d="M10 19.445a9.445 9.445 0 100-18.89 9.445 9.445 0 000 18.89z" stroke="#503872" stroke-linejoin="round"/></symbol><symbol id="icon-arrow-heavy-8917c" viewBox="0 0 38 38"><path d="M13 16.264L18.736 22l5.736-5.736" stroke="#503872" stroke-width="3" stroke-linecap="round" stroke-linejoin="round"/><path d="M19 36c9.389 0 17-7.611 17-17S28.389 2 19 2 2 9.611 2 19s7.611 17 17 17z" stroke="#503872" stroke-width="3" stroke-linejoin="round"/></symbol><symbol id="icon-burger-9b26f" viewBox="0 0 36 36"><rect x="7" y="10" width="22" height="2" rx="1" fill="#000"/><rect x="7" y="17" width="22" height="2" rx="1" fill="#000"/><rect x="7" y="24" width="22" height="2" rx="1" fill="#000"/></symbol><symbol id="icon-logo-5f22e" viewBox="0 0 165 51"><path d="M44.464 38.23a13.223 13.223 0 00-.39-1.614l.01.01c-3.149-10.308-12.488-11.036-12.86-11.064a16.734 16.734 0 00-2.2-.15h-.028c-.538 0-1.086.028-1.643.075-4.911.439-8.643 2.119-11.363 4.042-.344.233-.687.476-1.021.719-.047.037-.093.065-.14.103-.12.093-.241.186-.362.27-2.47 1.905-3.927 3.39-4.827 4.388-1.096 1.083-2.758 2.567-3.918 2.866-.065.01-.12.028-.186.038H5.51a4.41 4.41 0 01-.705.055c-2.07 0-3.797-1.465-4.224-3.416-.752.83-.557 2.175-.557 2.175v.037c.278 2.54 2.414 4.51 5.004 4.51a5.08 5.08 0 001.847-.355c-.594 1.372-1.522 3.118-5.18 4.5 0 0 .083.14.297.307 0 0 .111.103.39.262.01 0 .01.01.018.01h-.01s.01 0 .028.008c.018.01.028.02.046.02.288.148.724.335 1.356.522 5.115 1.671 7.594-2.269 8.318-3.725a5.075 5.075 0 001.606 3.053 4.893 4.893 0 001.671.999 5.023 5.023 0 005.05-.98c.01-.01.02-.01.028-.02 0 0 1.04-.867 1.03-1.988a4.308 4.308 0 01-5.412-.298 3.596 3.596 0 01-.482-.514c-.01-.01-.01-.019-.019-.019-.037-.046-.074-.102-.111-.149-.418-.625-.669-1.727-.817-2.838-.12-4.472 3.416-7.749 3.416-7.749a12.824 12.824 0 013.64-2.436l.009-.01s.445-.214 1.225-.476c.037-.009.074-.028.111-.037 1.7-.56 4.828-1.307 8.282-.681.956.149 2.237.476 3.574 1.176.01 0 .018.01.028.01a11.512 11.512 0 013.463 2.8 13.304 13.304 0 012.08 3.407c1.058 2.344 1.763 5.536.008 8.524-.13.196-2.21 3.818-5.96 3.398-.037 0-.074-.01-.111-.01a5.791 5.791 0 01-.92-.195c-.733-.224-1.206-.551-1.42-.729-.046-.037-.093-.084-.139-.121-.77-.71-1.337-1.755-1.355-2.791v-.028c0-1.96 1.81-3.781 3.76-3.781.176 0 .352.018.529.056 0 0 1.15.224 1.485.952.028.056.047.121.065.187.01.037.019.074.019.121.018.15.009.308-.028.486a1.933 1.933 0 00-.873-.197 2.034 2.034 0 00-2.024 2.036c0 1.12.91 2.035 2.024 2.035.4 0 .78-.122 1.096-.327 0 0 1.875-.887 1.596-3.557a4.057 4.057 0 00-2.85-3.566s-1.829-.626-3.797.252c-1.55.653-4.122 2.418-3.305 6.74 1.05 5.564 7.669 5.135 7.669 5.135a7.496 7.496 0 001.467-.205c2.126-.495 6.442-2.297 7.12-8.701.195-1.28.093-2.511-.102-3.557zM92.22 15.592c-.334-.448-.91-.7-1.476-.682-.548-.018-1.133.178-1.504.617-.353.42-.51.905-.697 1.512l-1.847 6.413-1.866-6.46c-.186-.635-.334-1.101-.706-1.522-.38-.429-.965-.569-1.476-.55a1.829 1.829 0 00-1.466.7c-.335.43-.483.943-.558 1.494l-1.42 11.482h2.887l1.003-8.159 1.782 6.302c.168.56.279.97.548 1.372.26.42.836.663 1.3.635h.074c.427 0 .956-.234 1.198-.635.269-.392.371-.803.538-1.372l1.783-6.32.993 8.177h2.887l-1.43-11.445c-.064-.598-.204-1.12-.547-1.56zm7.576-.682c-1.337 0-2.516.458-3.333 1.307-.817.84-1.253 2.026-1.244 3.333v9.037h2.887V24.04h1.43c2.33-.009 4.846-1.783 4.874-4.583 0-1.363-.492-2.53-1.337-3.333-.854-.803-2.015-1.214-3.277-1.214zm1.105 5.928a2.424 2.424 0 01-1.514.542l-1.28-.01V19.4c.027-.998.64-1.652 1.745-1.68 1.086.056 1.652.551 1.708 1.793 0 .55-.242.98-.659 1.325zm-34.231.252c.724-.644 1.142-1.56 1.142-2.483.019-1.26-.538-2.297-1.439-2.838-.891-.542-2.302-.691-3.528-.7H60.19c.056.475.38 2.585 2.098 2.735h.53c.659 0 1.457.121 1.726.29.26.176.334.288.353.653-.01.448-.13.71-.344.915-.222.196-.63.373-1.346.373h-1.93v2.549h2.079c.705 0 1.188.186 1.476.448.288.261.464.634.473 1.25-.009.953-.705 1.522-1.726 1.55h-3.547v2.736h3.658c1.272 0 2.423-.374 3.268-1.12.845-.757 1.328-1.877 1.318-3.184.01-1.307-.585-2.474-1.606-3.174zm8.839-3.92v2.324c-.037 1.13-.64 1.717-1.709 1.755-1.086-.038-1.661-.607-1.708-1.755v-2.26c-.12-1.913-2.441-2.1-2.887-2.119v4.379c0 1.41.492 2.586 1.318 3.38.827.793 1.95 1.185 3.129 1.185a4.425 4.425 0 001.857-.42v.812c-.01.439-.204.747-.613 1.036-.4.28-1.012.439-1.578.439l-3.259-.028v2.689h3.222c1.624-.01 2.98-.346 3.89-1.27 1.02-1.055 1.225-2.549 1.225-4.164v-8.038c-.436.019-2.71.196-2.887 2.054zm49.732-.962c-.901-.86-2.145-1.298-3.528-1.298s-2.637.439-3.537 1.298c-.901.859-1.411 2.1-1.411 3.557v5.18h2.906v-5.292c.055-1.28.668-1.886 2.042-1.942 1.355.056 1.977.663 2.024 1.942v6.273h-7.928v2.66h10.834v-8.821c.018-1.457-.502-2.708-1.402-3.557zm22.161 4.63c-.9-.728-2.07-1.092-3.277-1.092h-1.931v-2.652c-.223-1.801-2.488-1.97-2.887-1.979v13.472h5.087c1.263 0 2.405-.467 3.212-1.289.817-.812 1.281-1.97 1.281-3.249.019-1.353-.575-2.492-1.485-3.211zm-1.81 4.528c-.27.28-.715.494-1.514.504h-1.875v-3.38h1.783c1.587.047 1.977.803 2.023 1.662 0 .523-.148.934-.417 1.214zm-10.575-8.104v2.979h-4.011v-2.923c-.055-1.988-2.423-2.184-2.887-2.203v13.472h2.887v-5.648h4.011v5.648h2.887V15.115c-.455.019-2.776.215-2.887 2.147zm15.31-.046v11.361h2.887V15.115c-.445.019-2.757.206-2.887 2.1zm-93.544-2.101c-1.271-.084-1.875.812-2.051 1.139l-3.24 6.918V17.14c-.195-1.83-2.46-2.007-2.887-2.026v11.922c.037.382.213 1.428 1.82 1.54 1.317.093 1.912-.878 2.07-1.176l3.193-6.843v8.019h2.887V16.889c0-.355-.074-.71-.232-1.009-.223-.364-.678-.71-1.56-.765zm106.03.001c-1.272-.084-1.876.812-2.052 1.139l-3.24 6.908v-6.03c-.195-1.83-2.46-2.008-2.887-2.027V26.88c0 .046 0 .102.009.149.037.383.214 1.428 1.82 1.54 1.318.094 1.912-.877 2.07-1.176l3.194-6.843v8.02h2.887V16.89c0-.354-.074-.709-.232-1.008-.232-.364-.678-.71-1.569-.765zm-50.837 2.156v2.222c-.038 1.139-.641 1.718-1.709 1.755-1.086-.037-1.661-.607-1.708-1.755V17.15c-.186-1.849-2.46-2.026-2.887-2.045v4.378c0 1.41.492 2.586 1.318 3.38.826.793 1.95 1.185 3.129 1.185a4.426 4.426 0 001.857-.42v.813c-.01.438-.205.747-.613 1.027-.325.224-.789.373-1.263.42h-4.372v2.68h4.01c1.625 0 2.99-.345 3.89-1.27 1.021-1.055 1.225-2.548 1.225-4.163v-8.038c-.445.037-2.785.233-2.877 2.175zm47.68-2.642h.083c1.922 0 3.222-1.354 3.37-3.025l.028-.224.047-.448h-2.219l-.037.373-.019.187c-.102.681-.418.952-1.235.999-.807-.047-1.114-.318-1.234-1.009l-.019-.177-.037-.364h-2.219l.074.681c.14 1.662 1.458 3.025 3.417 3.007z" fill="#009870"/><path d="M3.67 36.335c.251.112.502.168.762.187.38.01.752-.065 1.095-.196.418-.252 1.207-.812 2.433-2.026 1.411-1.55 3.082-3.062 5.097-4.621l.111-.093c.093-.066.176-.131.26-.196l.056-.038.083-.065.019-.019c.371-.27.733-.523 1.077-.765a24.298 24.298 0 014.734-2.596v-4.229c0-2.119 1.709-3.837 3.816-3.837 2.107 0 3.816 1.718 3.816 3.837 0 .028 0 .056-.01.084v2.297c.038 0 .075-.01.112-.01a21.019 21.019 0 011.847-.084h.028c3.528 0 6.842 1.018 9.609 2.932 1.42.943 3.23 2.39 4.78 4.388.01-.028.01-.047.01-.075.093-.541.167-1.204.214-1.989.241-3.734-1.087-6.665-2.795-8.85-.241-.354-.408-.513-.408-.513v-.01a7.505 7.505 0 01-.27-.28.21.21 0 01-.037-.046c-.659-.738-1.132-1.615-1.448-2.353a12.513 12.513 0 01-.38-1.008 9.663 9.663 0 00-.149-.495l.51-.681s-.427-.159-1.17-.262V13.65l.242-.215v-.42l-1.142-.831-.483-8.243h-.24l-.456 8.243-1.197.83v.421l.269.243v1.064a6.236 6.236 0 00-1.068.243l.446.607-.325.868c-.938 2.016-2.85 3.444-3.76 4.042V17.86h1.216l.761-1.531s-7.612-4.444-7.696-10.26h-.51V3.26h.148v-.933h.204a.504.504 0 00.102-.3v-.112s0-.01-.009-.01c0-.009 0-.018-.009-.028v-.009c0-.01-.01-.019-.01-.037v-.01c-.009-.009-.009-.018-.009-.028 0-.009-.009-.009-.009-.018 0-.01-.01-.01-.01-.019l-.008-.01c0-.009-.01-.009-.01-.018l-.009-.01c0-.009-.01-.018-.019-.018 0 0 0-.01-.009-.01l-.028-.027-.009-.01c-.01 0-.01-.009-.019-.018 0-.01-.009-.01-.009-.01-.01 0-.01-.009-.018-.018l-.01-.01-.018-.018c-.01 0-.01-.01-.01-.01-.009 0-.018-.009-.027-.018-.01 0-.01-.01-.019-.019-.01 0-.01-.01-.018-.01-.01 0-.01-.009-.02-.009-.008 0-.008-.009-.018-.009l-.009-.01h-.01c-.445-.298-.436-.662-.436-.774L23.148.7h-.074l-.047.019c-.009.112.01.467-.436.775h-.01s-.009 0-.009.009c0 0-.009.01-.018.01 0 .009-.01.009-.019.009-.009.009-.018.009-.018.009-.01.01-.019.01-.028.019-.01.01-.019.01-.019.018 0 0-.009.01-.018.01 0 .01-.01.01-.019.018l-.01.01c-.008.01-.008.01-.018.018-.009 0-.009.01-.009.01 0 .01-.01.01-.018.018l-.01.01-.028.028-.009.01c-.01.008-.01.018-.018.018l-.01.01c0 .008-.01.008-.01.018l-.008.01c-.01.008-.01.018-.01.018 0 .01 0 .01-.009.018 0 .01-.01.02-.01.028v.01c-.009.01-.009.018-.018.037v.01c0 .009 0 .018-.01.027v.122c0 .112.038.215.103.299h.204v.933h.149v2.81h-.52c-.074 5.816-7.696 10.26-7.696 10.26l.761 1.531h1.216v5.433c-1.197-.998-2.692-2.623-2.72-4.518h-1.03c-.038 3.165-4.178 5.573-4.178 5.573l.408.831h.669v2.708h-.01v.737c-.065 1.223-.399 1.363-.557 1.363-.974-.205-1.123-1.904-1.123-1.904h.01s.334-.467.26-1.12c0 0-.196-.402-.845-.57h-.01l-.028-.01a9.389 9.389 0 00-.306-.055c-.046-.01-.13-.047-.13-.103v-.868c0-.16.028-.075-.056-.197-.055-.074-.102-.14-.157-.205a.402.402 0 00-.056-.065c-.065-.019-.14-.075-.112-.15 0-.009.01-.028.01-.037a.316.316 0 00.046-.159.31.31 0 00-.306-.308.31.31 0 00-.307.308c0 .056.019.103.047.15 0 .018.01.037.018.056.028.074-.055.13-.111.15-.019.018-.037.046-.056.065-.055.074-.102.14-.158.205-.092.121-.055.037-.055.196v.868c0 .047-.075.084-.12.093-.122.01-.224.028-.317.056l-.037.01-.009.01c-.65.167-.845.569-.845.569-.074.653.26 1.12.26 1.12s-.01.345-.028.793c-.074 2.344-1.28 3.735-1.996 4.36-.185.159-.724.542-.724.542.446 1.652 1.3 2.296 1.885 2.548z" fill="#812690"/><path d="M56.32 31.724h-3.537c-1.068 0-2.126.345-2.915 1.13-.79.774-1.263 1.95-1.254 3.416v8.916h2.906v-8.86c.047-1.195.557-1.811 1.467-1.83h1.207c1.782-.093 2.08-2.11 2.126-2.772zM104 32.816c-.9-.859-2.144-1.297-3.528-1.297-1.383 0-2.636.438-3.546 1.297-.9.86-1.411 2.1-1.411 3.557v5.181h2.906v-5.293c.055-1.279.668-1.886 2.042-1.942 1.355.056 1.977.663 2.024 1.942v6.274h-7.928v2.67h10.834v-8.823c.028-1.465-.483-2.707-1.393-3.566zm-41.758-1.297c-3.806 0-6.796 3.155-6.796 6.955.01 3.78 2.999 6.927 6.796 6.927 3.816 0 6.833-3.147 6.833-6.927 0-3.81-3.008-6.955-6.833-6.955zm0 10.988c-2.163 0-3.843-1.84-3.853-4.043.01-2.231 1.69-4.06 3.853-4.06 2.172 0 3.89 1.848 3.89 4.06 0 2.194-1.718 4.043-3.89 4.043zM74.97 31.519c-1.346 0-2.516.457-3.332 1.306-.817.84-1.244 2.026-1.244 3.333v9.037h2.887v-4.537h1.43c2.33 0 4.846-1.774 4.883-4.584 0-1.363-.492-2.539-1.346-3.332-.855-.813-2.015-1.223-3.278-1.223zm1.105 5.937a2.438 2.438 0 01-1.522.532l-1.281-.01V36.01c.027-.999.64-1.652 1.745-1.68 1.086.056 1.662.541 1.708 1.792.01.55-.241.99-.65 1.335zm11.215-5.937c-3.806 0-6.796 3.155-6.796 6.955.01 3.78 2.999 6.927 6.796 6.927 3.816 0 6.833-3.147 6.833-6.927 0-3.81-3.017-6.955-6.833-6.955zm0 10.988c-2.163 0-3.853-1.84-3.853-4.043.01-2.231 1.69-4.06 3.853-4.06 2.172 0 3.89 1.848 3.89 4.06 0 2.194-1.718 4.043-3.89 4.043z" fill="#009870"/></symbol><symbol id="icon-map-35c5a" viewBox="0 0 19 22"><path d="M8.907.145L.6 4.542a1.073 1.073 0 000 1.924l8.306 4.397c.364.193.82.193 1.186 0L18.4 6.466a1.072 1.072 0 000-1.924L10.093.145a1.287 1.287 0 00-1.186 0zm-8.01 9.79c-.293.074-.579.252-.741.515-.326.527-.124 1.21.445 1.512l8.306 4.397c.364.193.82.193 1.186 0l8.306-4.397c.57-.301.77-.985.445-1.512s-1.062-.713-1.631-.412L9.5 14.126l-7.713-4.088a1.236 1.236 0 00-.89-.103zm0 5.496c-.293.074-.579.252-.741.516-.326.527-.124 1.21.445 1.511l8.306 4.397c.364.193.82.193 1.186 0l8.306-4.397c.57-.301.77-.984.445-1.511-.325-.527-1.062-.714-1.631-.413L9.5 19.622l-7.713-4.088a1.236 1.236 0 00-.89-.103z" fill="currentColor"/></symbol><symbol id="icon-min-arrow-ca54e" viewBox="0 0 4 5"><path d="M1 4.5l2-2-2-2" stroke="gray" stroke-linecap="round" stroke-linejoin="round"/></symbol><symbol id="icon-place-6fc2f" viewBox="0 0 24 24"><path fill-rule="evenodd" clip-rule="evenodd" d="M11.878 8.342a2.275 2.275 0 100 4.55 2.275 2.275 0 000-4.55zm-3.715 2.275a3.715 3.715 0 117.43 0 3.715 3.715 0 01-7.43 0z" fill="currentColor"/><path fill-rule="evenodd" clip-rule="evenodd" d="M11.882 3.36c-3.28-.002-6.488 1.901-7.346 5.67-1.015 4.483 1.763 8.371 4.376 10.89a4.266 4.266 0 005.923 0l.001-.001c2.623-2.518 5.4-6.397 4.385-10.88-.853-3.769-4.059-5.677-7.34-5.68zm8.744 5.361c-1.029-4.545-4.922-6.798-8.743-6.801-3.822-.003-7.717 2.246-8.751 6.79v.001c-1.193 5.27 2.096 9.657 4.781 12.246h.001a5.706 5.706 0 007.92 0c2.696-2.589 5.985-6.966 4.792-12.236z" fill="currentColor"/></symbol><symbol id="icon-search-11df8" viewBox="0 0 24 24"><circle cx="11" cy="11" r="7" stroke="#000" stroke-width="2"/><path d="M20 20l-3-3" stroke="#000" stroke-width="2" stroke-linecap="round"/></symbol><symbol id="icon-time-b5438" viewBox="0 0 11 12"><path d="M7.217 7.724a.5.5 0 10.316-.948l-.316.948zM5.5 6.625H5a.5.5 0 00.342.474l.158-.474zM6 4.012a.5.5 0 00-1 0h1zm1.533 2.764L5.658 6.15l-.316.948 1.875.625.316-.948zM6 6.625V4.012H5v2.613h1zM10 6a4.5 4.5 0 01-4.5 4.5v1A5.5 5.5 0 0011 6h-1zm-4.5 4.5A4.5 4.5 0 011 6H0a5.5 5.5 0 005.5 5.5v-1zM1 6a4.5 4.5 0 014.5-4.5v-1A5.5 5.5 0 000 6h1zm4.5-4.5A4.5 4.5 0 0110 6h1A5.5 5.5 0 005.5.5v1z" fill="currentColor"/></symbol><symbol id="icon-image-c1c4b" viewBox="0 0 512 512"><path d="M108.4 0h23v22.8h21.2V0h23v69h-23V46h-21v23h-23.2M206 23h-20.3V0h63.7v23H229v46h-23m53.5-69h24.1l14.8 24.3L313.2 0h24.1v69h-23V34.8l-16.1 24.8-16.1-24.8V69h-22.6m89.2-69h23v46.2h32.6V69h-55.6"/><path fill="#e44d26" d="M107.6 471l-33-370.4h362.8l-33 370.2L255.7 512"/><path fill="#f16529" d="M256 480.5V131h148.3L376 447"/><path fill="#ebebeb" d="M142 176.3h114v45.4h-64.2l4.2 46.5h60v45.3H154.4m2 22.8H202l3.2 36.3 50.8 13.6v47.4l-93.2-26"/><path fill="#fff" d="M369.6 176.3H255.8v45.4h109.6m-4.1 46.5H255.8v45.4h56l-5.3 59-50.7 13.6v47.2l93-25.8"/></symbol><symbol id="icon-logo-5f22e" viewBox="0 0 165 51"><path d="M44.464 38.23a13.223 13.223 0 00-.39-1.614l.01.01c-3.149-10.308-12.488-11.036-12.86-11.064a16.734 16.734 0 00-2.2-.15h-.028c-.538 0-1.086.028-1.643.075-4.911.439-8.643 2.119-11.363 4.042-.344.233-.687.476-1.021.719-.047.037-.093.065-.14.103-.12.093-.241.186-.362.27-2.47 1.905-3.927 3.39-4.827 4.388-1.096 1.083-2.758 2.567-3.918 2.866-.065.01-.12.028-.186.038H5.51a4.41 4.41 0 01-.705.055c-2.07 0-3.797-1.465-4.224-3.416-.752.83-.557 2.175-.557 2.175v.037c.278 2.54 2.414 4.51 5.004 4.51a5.08 5.08 0 001.847-.355c-.594 1.372-1.522 3.118-5.18 4.5 0 0 .083.14.297.307 0 0 .111.103.39.262.01 0 .01.01.018.01h-.01s.01 0 .028.008c.018.01.028.02.046.02.288.148.724.335 1.356.522 5.115 1.671 7.594-2.269 8.318-3.725a5.075 5.075 0 001.606 3.053 4.893 4.893 0 001.671.999 5.023 5.023 0 005.05-.98c.01-.01.02-.01.028-.02 0 0 1.04-.867 1.03-1.988a4.308 4.308 0 01-5.412-.298 3.596 3.596 0 01-.482-.514c-.01-.01-.01-.019-.019-.019-.037-.046-.074-.102-.111-.149-.418-.625-.669-1.727-.817-2.838-.12-4.472 3.416-7.749 3.416-7.749a12.824 12.824 0 013.64-2.436l.009-.01s.445-.214 1.225-.476c.037-.009.074-.028.111-.037 1.7-.56 4.828-1.307 8.282-.681.956.149 2.237.476 3.574 1.176.01 0 .018.01.028.01a11.512 11.512 0 013.463 2.8 13.304 13.304 0 012.08 3.407c1.058 2.344 1.763 5.536.008 8.524-.13.196-2.21 3.818-5.96 3.398-.037 0-.074-.01-.111-.01a5.791 5.791 0 01-.92-.195c-.733-.224-1.206-.551-1.42-.729-.046-.037-.093-.084-.139-.121-.77-.71-1.337-1.755-1.355-2.791v-.028c0-1.96 1.81-3.781 3.76-3.781.176 0 .352.018.529.056 0 0 1.15.224 1.485.952.028.056.047.121.065.187.01.037.019.074.019.121.018.15.009.308-.028.486a1.933 1.933 0 00-.873-.197 2.034 2.034 0 00-2.024 2.036c0 1.12.91 2.035 2.024 2.035.4 0 .78-.122 1.096-.327 0 0 1.875-.887 1.596-3.557a4.057 4.057 0 00-2.85-3.566s-1.829-.626-3.797.252c-1.55.653-4.122 2.418-3.305 6.74 1.05 5.564 7.669 5.135 7.669 5.135a7.496 7.496 0 001.467-.205c2.126-.495 6.442-2.297 7.12-8.701.195-1.28.093-2.511-.102-3.557zM92.22 15.592c-.334-.448-.91-.7-1.476-.682-.548-.018-1.133.178-1.504.617-.353.42-.51.905-.697 1.512l-1.847 6.413-1.866-6.46c-.186-.635-.334-1.101-.706-1.522-.38-.429-.965-.569-1.476-.55a1.829 1.829 0 00-1.466.7c-.335.43-.483.943-.558 1.494l-1.42 11.482h2.887l1.003-8.159 1.782 6.302c.168.56.279.97.548 1.372.26.42.836.663 1.3.635h.074c.427 0 .956-.234 1.198-.635.269-.392.371-.803.538-1.372l1.783-6.32.993 8.177h2.887l-1.43-11.445c-.064-.598-.204-1.12-.547-1.56zm7.576-.682c-1.337 0-2.516.458-3.333 1.307-.817.84-1.253 2.026-1.244 3.333v9.037h2.887V24.04h1.43c2.33-.009 4.846-1.783 4.874-4.583 0-1.363-.492-2.53-1.337-3.333-.854-.803-2.015-1.214-3.277-1.214zm1.105 5.928a2.424 2.424 0 01-1.514.542l-1.28-.01V19.4c.027-.998.64-1.652 1.745-1.68 1.086.056 1.652.551 1.708 1.793 0 .55-.242.98-.659 1.325zm-34.231.252c.724-.644 1.142-1.56 1.142-2.483.019-1.26-.538-2.297-1.439-2.838-.891-.542-2.302-.691-3.528-.7H60.19c.056.475.38 2.585 2.098 2.735h.53c.659 0 1.457.121 1.726.29.26.176.334.288.353.653-.01.448-.13.71-.344.915-.222.196-.63.373-1.346.373h-1.93v2.549h2.079c.705 0 1.188.186 1.476.448.288.261.464.634.473 1.25-.009.953-.705 1.522-1.726 1.55h-3.547v2.736h3.658c1.272 0 2.423-.374 3.268-1.12.845-.757 1.328-1.877 1.318-3.184.01-1.307-.585-2.474-1.606-3.174zm8.839-3.92v2.324c-.037 1.13-.64 1.717-1.709 1.755-1.086-.038-1.661-.607-1.708-1.755v-2.26c-.12-1.913-2.441-2.1-2.887-2.119v4.379c0 1.41.492 2.586 1.318 3.38.827.793 1.95 1.185 3.129 1.185a4.425 4.425 0 001.857-.42v.812c-.01.439-.204.747-.613 1.036-.4.28-1.012.439-1.578.439l-3.259-.028v2.689h3.222c1.624-.01 2.98-.346 3.89-1.27 1.02-1.055 1.225-2.549 1.225-4.164v-8.038c-.436.019-2.71.196-2.887 2.054zm49.732-.962c-.901-.86-2.145-1.298-3.528-1.298s-2.637.439-3.537 1.298c-.901.859-1.411 2.1-1.411 3.557v5.18h2.906v-5.292c.055-1.28.668-1.886 2.042-1.942 1.355.056 1.977.663 2.024 1.942v6.273h-7.928v2.66h10.834v-8.821c.018-1.457-.502-2.708-1.402-3.557zm22.161 4.63c-.9-.728-2.07-1.092-3.277-1.092h-1.931v-2.652c-.223-1.801-2.488-1.97-2.887-1.979v13.472h5.087c1.263 0 2.405-.467 3.212-1.289.817-.812 1.281-1.97 1.281-3.249.019-1.353-.575-2.492-1.485-3.211zm-1.81 4.528c-.27.28-.715.494-1.514.504h-1.875v-3.38h1.783c1.587.047 1.977.803 2.023 1.662 0 .523-.148.934-.417 1.214zm-10.575-8.104v2.979h-4.011v-2.923c-.055-1.988-2.423-2.184-2.887-2.203v13.472h2.887v-5.648h4.011v5.648h2.887V15.115c-.455.019-2.776.215-2.887 2.147zm15.31-.046v11.361h2.887V15.115c-.445.019-2.757.206-2.887 2.1zm-93.544-2.101c-1.271-.084-1.875.812-2.051 1.139l-3.24 6.918V17.14c-.195-1.83-2.46-2.007-2.887-2.026v11.922c.037.382.213 1.428 1.82 1.54 1.317.093 1.912-.878 2.07-1.176l3.193-6.843v8.019h2.887V16.889c0-.355-.074-.71-.232-1.009-.223-.364-.678-.71-1.56-.765zm106.03.001c-1.272-.084-1.876.812-2.052 1.139l-3.24 6.908v-6.03c-.195-1.83-2.46-2.008-2.887-2.027V26.88c0 .046 0 .102.009.149.037.383.214 1.428 1.82 1.54 1.318.094 1.912-.877 2.07-1.176l3.194-6.843v8.02h2.887V16.89c0-.354-.074-.709-.232-1.008-.232-.364-.678-.71-1.569-.765zm-50.837 2.156v2.222c-.038 1.139-.641 1.718-1.709 1.755-1.086-.037-1.661-.607-1.708-1.755V17.15c-.186-1.849-2.46-2.026-2.887-2.045v4.378c0 1.41.492 2.586 1.318 3.38.826.793 1.95 1.185 3.129 1.185a4.426 4.426 0 001.857-.42v.813c-.01.438-.205.747-.613 1.027-.325.224-.789.373-1.263.42h-4.372v2.68h4.01c1.625 0 2.99-.345 3.89-1.27 1.021-1.055 1.225-2.548 1.225-4.163v-8.038c-.445.037-2.785.233-2.877 2.175zm47.68-2.642h.083c1.922 0 3.222-1.354 3.37-3.025l.028-.224.047-.448h-2.219l-.037.373-.019.187c-.102.681-.418.952-1.235.999-.807-.047-1.114-.318-1.234-1.009l-.019-.177-.037-.364h-2.219l.074.681c.14 1.662 1.458 3.025 3.417 3.007z" fill="#009870"/><path d="M3.67 36.335c.251.112.502.168.762.187.38.01.752-.065 1.095-.196.418-.252 1.207-.812 2.433-2.026 1.411-1.55 3.082-3.062 5.097-4.621l.111-.093c.093-.066.176-.131.26-.196l.056-.038.083-.065.019-.019c.371-.27.733-.523 1.077-.765a24.298 24.298 0 014.734-2.596v-4.229c0-2.119 1.709-3.837 3.816-3.837 2.107 0 3.816 1.718 3.816 3.837 0 .028 0 .056-.01.084v2.297c.038 0 .075-.01.112-.01a21.019 21.019 0 011.847-.084h.028c3.528 0 6.842 1.018 9.609 2.932 1.42.943 3.23 2.39 4.78 4.388.01-.028.01-.047.01-.075.093-.541.167-1.204.214-1.989.241-3.734-1.087-6.665-2.795-8.85-.241-.354-.408-.513-.408-.513v-.01a7.505 7.505 0 01-.27-.28.21.21 0 01-.037-.046c-.659-.738-1.132-1.615-1.448-2.353a12.513 12.513 0 01-.38-1.008 9.663 9.663 0 00-.149-.495l.51-.681s-.427-.159-1.17-.262V13.65l.242-.215v-.42l-1.142-.831-.483-8.243h-.24l-.456 8.243-1.197.83v.421l.269.243v1.064a6.236 6.236 0 00-1.068.243l.446.607-.325.868c-.938 2.016-2.85 3.444-3.76 4.042V17.86h1.216l.761-1.531s-7.612-4.444-7.696-10.26h-.51V3.26h.148v-.933h.204a.504.504 0 00.102-.3v-.112s0-.01-.009-.01c0-.009 0-.018-.009-.028v-.009c0-.01-.01-.019-.01-.037v-.01c-.009-.009-.009-.018-.009-.028 0-.009-.009-.009-.009-.018 0-.01-.01-.01-.01-.019l-.008-.01c0-.009-.01-.009-.01-.018l-.009-.01c0-.009-.01-.018-.019-.018 0 0 0-.01-.009-.01l-.028-.027-.009-.01c-.01 0-.01-.009-.019-.018 0-.01-.009-.01-.009-.01-.01 0-.01-.009-.018-.018l-.01-.01-.018-.018c-.01 0-.01-.01-.01-.01-.009 0-.018-.009-.027-.018-.01 0-.01-.01-.019-.019-.01 0-.01-.01-.018-.01-.01 0-.01-.009-.02-.009-.008 0-.008-.009-.018-.009l-.009-.01h-.01c-.445-.298-.436-.662-.436-.774L23.148.7h-.074l-.047.019c-.009.112.01.467-.436.775h-.01s-.009 0-.009.009c0 0-.009.01-.018.01 0 .009-.01.009-.019.009-.009.009-.018.009-.018.009-.01.01-.019.01-.028.019-.01.01-.019.01-.019.018 0 0-.009.01-.018.01 0 .01-.01.01-.019.018l-.01.01c-.008.01-.008.01-.018.018-.009 0-.009.01-.009.01 0 .01-.01.01-.018.018l-.01.01-.028.028-.009.01c-.01.008-.01.018-.018.018l-.01.01c0 .008-.01.008-.01.018l-.008.01c-.01.008-.01.018-.01.018 0 .01 0 .01-.009.018 0 .01-.01.02-.01.028v.01c-.009.01-.009.018-.018.037v.01c0 .009 0 .018-.01.027v.122c0 .112.038.215.103.299h.204v.933h.149v2.81h-.52c-.074 5.816-7.696 10.26-7.696 10.26l.761 1.531h1.216v5.433c-1.197-.998-2.692-2.623-2.72-4.518h-1.03c-.038 3.165-4.178 5.573-4.178 5.573l.408.831h.669v2.708h-.01v.737c-.065 1.223-.399 1.363-.557 1.363-.974-.205-1.123-1.904-1.123-1.904h.01s.334-.467.26-1.12c0 0-.196-.402-.845-.57h-.01l-.028-.01a9.389 9.389 0 00-.306-.055c-.046-.01-.13-.047-.13-.103v-.868c0-.16.028-.075-.056-.197-.055-.074-.102-.14-.157-.205a.402.402 0 00-.056-.065c-.065-.019-.14-.075-.112-.15 0-.009.01-.028.01-.037a.316.316 0 00.046-.159.31.31 0 00-.306-.308.31.31 0 00-.307.308c0 .056.019.103.047.15 0 .018.01.037.018.056.028.074-.055.13-.111.15-.019.018-.037.046-.056.065-.055.074-.102.14-.158.205-.092.121-.055.037-.055.196v.868c0 .047-.075.084-.12.093-.122.01-.224.028-.317.056l-.037.01-.009.01c-.65.167-.845.569-.845.569-.074.653.26 1.12.26 1.12s-.01.345-.028.793c-.074 2.344-1.28 3.735-1.996 4.36-.185.159-.724.542-.724.542.446 1.652 1.3 2.296 1.885 2.548z" fill="#812690"/><path d="M56.32 31.724h-3.537c-1.068 0-2.126.345-2.915 1.13-.79.774-1.263 1.95-1.254 3.416v8.916h2.906v-8.86c.047-1.195.557-1.811 1.467-1.83h1.207c1.782-.093 2.08-2.11 2.126-2.772zM104 32.816c-.9-.859-2.144-1.297-3.528-1.297-1.383 0-2.636.438-3.546 1.297-.9.86-1.411 2.1-1.411 3.557v5.181h2.906v-5.293c.055-1.279.668-1.886 2.042-1.942 1.355.056 1.977.663 2.024 1.942v6.274h-7.928v2.67h10.834v-8.823c.028-1.465-.483-2.707-1.393-3.566zm-41.758-1.297c-3.806 0-6.796 3.155-6.796 6.955.01 3.78 2.999 6.927 6.796 6.927 3.816 0 6.833-3.147 6.833-6.927 0-3.81-3.008-6.955-6.833-6.955zm0 10.988c-2.163 0-3.843-1.84-3.853-4.043.01-2.231 1.69-4.06 3.853-4.06 2.172 0 3.89 1.848 3.89 4.06 0 2.194-1.718 4.043-3.89 4.043zM74.97 31.519c-1.346 0-2.516.457-3.332 1.306-.817.84-1.244 2.026-1.244 3.333v9.037h2.887v-4.537h1.43c2.33 0 4.846-1.774 4.883-4.584 0-1.363-.492-2.539-1.346-3.332-.855-.813-2.015-1.223-3.278-1.223zm1.105 5.937a2.438 2.438 0 01-1.522.532l-1.281-.01V36.01c.027-.999.64-1.652 1.745-1.68 1.086.056 1.662.541 1.708 1.792.01.55-.241.99-.65 1.335zm11.215-5.937c-3.806 0-6.796 3.155-6.796 6.955.01 3.78 2.999 6.927 6.796 6.927 3.816 0 6.833-3.147 6.833-6.927 0-3.81-3.017-6.955-6.833-6.955zm0 10.988c-2.163 0-3.853-1.84-3.853-4.043.01-2.231 1.69-4.06 3.853-4.06 2.172 0 3.89 1.848 3.89 4.06 0 2.194-1.718 4.043-3.89 4.043z" fill="#009870"/></symbol></defs><view id="view-icon-arrow-down-56f24" viewBox="0 0 50 50"></view><view id="view-icon-arrow-heavy-8917c" viewBox="50 0 50 50"></view><view id="view-icon-burger-9b26f" viewBox="100 0 50 50"></view><view id="view-icon-logo-5f22e" viewBox="150 0 161.76 50"></view><view id="view-icon-map-35c5a" viewBox="350 0 43.18 50"></view><view id="view-icon-min-arrow-ca54e" viewBox="400 0 40 50"></view><view id="view-icon-place-6fc2f" viewBox="450 0 50 50"></view><view id="view-icon-search-11df8" viewBox="500 0 50 50"></view><view id="view-icon-time-b5438" viewBox="550 0 45.83 50"></view><view id="view-icon-image-c1c4b" viewBox="600 0 50 50"></view><view id="view-icon-logo-5f22e" viewBox="650 0 161.76 50"></view><use id="icon-arrow-down-56f24" xlink:href="#icon-arrow-down-56f24" width="50" height="50" x="0" y="0"></use><use id="icon-arrow-heavy-8917c" xlink:href="#icon-arrow-heavy-8917c" width="50" height="50" x="50" y="0"></use><use id="icon-burger-9b26f" xlink:href="#icon-burger-9b26f" width="50" height="50" x="100" y="0"></use><use id="icon-logo-5f22e" xlink:href="#icon-logo-5f22e" width="161.76" height="50" x="150" y="0"></use><use id="icon-map-35c5a" xlink:href="#icon-map-35c5a" width="43.18" height="50" x="350" y="0"></use><use id="icon-min-arrow-ca54e" xlink:href="#icon-min-arrow-ca54e" width="40" height="50" x="400" y="0"></use><use id="icon-place-6fc2f" xlink:href="#icon-place-6fc2f" width="50" height="50" x="450" y="0"></use><use id="icon-search-11df8" xlink:href="#icon-search-11df8" width="50" height="50" x="500" y="0"></use><use id="icon-time-b5438" xlink:href="#icon-time-b5438" width="45.83" height="50" x="550" y="0"></use><use id="icon-image-c1c4b" xlink:href="#icon-image-c1c4b" width="50" height="50" x="600" y="0"></use><use id="icon-logo-5f22e" xlink:href="#icon-logo-5f22e" width="161.76" height="50" x="650" y="0"></use></svg>