<svg width="22" height="22" viewBox="0 0 22 22" fill="none" xmlns="http://www.w3.org/2000/svg">
<path d="M14.5919 13.9743C14.8539 14.0617 15.137 13.9201 15.2243 13.6581C15.3117 13.3961 15.1701 13.113 14.9081 13.0257L14.5919 13.9743ZM11 12.25H10.5C10.5 12.4652 10.6377 12.6563 10.8419 12.7243L11 12.25ZM11.5 7.02319C11.5 6.74705 11.2761 6.52319 11 6.52319C10.7239 6.52319 10.5 6.74705 10.5 7.02319H11.5ZM14.9081 13.0257L11.1581 11.7757L10.8419 12.7243L14.5919 13.9743L14.9081 13.0257ZM11.5 12.25V7.02319H10.5V12.25H11.5ZM20.5 11C20.5 16.2467 16.2467 20.5 11 20.5V21.5C16.799 21.5 21.5 16.799 21.5 11H20.5ZM11 20.5C5.75329 20.5 1.5 16.2467 1.5 11H0.5C0.5 16.799 5.20101 21.5 11 21.5V20.5ZM1.5 11C1.5 5.75329 5.75329 1.5 11 1.5V0.5C5.20101 0.5 0.5 5.20101 0.5 11H1.5ZM11 1.5C16.2467 1.5 20.5 5.75329 20.5 11H21.5C21.5 5.20101 16.799 0.5 11 0.5V1.5Z" fill="white"/>
</svg>
