<svg width="2594" height="1021" viewBox="0 0 2594 1021" fill="none" xmlns="http://www.w3.org/2000/svg">
<path fill-rule="evenodd" clip-rule="evenodd" d="M2349.05 254.018C2247.51 336.363 2140.25 406 2031.96 466.05C2040.44 454.463 2049.05 442.738 2057.75 430.915C2111.51 357.878 2171.56 291.462 2236.23 233.518C2390.97 94.8867 2469.75 80.8179 2495.33 80.8179C2498.51 80.8179 2500.86 81.0287 2502.43 81.2503L2504.33 83.6194L2510.24 84.2988C2504.99 100.315 2478.83 148.746 2349.05 254.018ZM2590.78 55.9902C2581.35 23.8213 2553.14 9.80842 2533.94 5.6147C2519.63 0.500312 2489.69 -5.17228 2441.46 8.66666C2370.17 29.1387 2283.92 84.3676 2185.1 172.813C2116.44 234.265 2052.76 304.616 1995.83 381.883C1953.71 439.068 1914.1 493.689 1877.4 544.942C1763.28 599.268 1650.57 644.63 1544.86 684.766C1445.07 722.65 1141.4 837.919 1046.79 788.729C1035.04 782.625 1028.73 774.769 1025.64 762.465C996.015 644.366 1116.82 504.008 1210.27 408.701C1231.73 386.82 1260.97 359.598 1291.93 330.772C1441.46 191.567 1510.49 119.65 1497.46 61.8729C1492.63 40.4332 1476.65 23.9228 1453.62 16.5757L1452.35 16.1987C1293.7 -28.6528 872.037 198.935 789.109 245.005C712.979 287.33 612.65 350.79 515.619 412.174C417.392 474.304 281.042 560.567 203.606 599.601C259.537 504.328 375.078 374.445 417.839 326.379C423.641 319.85 428.551 314.337 432.36 309.998C437.649 303.972 446.08 295.018 455.821 284.641C560.981 172.839 606.416 111.096 580.157 62.6051C565.193 34.9635 533.235 25.1552 485.163 33.4774C329.146 60.4413 31.3104 263.372 18.7037 272.005C17.3723 272.919 16.1321 273.914 14.9463 274.951C5.84089 282.241 0 293.413 0 305.954C0 327.919 17.8667 345.724 39.9053 345.724C47.1656 345.724 53.9539 343.762 59.8172 340.383C61.275 339.63 62.7152 338.81 64.1058 337.861C67.0326 335.853 357.041 138.226 496.719 112.571C473.524 148.992 418.283 207.722 397.328 230.016C387.071 240.913 378.218 250.334 372.016 257.38C368.298 261.616 363.508 267.011 357.841 273.383C256.311 387.505 135.547 530.682 102.486 625.558C89.6249 662.474 108.143 682.17 116.709 688.916C161.546 724.304 240.477 680.852 558.587 479.619C654.665 418.844 754.013 355.991 828.163 314.79C1080.79 174.389 1317.92 83.9326 1412.3 90.1453C1385.72 134.123 1287.54 225.534 1237.2 272.393C1205.55 301.854 1175.66 329.684 1152.93 352.864C1046.05 461.876 908.502 624.934 947.855 781.849C956.461 816.123 977.842 842.989 1009.7 859.557C1098.44 905.681 1267.02 875.746 1573.4 759.424C1641.84 733.446 1713.18 705.297 1786 673.983C1665.46 846.086 1593.51 956.648 1592.46 958.282C1592.45 958.287 1592.45 958.293 1592.44 958.301C1587.84 964.786 1585.1 972.683 1585.1 981.231C1585.1 1003.2 1602.97 1021 1625.01 1021C1635.67 1021 1645.33 1016.81 1652.49 1010.02C1655.22 1007.64 1657.7 1004.88 1659.77 1001.69C1661.03 999.738 1764.15 841.282 1930.7 608.058C2089.81 531.082 2251.51 436.553 2401.89 314.682C2591.48 161.051 2602.43 95.7381 2590.78 55.9902Z" fill="#812690"/>
</svg>
