<svg width="1280" height="818" viewBox="0 0 1280 818" fill="none" xmlns="http://www.w3.org/2000/svg">
<path fill-rule="evenodd" clip-rule="evenodd" d="M1580.77 203.513C1499.44 269.486 1413.51 325.277 1326.76 373.388C1333.55 364.105 1340.45 354.711 1347.42 345.238C1390.48 286.723 1438.6 233.512 1490.4 187.089C1614.36 76.0209 1677.47 64.7493 1697.95 64.7493C1700.5 64.7493 1702.39 64.9182 1703.65 65.0957L1705.17 66.9938L1709.9 67.5381C1705.7 80.37 1684.74 119.171 1580.77 203.513ZM1774.42 44.8579C1766.87 19.085 1744.27 7.85826 1728.89 4.49836C1717.43 0.400838 1693.44 -4.1439 1654.8 6.94351C1597.69 23.3452 1528.6 67.5932 1449.44 138.454C1394.43 187.687 1343.43 244.051 1297.82 305.955C1264.07 351.771 1232.34 395.531 1202.94 436.594C1111.53 480.119 1021.24 516.462 936.559 548.618C856.615 578.97 613.352 671.32 537.563 631.91C528.152 627.02 523.096 620.726 520.623 610.868C496.887 516.25 593.663 403.798 668.522 327.441C685.711 309.91 709.135 288.101 733.935 265.006C853.725 153.479 909.021 95.8606 898.584 49.5711C894.714 32.3941 881.914 19.1663 863.465 13.2801L862.449 12.978C735.354 -22.9559 397.571 159.382 331.139 196.292C270.153 230.202 189.782 281.045 112.052 330.223C33.3642 380.001 -75.8634 449.113 -137.896 480.385C-93.0901 404.055 -0.532379 299.996 33.7225 261.487C38.3701 256.256 42.3038 251.839 45.3546 248.363C49.5912 243.535 56.3455 236.361 64.1487 228.048C148.39 138.474 184.787 89.0071 163.752 50.1576C151.764 28.0119 126.163 20.1537 87.6544 26.8213C-37.3282 48.4241 -275.918 211.007 -286.017 217.924C-287.083 218.656 -288.077 219.454 -289.027 220.284C-296.321 226.124 -301 235.075 -301 245.123C-301 262.72 -286.687 276.985 -269.033 276.985C-263.217 276.985 -257.779 275.413 -253.082 272.707C-251.914 272.103 -250.76 271.447 -249.646 270.686C-247.302 269.077 -14.982 110.743 96.9117 90.1891C78.3302 119.368 34.078 166.422 17.2915 184.283C9.07446 193.013 1.98224 200.561 -2.98587 206.207C-5.96378 209.6 -9.80121 213.922 -14.341 219.028C-95.6744 310.459 -192.416 425.169 -218.901 501.181C-229.203 530.758 -214.369 546.538 -207.507 551.942C-171.589 580.294 -108.359 545.482 146.473 384.259C223.438 335.567 303.024 285.211 362.425 252.202C564.799 139.716 754.755 67.2447 830.362 72.2222C809.071 107.456 730.421 180.692 690.093 218.234C664.74 241.838 640.797 264.134 622.592 282.706C536.966 370.044 426.782 500.681 458.307 626.398C465.201 653.858 482.329 675.382 507.851 688.656C578.936 725.61 713.98 701.626 959.421 608.432C1014.24 587.619 1071.4 565.066 1129.73 539.979C1033.16 677.863 975.531 766.443 974.684 767.752C974.681 767.756 974.677 767.761 974.675 767.767C970.985 772.963 968.795 779.29 968.795 786.138C968.795 803.736 983.107 818 1000.76 818C1009.3 818 1017.04 814.643 1022.78 809.203C1024.96 807.293 1026.95 805.083 1028.61 802.531C1029.62 800.966 1112.23 674.014 1245.65 487.161C1373.1 425.49 1502.64 349.755 1623.1 252.116C1774.98 129.03 1783.75 76.703 1774.42 44.8579Z" fill="#812690"/>
</svg>
