<svg width="2078" height="818" viewBox="0 0 2078 818" fill="none" xmlns="http://www.w3.org/2000/svg">
<path fill-rule="evenodd" clip-rule="evenodd" d="M1881.77 203.513C1800.44 269.486 1714.51 325.277 1627.76 373.388C1634.55 364.105 1641.45 354.711 1648.42 345.238C1691.48 286.723 1739.6 233.512 1791.4 187.089C1915.36 76.0209 1978.47 64.7493 1998.95 64.7493C2001.5 64.7493 2003.39 64.9182 2004.65 65.0957L2006.17 66.9938L2010.9 67.5381C2006.7 80.37 1985.74 119.171 1881.77 203.513ZM2075.42 44.8579C2067.87 19.085 2045.27 7.85826 2029.89 4.49836C2018.43 0.400838 1994.44 -4.1439 1955.8 6.94351C1898.69 23.3452 1829.6 67.5932 1750.44 138.454C1695.43 187.687 1644.43 244.051 1598.82 305.955C1565.07 351.771 1533.34 395.531 1503.94 436.594C1412.53 480.119 1322.24 516.462 1237.56 548.618C1157.61 578.97 914.352 671.32 838.564 631.91C829.152 627.02 824.096 620.726 821.623 610.868C797.887 516.25 894.663 403.798 969.522 327.441C986.711 309.91 1010.13 288.101 1034.93 265.006C1154.73 153.479 1210.02 95.8606 1199.58 49.5711C1195.71 32.3941 1182.91 19.1663 1164.47 13.2801L1163.45 12.978C1036.35 -22.9559 698.571 159.382 632.139 196.292C571.153 230.202 490.782 281.045 413.052 330.223C334.364 380.001 225.137 449.113 163.104 480.385C207.91 404.055 300.468 299.996 334.723 261.487C339.37 256.256 343.304 251.839 346.355 248.363C350.591 243.534 357.346 236.361 365.149 228.048C449.39 138.474 485.787 89.0071 464.752 50.1576C452.764 28.0119 427.163 20.1537 388.654 26.8213C263.672 48.4241 25.0821 211.007 14.9831 217.924C13.9166 218.656 12.9231 219.454 11.9732 220.284C4.67901 226.124 0 235.075 0 245.123C0 262.72 14.3127 276.985 31.9673 276.985C37.7834 276.985 43.2213 275.413 47.9183 272.707C49.0861 272.103 50.2398 271.446 51.3538 270.686C53.6985 269.077 286.018 110.743 397.912 90.1891C379.33 119.368 335.078 166.422 318.291 184.283C310.074 193.013 302.982 200.561 298.014 206.207C295.036 209.6 291.199 213.922 286.659 219.028C205.326 310.459 108.584 425.169 82.0995 501.181C71.7967 530.758 86.6311 546.538 93.4932 551.942C129.411 580.294 192.641 545.482 447.473 384.259C524.438 335.567 604.024 285.211 663.425 252.202C865.799 139.716 1055.75 67.2447 1131.36 72.2222C1110.07 107.456 1031.42 180.692 991.093 218.234C965.74 241.838 941.797 264.135 923.592 282.706C837.966 370.044 727.782 500.681 759.307 626.398C766.201 653.858 783.329 675.382 808.851 688.656C879.936 725.61 1014.98 701.626 1260.42 608.432C1315.24 587.619 1372.4 565.066 1430.73 539.979C1334.16 677.863 1276.53 766.443 1275.68 767.752C1275.68 767.756 1275.68 767.761 1275.67 767.767C1271.99 772.963 1269.79 779.29 1269.79 786.138C1269.79 803.736 1284.11 818 1301.76 818C1310.3 818 1318.04 814.643 1323.78 809.203C1325.96 807.293 1327.95 805.083 1329.61 802.531C1330.62 800.966 1413.23 674.014 1546.65 487.161C1674.1 425.49 1803.64 349.755 1924.1 252.116C2075.98 129.03 2084.75 76.703 2075.42 44.8579Z" fill="#812690"/>
</svg>
