<svg width="320" height="212" viewBox="0 0 320 212" fill="none" xmlns="http://www.w3.org/2000/svg">
<path fill-rule="evenodd" clip-rule="evenodd" d="M453.196 52.7441C432.138 69.8424 409.891 84.3016 387.432 96.7704C389.191 94.3646 390.976 91.9299 392.782 89.475C403.93 74.3097 416.386 60.519 429.798 48.4875C461.892 19.7022 478.231 16.781 483.535 16.781C484.195 16.781 484.683 16.8248 485.008 16.8708L485.403 17.3627L486.628 17.5038C485.539 20.8294 480.113 30.8855 453.196 52.7441ZM503.332 11.6258C501.377 4.94625 495.526 2.03662 491.543 1.16583C488.576 0.103885 482.366 -1.07397 472.363 1.79954C457.577 6.05034 439.688 17.518 419.194 35.8828C404.952 48.6427 391.746 63.2504 379.939 79.294C371.202 91.168 362.987 102.509 355.375 113.152C331.707 124.432 308.331 133.851 286.408 142.185C265.71 150.051 202.728 173.985 183.106 163.771C180.67 162.504 179.361 160.873 178.72 158.318C172.575 133.796 197.631 104.652 217.012 84.8625C221.462 80.3191 227.527 74.6669 233.948 68.6814C264.962 39.7769 279.278 24.8441 276.576 12.8473C275.574 8.39553 272.26 4.96731 267.483 3.44178L267.22 3.36349C234.315 -5.94946 146.862 41.3068 129.663 50.8727C113.873 59.6611 93.0647 72.838 72.9403 85.5835C52.5678 98.4843 24.2885 116.396 8.22812 124.501C19.8285 104.718 43.7919 77.7495 52.6606 67.7692C53.8639 66.4135 54.8823 65.2688 55.6722 64.3679C56.7691 63.1165 58.5177 61.2574 60.538 59.1028C82.3484 35.8881 91.7717 23.0679 86.3256 12.9993C83.222 7.2598 76.5938 5.22321 66.6237 6.95124C34.2654 12.55 -27.5062 54.6864 -30.1208 56.4791C-30.397 56.6688 -30.6542 56.8755 -30.9001 57.0908C-32.7886 58.6044 -34 60.9241 -34 63.5282C-34 68.0889 -30.2944 71.7859 -25.7236 71.7859C-24.2178 71.7859 -22.8099 71.3785 -21.5938 70.6771C-21.2915 70.5206 -20.9928 70.3504 -20.7044 70.1534C-20.0973 69.7364 40.0509 28.7012 69.0204 23.3742C64.2096 30.9366 52.7526 43.1314 48.4065 47.7605C46.2791 50.023 44.4429 51.9792 43.1567 53.4423C42.3857 54.3218 41.3922 55.442 40.2168 56.7652C19.1594 80.4613 -5.8873 110.19 -12.7442 129.891C-15.4116 137.556 -11.571 141.646 -9.79435 143.046C-0.495026 150.394 15.8753 141.372 81.852 99.5878C101.779 86.9685 122.384 73.9179 137.762 65.3628C190.158 36.2101 239.338 17.4277 258.913 18.7177C253.4 27.8493 233.038 46.8297 222.597 56.5595C216.033 62.6769 209.834 68.4554 205.121 73.2686C182.952 95.9038 154.425 129.761 162.587 162.343C164.372 169.459 168.806 175.038 175.414 178.478C193.818 188.055 228.781 181.84 292.327 157.686C306.52 152.292 321.317 146.447 336.42 139.946C311.419 175.681 296.497 198.638 296.278 198.977C296.277 198.978 296.276 198.98 296.276 198.981C295.321 200.328 294.753 201.968 294.753 203.742C294.753 208.303 298.459 212 303.03 212C305.241 212 307.244 211.13 308.729 209.72C309.296 209.225 309.809 208.652 310.239 207.991C310.5 207.585 331.888 174.683 366.431 126.257C399.43 110.274 432.967 90.6456 464.155 65.3405C503.478 33.4405 505.748 19.879 503.332 11.6258Z" fill="#812690"/>
</svg>
