<svg width="1920" height="1180" viewBox="0 0 1920 1180" fill="none" xmlns="http://www.w3.org/2000/svg">
<g clip-path="url(#clip0_613_3853)">
<path d="M1259.62 -262.05C838.26 -389.862 761.734 -673.319 776.141 -799.071L627.282 -811.407L426.721 322.606C1146.83 574.042 2064.12 960.842 2299.2 513.506C2512.76 107.143 1786.32 -102.285 1259.62 -262.05Z" fill="url(#paint0_linear_613_3853)"/>
<path d="M1134.39 -110.605C713.032 -238.417 636.506 -521.874 650.913 -647.626L502.053 -659.962L301.492 474.052C1021.6 725.487 1938.89 1112.29 2173.98 664.951C2387.53 258.589 1661.09 49.1603 1134.39 -110.605Z" fill="url(#paint1_linear_613_3853)"/>
<path d="M1311.99 106.964C925.973 -282.128 488.148 -521.333 508.623 -646.203L336.808 -680.388L70.4538 435.356C895.795 794.348 2495.35 1139.24 2242.65 650.523C1926.78 39.6304 1749.08 547.532 1311.99 106.964Z" fill="url(#paint2_linear_613_3853)"/>
<path d="M1703.95 634.097C2000.72 783.04 1946.1 676.81 1989.73 640.539L2467.72 1188.61L1911.02 1942L-242.62 -528.542C137.851 -671.485 449.366 71.6559 946.685 101.482C1302.18 122.803 1472.07 517.723 1703.95 634.097Z" fill="url(#paint3_linear_613_3853)"/>
<g filter="url(#filter0_d_613_3853)">
<path d="M406.034 146.152C154.615 -69.9362 239.877 -122.842 231.692 -223L-325.712 -208.692L-365 1411L2147 1345.18C1989.85 675.557 1435.65 1138.68 1123.05 518.166C899.594 74.6112 602.476 314.99 406.034 146.152Z" fill="url(#paint4_linear_613_3853)"/>
</g>
<g filter="url(#filter1_b_613_3853)">
<path d="M296.786 802.234C-138.686 793.584 -270.377 539.14 -281.789 413L-429 441.832L-394.765 1598.72C356.126 1645.57 1779.17 1645.57 1464.2 1270.76C1070.5 802.234 841.125 813.046 296.786 802.234Z" fill="url(#paint5_linear_613_3853)"/>
</g>
</g>
<defs>
<filter id="filter0_d_613_3853" x="-369" y="-223" width="2520" height="1642" filterUnits="userSpaceOnUse" color-interpolation-filters="sRGB">
<feFlood flood-opacity="0" result="BackgroundImageFix"/>
<feColorMatrix in="SourceAlpha" type="matrix" values="0 0 0 0 0 0 0 0 0 0 0 0 0 0 0 0 0 0 127 0" result="hardAlpha"/>
<feOffset dy="4"/>
<feGaussianBlur stdDeviation="2"/>
<feComposite in2="hardAlpha" operator="out"/>
<feColorMatrix type="matrix" values="0 0 0 0 0 0 0 0 0 0 0 0 0 0 0 0 0 0 0.25 0"/>
<feBlend mode="normal" in2="BackgroundImageFix" result="effect1_dropShadow_613_3853"/>
<feBlend mode="normal" in="SourceGraphic" in2="effect1_dropShadow_613_3853" result="shape"/>
</filter>
<filter id="filter1_b_613_3853" x="-1217" y="-375" width="3514" height="2783" filterUnits="userSpaceOnUse" color-interpolation-filters="sRGB">
<feFlood flood-opacity="0" result="BackgroundImageFix"/>
<feGaussianBlur in="BackgroundImageFix" stdDeviation="394"/>
<feComposite in2="SourceAlpha" operator="in" result="effect1_backgroundBlur_613_3853"/>
<feBlend mode="normal" in="SourceGraphic" in2="effect1_backgroundBlur_613_3853" result="shape"/>
</filter>
<linearGradient id="paint0_linear_613_3853" x1="1685.75" y1="-324.55" x2="1039.98" y2="273.927" gradientUnits="userSpaceOnUse">
<stop stop-color="#503872"/>
<stop offset="0.618852" stop-color="#4C2B74"/>
</linearGradient>
<linearGradient id="paint1_linear_613_3853" x1="1560.53" y1="-173.104" x2="914.751" y2="425.372" gradientUnits="userSpaceOnUse">
<stop offset="0.170163" stop-color="#503872"/>
<stop offset="0.39" stop-color="#67438A"/>
</linearGradient>
<linearGradient id="paint2_linear_613_3853" x1="1546.41" y1="-34.296" x2="873.92" y2="577.53" gradientUnits="userSpaceOnUse">
<stop offset="0.455" stop-color="#503872"/>
<stop offset="1" stop-color="#311A4D"/>
</linearGradient>
<linearGradient id="paint3_linear_613_3853" x1="1628.76" y1="104.104" x2="994.121" y2="531.443" gradientUnits="userSpaceOnUse">
<stop stop-color="#503872"/>
<stop offset="0.365" stop-color="#503872"/>
<stop offset="0.885417" stop-color="#644289"/>
</linearGradient>
<linearGradient id="paint4_linear_613_3853" x1="963.438" y1="114.674" x2="271.175" y2="1018.61" gradientUnits="userSpaceOnUse">
<stop offset="0.442075" stop-color="#67468B"/>
<stop offset="0.530934" stop-color="#503872"/>
</linearGradient>
<linearGradient id="paint5_linear_613_3853" x1="698.43" y1="624.654" x2="200.994" y2="1389.37" gradientUnits="userSpaceOnUse">
<stop stop-color="#66448B"/>
<stop offset="0.535" stop-color="#503174"/>
</linearGradient>
<clipPath id="clip0_613_3853">
<rect width="1920" height="1180" fill="white"/>
</clipPath>
</defs>
</svg>
