<svg width="1280" height="800" viewBox="0 0 1280 800" fill="none" xmlns="http://www.w3.org/2000/svg">
<g clip-path="url(#clip0_2638_8174)">
<path d="M886.625 -37.1139C622.531 -122.133 574.567 -310.686 583.597 -394.335L490.297 -402.542L364.592 351.794C815.929 519.047 1390.86 776.343 1538.2 478.779C1672.05 208.47 1216.74 69.1605 886.625 -37.1139Z" fill="url(#paint0_linear_2638_8174)"/>
<path d="M808.137 63.6244C544.043 -21.3952 496.079 -209.948 505.109 -293.597L411.809 -301.803L286.104 452.533C737.441 619.786 1312.37 877.082 1459.71 579.517C1593.56 309.209 1138.25 169.899 808.137 63.6244Z" fill="url(#paint1_linear_2638_8174)"/>
<path d="M919.451 208.35C677.507 -50.47 403.093 -209.587 415.927 -292.649L308.239 -315.389L141.297 426.794C658.592 665.592 1661.14 895.009 1502.75 569.921C1304.78 163.561 1193.4 501.413 919.451 208.35Z" fill="url(#paint2_linear_2638_8174)"/>
<path d="M1165.11 558.994C1351.12 658.069 1316.89 587.406 1344.23 563.279L1643.82 927.853L1294.9 1429L-54.9272 -214.384C183.539 -309.468 378.786 184.863 690.488 204.703C913.297 218.885 1019.78 481.583 1165.11 558.994Z" fill="url(#paint3_linear_2638_8174)"/>
<g filter="url(#filter0_d_2638_8174)">
<path d="M351.431 235.349C193.794 91.7303 247.252 56.5674 242.12 -10L-107.367 -0.490368L-132 1076L1443 1032.26C1344.47 587.205 996.99 895.011 800.991 482.599C660.889 187.8 474.598 347.562 351.431 235.349Z" fill="url(#paint4_linear_2638_8174)"/>
</g>
<g filter="url(#filter1_b_2638_8174)">
<path d="M283.02 670.596C10.0081 664.828 -72.5537 495.128 -79.7081 411L-172 430.229L-150.537 1201.81C320.223 1233.06 1212.38 1233.06 1014.92 983.074C768.089 670.597 624.286 677.807 283.02 670.596Z" fill="url(#paint5_linear_2638_8174)"/>
</g>
</g>
<defs>
<filter id="filter0_d_2638_8174" x="-136" y="-10" width="1583" height="1094" filterUnits="userSpaceOnUse" color-interpolation-filters="sRGB">
<feFlood flood-opacity="0" result="BackgroundImageFix"/>
<feColorMatrix in="SourceAlpha" type="matrix" values="0 0 0 0 0 0 0 0 0 0 0 0 0 0 0 0 0 0 127 0" result="hardAlpha"/>
<feOffset dy="4"/>
<feGaussianBlur stdDeviation="2"/>
<feComposite in2="hardAlpha" operator="out"/>
<feColorMatrix type="matrix" values="0 0 0 0 0 0 0 0 0 0 0 0 0 0 0 0 0 0 0.25 0"/>
<feBlend mode="normal" in2="BackgroundImageFix" result="effect1_dropShadow_2638_8174"/>
<feBlend mode="normal" in="SourceGraphic" in2="effect1_dropShadow_2638_8174" result="shape"/>
</filter>
<filter id="filter1_b_2638_8174" x="-960" y="-377" width="2791" height="2381" filterUnits="userSpaceOnUse" color-interpolation-filters="sRGB">
<feFlood flood-opacity="0" result="BackgroundImageFix"/>
<feGaussianBlur in="BackgroundImageFix" stdDeviation="394"/>
<feComposite in2="SourceAlpha" operator="in" result="effect1_backgroundBlur_2638_8174"/>
<feBlend mode="normal" in="SourceGraphic" in2="effect1_backgroundBlur_2638_8174" result="shape"/>
</filter>
<linearGradient id="paint0_linear_2638_8174" x1="1153.71" y1="-78.6879" x2="726.832" y2="294.072" gradientUnits="userSpaceOnUse">
<stop stop-color="#503872"/>
<stop offset="0.618852" stop-color="#4C2B74"/>
</linearGradient>
<linearGradient id="paint1_linear_2638_8174" x1="1075.22" y1="22.0503" x2="648.344" y2="394.81" gradientUnits="userSpaceOnUse">
<stop offset="0.170163" stop-color="#503872"/>
<stop offset="0.39" stop-color="#67438A"/>
</linearGradient>
<linearGradient id="paint2_linear_2638_8174" x1="1066.38" y1="114.386" x2="622.319" y2="495.047" gradientUnits="userSpaceOnUse">
<stop offset="0.455" stop-color="#503872"/>
<stop offset="1" stop-color="#311A4D"/>
</linearGradient>
<linearGradient id="paint3_linear_2638_8174" x1="1117.99" y1="206.447" x2="705.792" y2="467.97" gradientUnits="userSpaceOnUse">
<stop stop-color="#503872"/>
<stop offset="0.365" stop-color="#503872"/>
<stop offset="0.885417" stop-color="#644289"/>
</linearGradient>
<linearGradient id="paint4_linear_2638_8174" x1="700.918" y1="214.427" x2="234.524" y2="788.946" gradientUnits="userSpaceOnUse">
<stop offset="0.442075" stop-color="#67468B"/>
<stop offset="0.530934" stop-color="#503872"/>
</linearGradient>
<linearGradient id="paint5_linear_2638_8174" x1="534.825" y1="552.161" x2="195.192" y2="1042.97" gradientUnits="userSpaceOnUse">
<stop stop-color="#66448B"/>
<stop offset="0.535" stop-color="#503174"/>
</linearGradient>
<clipPath id="clip0_2638_8174">
<rect width="1280" height="800" fill="white"/>
</clipPath>
</defs>
</svg>
