<svg width="20" height="20" viewBox="0 0 20 20" fill="none" xmlns="http://www.w3.org/2000/svg">
<path d="M15.7143 0H4.28571C1.91878 0 0 1.91878 0 4.28571V15.7143C0 18.0812 1.91878 20 4.28571 20H15.7143C18.0812 20 20 18.0812 20 15.7143V4.28571C20 1.91878 18.0812 0 15.7143 0Z" fill="#503872"/>
<path d="M14 11.9231H7.3913C6.62291 11.9231 6 12.6119 6 13.4615M14 11.9231V14.2308C14 14.6556 13.6885 15 13.3043 15H7.3913C6.62291 15 6 14.3112 6 13.4615M14 11.9231V5.76923C14 5.3444 13.6885 5 13.3043 5H8.26087M6 13.4615V6.53846C6 5.68879 6.62291 5 7.3913 5H8.26087M10.027 7.30769H11.9348M10.027 9.61538H11.9348M8.26087 11.875V5" stroke="white" stroke-linecap="round" stroke-linejoin="round"/>
</svg>
